<svg width="40" height="33" viewBox="0 0 40 33" fill="none" xmlns="http://www.w3.org/2000/svg">
<path fill-rule="evenodd" clip-rule="evenodd" d="M13.3334 4.75C13.3334 4.39638 13.4739 4.05724 13.7239 3.80719C13.974 3.55714 14.3131 3.41667 14.6667 3.41667H36.0001C36.3537 3.41667 36.6928 3.55714 36.9429 3.80719C37.1929 4.05724 37.3334 4.39638 37.3334 4.75V28.75C37.3334 29.1036 37.1929 29.4428 36.9429 29.6928C36.6928 29.9429 36.3537 30.0833 36.0001 30.0833H14.6667C14.3131 30.0833 13.974 29.9429 13.7239 29.6928C13.4739 29.4428 13.3334 29.1036 13.3334 28.75V23.4167C13.3334 23.063 13.1929 22.7239 12.9429 22.4739C12.6928 22.2238 12.3537 22.0833 12.0001 22.0833C11.6465 22.0833 11.3073 22.2238 11.0573 22.4739C10.8072 22.7239 10.6667 23.063 10.6667 23.4167V28.75C10.6667 29.8109 11.0882 30.8283 11.8383 31.5784C12.5885 32.3286 13.6059 32.75 14.6667 32.75H36.0001C37.0609 32.75 38.0784 32.3286 38.8285 31.5784C39.5787 30.8283 40.0001 29.8109 40.0001 28.75V4.75C40.0001 3.68913 39.5787 2.67172 38.8285 1.92157C38.0784 1.17143 37.0609 0.75 36.0001 0.75H14.6667C13.6059 0.75 12.5885 1.17143 11.8383 1.92157C11.0882 2.67172 10.6667 3.68913 10.6667 4.75V10.0833C10.6667 10.437 10.8072 10.7761 11.0573 11.0261C11.3073 11.2762 11.6465 11.4167 12.0001 11.4167C12.3537 11.4167 12.6928 11.2762 12.9429 11.0261C13.1929 10.7761 13.3334 10.437 13.3334 10.0833V4.75Z" fill="#1B4596"/>
<path fill-rule="evenodd" clip-rule="evenodd" d="M28.944 17.694C29.0682 17.5701 29.1667 17.423 29.2339 17.261C29.3011 17.099 29.3357 16.9254 29.3357 16.75C29.3357 16.5746 29.3011 16.401 29.2339 16.239C29.1667 16.077 29.0682 15.9299 28.944 15.806L20.944 7.806C20.82 7.68203 20.6729 7.58369 20.5109 7.5166C20.3489 7.44951 20.1753 7.41498 20 7.41498C19.8247 7.41498 19.6511 7.44951 19.4891 7.5166C19.3271 7.58369 19.18 7.68203 19.056 7.806C18.932 7.92996 18.8337 8.07713 18.7666 8.23911C18.6995 8.40108 18.665 8.57468 18.665 8.75C18.665 8.92531 18.6995 9.09891 18.7666 9.26089C18.8337 9.42286 18.932 9.57003 19.056 9.694L24.7813 15.4167H1.33333C0.979711 15.4167 0.640573 15.5571 0.390524 15.8072C0.140476 16.0572 0 16.3964 0 16.75C0 17.1036 0.140476 17.4428 0.390524 17.6928C0.640573 17.9429 0.979711 18.0833 1.33333 18.0833H24.7813L19.056 23.806C18.932 23.93 18.8337 24.0771 18.7666 24.2391C18.6995 24.4011 18.665 24.5747 18.665 24.75C18.665 24.9253 18.6995 25.0989 18.7666 25.2609C18.8337 25.4229 18.932 25.57 19.056 25.694C19.18 25.818 19.3271 25.9163 19.4891 25.9834C19.6511 26.0505 19.8247 26.085 20 26.085C20.1753 26.085 20.3489 26.0505 20.5109 25.9834C20.6729 25.9163 20.82 25.818 20.944 25.694L28.944 17.694Z" fill="#1B4596"/>
</svg>
