<svg width="24" height="14" viewBox="0 0 24 14" fill="none" xmlns="http://www.w3.org/2000/svg">
<path d="M0 1C0 1.26522 0.105357 1.51957 0.292893 1.70711C0.48043 1.89464 0.734784 2 1 2H7C7.26522 2 7.51957 1.89464 7.70711 1.70711C7.89464 1.51957 8 1.26522 8 1C8 0.734783 7.89464 0.480429 7.70711 0.292892C7.51957 0.105356 7.26522 0 7 0H1C0.734784 0 0.48043 0.105356 0.292893 0.292892C0.105357 0.480429 0 0.734783 0 1ZM0 7C0 7.26522 0.105357 7.51957 0.292893 7.70711C0.48043 7.89464 0.734784 8 1 8H15C15.2652 8 15.5196 7.89464 15.7071 7.70711C15.8946 7.51957 16 7.26522 16 7C16 6.73478 15.8946 6.48043 15.7071 6.29289C15.5196 6.10536 15.2652 6 15 6H1C0.734784 6 0.48043 6.10536 0.292893 6.29289C0.105357 6.48043 0 6.73478 0 7ZM0 13C0 13.2652 0.105357 13.5196 0.292893 13.7071C0.48043 13.8946 0.734784 14 1 14H23C23.2652 14 23.5196 13.8946 23.7071 13.7071C23.8946 13.5196 24 13.2652 24 13C24 12.7348 23.8946 12.4804 23.7071 12.2929C23.5196 12.1054 23.2652 12 23 12H1C0.734784 12 0.48043 12.1054 0.292893 12.2929C0.105357 12.4804 0 12.7348 0 13Z" fill="black"/>
</svg>
