<svg width="23" height="48" viewBox="0 0 23 48" fill="none" xmlns="http://www.w3.org/2000/svg">
<path fill-rule="evenodd" clip-rule="evenodd" d="M21.7102 20.2367C21.7853 20.3115 21.8448 20.4004 21.8854 20.4983C21.926 20.5961 21.9469 20.701 21.9469 20.807C21.9469 20.913 21.926 21.0179 21.8854 21.1157C21.8448 21.2136 21.7853 21.3025 21.7102 21.3773L12.0436 31.044C11.9687 31.119 11.8798 31.1785 11.782 31.2191C11.6841 31.2598 11.5792 31.2807 11.4732 31.2807C11.3673 31.2807 11.2624 31.2598 11.1645 31.2191C11.0666 31.1785 10.9777 31.119 10.9029 31.044L1.23624 21.3773C1.08497 21.2261 0.999998 21.0209 0.999998 20.807C0.999998 20.5931 1.08497 20.3879 1.23624 20.2367C1.3875 20.0854 1.59265 20.0004 1.80657 20.0004C2.02049 20.0004 2.22564 20.0854 2.3769 20.2367L11.4732 29.3346L20.5696 20.2367C20.6444 20.1616 20.7333 20.1021 20.8312 20.0615C20.929 20.0209 21.0339 20 21.1399 20C21.2459 20 21.3508 20.0209 21.4486 20.0615C21.5465 20.1021 21.6354 20.1616 21.7102 20.2367Z" fill="#1B4596" stroke="#1B4596" stroke-width="0.5"/>
</svg>
