<svg width="46" height="32" viewBox="0 0 46 32" fill="none" xmlns="http://www.w3.org/2000/svg">
<path d="M45.4161 0.583974C45.6023 0.769757 45.7501 0.990459 45.8509 1.23344C45.9518 1.47642 46.0037 1.73691 46.0037 1.99997C46.0037 2.26304 45.9518 2.52353 45.8509 2.76651C45.7501 3.00949 45.6023 3.23019 45.4161 3.41597L17.4161 31.416C17.2303 31.6022 17.0096 31.75 16.7666 31.8508C16.5236 31.9516 16.2632 32.0035 16.0001 32.0035C15.737 32.0035 15.4765 31.9516 15.2336 31.8508C14.9906 31.75 14.7699 31.6022 14.5841 31.416L0.584085 17.416C0.208538 17.0404 -0.00244141 16.5311 -0.00244141 16C-0.00244141 15.4689 0.208538 14.9595 0.584085 14.584C0.959631 14.2084 1.46898 13.9974 2.00008 13.9974C2.53119 13.9974 3.04054 14.2084 3.41609 14.584L16.0001 27.172L42.5841 0.583974C42.7699 0.397721 42.9906 0.24995 43.2336 0.149124C43.4765 0.0482984 43.737 -0.00360107 44.0001 -0.00360107C44.2632 -0.00360107 44.5236 0.0482984 44.7666 0.149124C45.0096 0.24995 45.2303 0.397721 45.4161 0.583974Z" fill="#1B4596"/>
</svg>
