<svg width="24" height="24" viewBox="0 0 24 24" fill="none" xmlns="http://www.w3.org/2000/svg">
<path d="M12 22.5C9.21523 22.5 6.54451 21.3938 4.57538 19.4246C2.60625 17.4555 1.5 14.7848 1.5 12C1.5 9.21523 2.60625 6.54451 4.57538 4.57538C6.54451 2.60625 9.21523 1.5 12 1.5C14.7848 1.5 17.4555 2.60625 19.4246 4.57538C21.3938 6.54451 22.5 9.21523 22.5 12C22.5 14.7848 21.3938 17.4555 19.4246 19.4246C17.4555 21.3938 14.7848 22.5 12 22.5ZM12 24C15.1826 24 18.2348 22.7357 20.4853 20.4853C22.7357 18.2348 24 15.1826 24 12C24 8.8174 22.7357 5.76516 20.4853 3.51472C18.2348 1.26428 15.1826 0 12 0C8.8174 0 5.76516 1.26428 3.51472 3.51472C1.26428 5.76516 0 8.8174 0 12C0 15.1826 1.26428 18.2348 3.51472 20.4853C5.76516 22.7357 8.8174 24 12 24Z" fill="#1B4596"/>
<path d="M7.88264 8.67913C7.88059 8.72757 7.88847 8.77592 7.90579 8.8212C7.92311 8.86649 7.94952 8.90775 7.98338 8.94245C8.01724 8.97716 8.05784 9.00457 8.10268 9.023C8.14753 9.04143 8.19567 9.05049 8.24414 9.04963H9.48164C9.68864 9.04963 9.85364 8.88013 9.88064 8.67463C10.0156 7.69063 10.6906 6.97363 11.8936 6.97363C12.9226 6.97363 13.8646 7.48813 13.8646 8.72563C13.8646 9.67813 13.3036 10.1161 12.4171 10.7821C11.4076 11.5156 10.6081 12.3721 10.6651 13.7626L10.6696 14.0881C10.6712 14.1865 10.7114 14.2804 10.7816 14.3494C10.8517 14.4185 10.9462 14.4571 11.0446 14.4571H12.2611C12.3606 14.4571 12.456 14.4176 12.5263 14.3473C12.5966 14.277 12.6361 14.1816 12.6361 14.0821V13.9246C12.6361 12.8476 13.0456 12.5341 14.1511 11.6956C15.0646 11.0011 16.0171 10.2301 16.0171 8.61163C16.0171 6.34513 14.1031 5.25013 12.0076 5.25013C10.1071 5.25013 8.02514 6.13513 7.88264 8.67913ZM10.2181 17.3236C10.2181 18.1231 10.8556 18.7141 11.7331 18.7141C12.6466 18.7141 13.2751 18.1231 13.2751 17.3236C13.2751 16.4956 12.6451 15.9136 11.7316 15.9136C10.8556 15.9136 10.2181 16.4956 10.2181 17.3236Z" fill="#1B4596"/>
</svg>
