<svg width="24" height="21" viewBox="0 0 24 21" fill="none" xmlns="http://www.w3.org/2000/svg">
<path d="M11.9066 1.52612C11.936 1.51 11.969 1.50174 12.0026 1.50212C12.0356 1.50199 12.0681 1.51025 12.0971 1.52612C12.1314 1.54669 12.1594 1.57626 12.1781 1.61162L22.4636 19.1121C22.5176 19.2021 22.5161 19.2981 22.4666 19.3866C22.4475 19.4229 22.4197 19.4539 22.3856 19.4766C22.3559 19.4948 22.3214 19.5037 22.2866 19.5021H1.71855C1.68373 19.5038 1.64922 19.4949 1.61955 19.4766C1.58543 19.4539 1.55758 19.4229 1.53855 19.3866C1.51383 19.345 1.50104 19.2974 1.50157 19.249C1.5021 19.2005 1.51593 19.1532 1.54155 19.1121L11.8256 1.61162C11.8443 1.57631 11.8723 1.54675 11.9066 1.52612ZM13.4726 0.851125C13.3241 0.592471 13.11 0.377574 12.8519 0.228134C12.5938 0.0786933 12.3008 0 12.0026 0C11.7043 0 11.4113 0.0786933 11.1532 0.228134C10.8951 0.377574 10.681 0.592471 10.5326 0.851125L0.247053 18.3516C-0.438447 19.5186 0.383553 21.0021 1.71705 21.0021H22.2866C23.6201 21.0021 24.4436 19.5171 23.7566 18.3516L13.4726 0.851125Z" fill="#1B4596"/>
<path d="M10.5024 16.5021C10.5024 16.3051 10.5412 16.1101 10.6166 15.9281C10.692 15.7461 10.8025 15.5808 10.9418 15.4415C11.0811 15.3022 11.2464 15.1917 11.4284 15.1163C11.6104 15.0409 11.8055 15.0021 12.0024 15.0021C12.1994 15.0021 12.3945 15.0409 12.5765 15.1163C12.7585 15.1917 12.9238 15.3022 13.0631 15.4415C13.2024 15.5808 13.3129 15.7461 13.3883 15.9281C13.4636 16.1101 13.5024 16.3051 13.5024 16.5021C13.5024 16.9 13.3444 17.2815 13.0631 17.5628C12.7818 17.8441 12.4003 18.0021 12.0024 18.0021C11.6046 18.0021 11.2231 17.8441 10.9418 17.5628C10.6605 17.2815 10.5024 16.9 10.5024 16.5021ZM10.6494 7.49463C10.6295 7.30539 10.6495 7.11407 10.7082 6.93307C10.767 6.75207 10.8631 6.58545 10.9904 6.44401C11.1177 6.30257 11.2733 6.18947 11.4472 6.11205C11.621 6.03464 11.8092 5.99463 11.9994 5.99463C12.1897 5.99463 12.3779 6.03464 12.5517 6.11205C12.7256 6.18947 12.8812 6.30257 13.0085 6.44401C13.1358 6.58545 13.2319 6.75207 13.2906 6.93307C13.3494 7.11407 13.3694 7.30539 13.3494 7.49463L12.8244 12.7551C12.8068 12.9618 12.7122 13.1543 12.5595 13.2946C12.4067 13.4349 12.2069 13.5127 11.9994 13.5127C11.792 13.5127 11.5922 13.4349 11.4394 13.2946C11.2866 13.1543 11.1921 12.9618 11.1744 12.7551L10.6494 7.49463Z" fill="#1B4596"/>
</svg>
