<svg width="28" height="28" viewBox="0 0 28 28" fill="none" xmlns="http://www.w3.org/2000/svg">
<path d="M0.584156 0.583973C0.769939 0.39772 0.990641 0.249948 1.23362 0.149122C1.4766 0.0482964 1.73709 -0.00360107 2.00016 -0.00360107C2.26323 -0.00360107 2.52371 0.0482964 2.76669 0.149122C3.00967 0.249948 3.23037 0.39772 3.41616 0.583973L14.0002 11.172L24.5842 0.583973C24.7701 0.398021 24.9909 0.250516 25.2338 0.149879C25.4768 0.0492431 25.7372 -0.00255394 26.0002 -0.00255394C26.2631 -0.00255394 26.5235 0.0492431 26.7665 0.149879C27.0094 0.250516 27.2302 0.398021 27.4162 0.583973C27.6021 0.769925 27.7496 0.990681 27.8503 1.23364C27.9509 1.4766 28.0027 1.737 28.0027 1.99997C28.0027 2.26295 27.9509 2.52335 27.8503 2.76631C27.7496 3.00927 27.6021 3.23002 27.4162 3.41597L16.8282 14L27.4162 24.584C27.6021 24.7699 27.7496 24.9907 27.8503 25.2336C27.9509 25.4766 28.0027 25.737 28.0027 26C28.0027 26.2629 27.9509 26.5233 27.8503 26.7663C27.7496 27.0093 27.6021 27.23 27.4162 27.416C27.2302 27.6019 27.0094 27.7494 26.7665 27.8501C26.5235 27.9507 26.2631 28.0025 26.0002 28.0025C25.7372 28.0025 25.4768 27.9507 25.2338 27.8501C24.9909 27.7494 24.7701 27.6019 24.5842 27.416L14.0002 16.828L3.41616 27.416C3.23021 27.6019 3.00945 27.7494 2.76649 27.8501C2.52353 27.9507 2.26313 28.0025 2.00016 28.0025C1.73718 28.0025 1.47678 27.9507 1.23382 27.8501C0.990864 27.7494 0.770108 27.6019 0.584156 27.416C0.398204 27.23 0.250699 27.0093 0.150063 26.7663C0.0494262 26.5233 -0.00237083 26.2629 -0.00237083 26C-0.00237083 25.737 0.0494262 25.4766 0.150063 25.2336C0.250699 24.9907 0.398204 24.7699 0.584156 24.584L11.1722 14L0.584156 3.41597C0.397903 3.23019 0.250131 3.00949 0.149305 2.76651C0.0484795 2.52353 -0.00341797 2.26304 -0.00341797 1.99997C-0.00341797 1.7369 0.0484795 1.47642 0.149305 1.23344C0.250131 0.990458 0.397903 0.769756 0.584156 0.583973Z" fill="#1B4596"/>
</svg>
