<svg version="1.1" viewBox="0.0 0.0 960.0 540.0" fill="none" stroke="none" stroke-linecap="square" stroke-miterlimit="10" xmlns:xlink="http://www.w3.org/1999/xlink" xmlns="http://www.w3.org/2000/svg"><clipPath id="g2b8d5f3b2c6_0_429.0"><path d="m0 0l960.0 0l0 540.0l-960.0 0l0 -540.0z" clip-rule="nonzero"/></clipPath><g clip-path="url(#g2b8d5f3b2c6_0_429.0)"><path fill="#ffffff" d="m0 0l960.0 0l0 540.0l-960.0 0z" fill-rule="evenodd"/><path fill="#000000" fill-opacity="0.0" d="m113.7664 124.77165l757.8898 0l0 311.30707l-757.8898 0z" fill-rule="evenodd"/><path fill="#595959" d="m138.72842 146.12166q1.421875 0 2.796875 0.75q1.390625 0.734375 2.15625 2.125q0.765625 1.375 0.765625 2.859375q0 2.375 -1.6875 4.0625q-1.671875 1.671875 -4.03125 1.671875q-2.390625 0 -4.078125 -1.671875q-1.671875 -1.6875 -1.671875 -4.0625q0 -1.5 0.765625 -2.875q0.78125 -1.375 2.15625 -2.109375q1.375 -0.75 2.828125 -0.75z" fill-rule="nonzero"/><path fill="#595959" d="m178.42265 159.60603q-1.9375 0 -3.359375 -0.84375q-1.40625 -0.859375 -2.171875 -2.390625q-0.765625 -1.53125 -0.765625 -3.5625q0 -2.046875 0.765625 -3.53125q0.765625 -1.5 2.171875 -2.296875q1.421875 -0.796875 3.359375 -0.796875q1.203125 0 2.375 0.421875q1.171875 0.421875 1.9375 1.203125l-0.734375 1.5625q-0.78125 -0.75 -1.703125 -1.09375q-0.90625 -0.34375 -1.734375 -0.34375q-2.03125 0 -3.125 1.265625q-1.09375 1.265625 -1.09375 3.640625q0 2.3125 1.09375 3.671875q1.09375 1.34375 3.125 1.34375q0.828125 0 1.734375 -0.34375q0.921875 -0.359375 1.703125 -1.125l0.734375 1.578125q-0.765625 0.765625 -1.953125 1.203125q-1.1875 0.4375 -2.359375 0.4375zm9.780228 -0.234375l0 -11.21875l-4.6875 0l0 -1.734375l11.5625 0l0 1.734375l-4.71875 0l0 11.21875l-2.15625 0zm10.716782 4.796875l2.421875 -5.46875l0 0.9375l-5.671875 -13.21875l2.34375 0l4.640625 11.359375l-0.71875 0l4.6875 -11.359375l2.265625 0l-7.703125 17.75l-2.265625 0zm10.710312 -1.328125l0 -5.203125l1.359375 0q0.609375 -0.90625 1.0 -1.984375q0.390625 -1.078125 0.5625 -2.40625q0.171875 -1.34375 0.171875 -3.015625l0 -3.8125l9.171875 0l0 11.21875l2.046875 0l0 5.203125l-1.859375 0l0 -3.46875l-10.609375 0l0 3.46875l-1.84375 0zm3.4375 -5.203125l6.765625 0l0 -9.515625l-5.1875 0l0 2.484375q0 2.0 -0.40625 3.875q-0.390625 1.859375 -1.171875 3.15625zm19.624191 1.96875q-2.046875 0 -3.53125 -0.8125q-1.46875 -0.8125 -2.296875 -2.296875q-0.8125 -1.5 -0.8125 -3.578125q0 -2.03125 0.796875 -3.53125q0.8125 -1.5 2.203125 -2.34375q1.40625 -0.859375 3.25 -0.859375q1.75 0 3.0 0.765625q1.265625 0.765625 1.9375 2.1875q0.6875 1.40625 0.6875 3.390625l0 0.8125l-10.21875 0l0 -1.40625l8.78125 0l-0.4375 0.34375q0 -2.125 -0.953125 -3.3125q-0.9375 -1.1875 -2.75 -1.1875q-1.359375 0 -2.3125 0.625q-0.9375 0.625 -1.421875 1.734375q-0.46875 1.109375 -0.46875 2.578125l0 0.15625q0 1.625 0.515625 2.75q0.515625 1.109375 1.546875 1.6875q1.046875 0.5625 2.484375 0.5625q1.15625 0 2.234375 -0.359375q1.078125 -0.359375 2.03125 -1.171875l0.75 1.515625q-0.875 0.796875 -2.234375 1.28125q-1.359375 0.46875 -2.78125 0.46875zm8.572632 -0.234375l0 -12.953125l2.171875 0l0 5.375l7.0625 0l0 -5.375l2.15625 0l0 12.953125l-2.15625 0l0 -5.8125l-7.0625 0l0 5.8125l-2.171875 0zm18.350296 0l0 -11.21875l-4.6875153 0l0 -1.734375l11.562515 0l0 1.734375l-4.71875 0l0 11.21875l-2.15625 0zm9.132202 0l0 -12.953125l2.171875 0l0 4.609375l3.90625 0q2.484375 0 3.765625 1.078125q1.28125 1.078125 1.28125 3.046875q0 1.3125 -0.609375 2.265625q-0.59375 0.9375 -1.703125 1.453125q-1.09375 0.5 -2.734375 0.5l-6.078125 0zm2.171875 -1.546875l3.703125 0q1.515625 0 2.34375 -0.640625q0.828125 -0.640625 0.828125 -2.0q0 -1.359375 -0.828125 -1.984375q-0.828125 -0.625 -2.34375 -0.625l-3.703125 0l0 5.25zm10.875 1.546875l0 -12.953125l2.15625 0l0 12.953125l-2.15625 0z" fill-rule="nonzero"/><path fill="#595959" d="m138.72842 182.92165q1.421875 0 2.796875 0.75q1.390625 0.734375 2.15625 2.125q0.765625 1.375 0.765625 2.859375q0 2.375 -1.6875 4.0625q-1.671875 1.671875 -4.03125 1.671875q-2.390625 0 -4.078125 -1.671875q-1.671875 -1.6875 -1.671875 -4.0625q0 -1.5 0.765625 -2.875q0.78125 -1.375 2.15625 -2.109375q1.375 -0.75 2.828125 -0.75z" fill-rule="nonzero"/><path fill="#595959" d="m177.0164 196.40602q-1.34375 0 -2.390625 -0.515625q-1.046875 -0.515625 -1.671875 -1.421875q-0.609375 -0.90625 -0.609375 -2.03125q0 -1.4375 0.734375 -2.265625q0.734375 -0.828125 2.421875 -1.171875q1.703125 -0.34375 4.625 -0.34375l1.203125 0l0 1.40625l-1.171875 0q-1.625 0 -2.71875 0.109375q-1.09375 0.109375 -1.734375 0.375q-0.640625 0.265625 -0.90625 0.703125q-0.265625 0.421875 -0.265625 1.0625q0 1.09375 0.75 1.78125q0.765625 0.6875 2.078125 0.6875q1.0625 0 1.875 -0.5q0.8125 -0.515625 1.28125 -1.390625q0.46875 -0.875 0.46875 -2.015625l0 -3.046875q0 -1.65625 -0.671875 -2.390625q-0.65625 -0.734375 -2.1875 -0.734375q-1.171875 0 -2.265625 0.34375q-1.09375 0.328125 -2.234375 1.078125l-0.75 -1.578125q0.703125 -0.484375 1.578125 -0.84375q0.875 -0.359375 1.828125 -0.53125q0.96875 -0.1875 1.84375 -0.1875q1.6875 0 2.78125 0.546875q1.09375 0.53125 1.625 1.640625q0.53125 1.109375 0.53125 2.84375l0 8.15625l-2.03125 0l0 -3.015625l0.25 0q-0.21875 1.015625 -0.828125 1.734375q-0.59375 0.71875 -1.46875 1.125q-0.875 0.390625 -1.96875 0.390625zm15.7739105 0q-1.9375 0 -3.359375 -0.84375q-1.40625 -0.859375 -2.171875 -2.390625q-0.765625 -1.53125 -0.765625 -3.5625q0 -2.046875 0.765625 -3.53125q0.765625 -1.5 2.171875 -2.296875q1.421875 -0.796875 3.359375 -0.796875q1.203125 0 2.375 0.421875q1.171875 0.421875 1.9375 1.203125l-0.734375 1.5625q-0.78125 -0.75 -1.703125 -1.09375q-0.90625 -0.34375 -1.734375 -0.34375q-2.03125 0 -3.125 1.265625q-1.09375 1.265625 -1.09375 3.640625q0 2.3125 1.09375 3.671875q1.09375 1.34375 3.125 1.34375q0.828125 0 1.734375 -0.34375q0.921875 -0.359375 1.703125 -1.125l0.734375 1.578125q-0.765625 0.765625 -1.953125 1.203125q-1.1875 0.4375 -2.359375 0.4375zm7.0771027 -0.234375l0 -12.953125l11.3125 0l0 12.953125l-2.15625 0l0 -11.21875l-6.984375 0l0 11.21875l-2.171875 0zm15.5672 0l0 -12.953125l1.984375 0l0 10.90625l-0.671875 0l8.15625 -10.90625l1.84375 0l0 12.953125l-1.96875 0l0 -10.921875l0.65625 0l-8.15625 10.921875l-1.84375 0zm15.614075 4.796875l0 -17.75l2.09375 0l0 3.0625l-0.265625 0q0.4375 -1.515625 1.703125 -2.40625q1.265625 -0.890625 3.015625 -0.890625q1.734375 0 3.03125 0.8125q1.296875 0.8125 2.0 2.3125q0.703125 1.5 0.703125 3.578125q0 2.0625 -0.703125 3.578125q-0.703125 1.5 -1.984375 2.328125q-1.28125 0.8125 -3.046875 0.8125q-1.75 0 -3.015625 -0.890625q-1.25 -0.890625 -1.703125 -2.375l0.328125 0l0 7.828125l-2.15625 0zm6.09375 -6.296875q1.84375 0 2.921875 -1.28125q1.078125 -1.296875 1.078125 -3.703125q0 -2.421875 -1.078125 -3.703125q-1.078125 -1.28125 -2.921875 -1.28125q-1.8125 0 -2.90625 1.28125q-1.09375 1.28125 -1.09375 3.703125q0 2.40625 1.09375 3.703125q1.09375 1.28125 2.90625 1.28125zm13.791473 1.734375q-1.34375 0 -2.390625 -0.515625q-1.046875 -0.515625 -1.671875 -1.421875q-0.609375 -0.90625 -0.609375 -2.03125q0 -1.4375 0.734375 -2.265625q0.734375 -0.828125 2.421875 -1.171875q1.703125 -0.34375 4.625 -0.34375l1.203125 0l0 1.40625l-1.171875 0q-1.625 0 -2.71875 0.109375q-1.09375 0.109375 -1.734375 0.375q-0.640625 0.265625 -0.90625 0.703125q-0.265625 0.421875 -0.265625 1.0625q0 1.09375 0.75 1.78125q0.765625 0.6875 2.078125 0.6875q1.0625 0 1.875 -0.5q0.8125 -0.515625 1.28125 -1.390625q0.46875 -0.875 0.46875 -2.015625l0 -3.046875q0 -1.65625 -0.671875 -2.390625q-0.65625 -0.734375 -2.1875 -0.734375q-1.171875 0 -2.265625 0.34375q-1.09375 0.328125 -2.234375 1.078125l-0.75 -1.578125q0.703125 -0.484375 1.578125 -0.84375q0.875 -0.359375 1.828125 -0.53125q0.96875 -0.1875 1.84375 -0.1875q1.6875 0 2.78125 0.546875q1.09375 0.53125 1.6250153 1.640625q0.53125 1.109375 0.53125 2.84375l0 8.15625l-2.0312653 0l0 -3.015625l0.25 0q-0.21875 1.015625 -0.828125 1.734375q-0.59375 0.71875 -1.46875 1.125q-0.875 0.390625 -1.96875 0.390625zm10.2426605 -0.234375l0 -12.953125l2.171875 0l0 5.375l7.0625 0l0 -5.375l2.15625 0l0 12.953125l-2.15625 0l0 -5.8125l-7.0625 0l0 5.8125l-2.171875 0zm18.35028 0l0 -11.21875l-4.6875 0l0 -1.734375l11.5625 0l0 1.734375l-4.71875 0l0 11.21875l-2.15625 0zm9.132202 0l0 -12.953125l2.171875 0l0 4.609375l3.90625 0q2.484375 0 3.765625 1.078125q1.28125 1.078125 1.28125 3.046875q0 1.3125 -0.609375 2.265625q-0.59375 0.9375 -1.703125 1.453125q-1.09375 0.5 -2.734375 0.5l-6.078125 0zm2.171875 -1.546875l3.703125 0q1.515625 0 2.34375 -0.640625q0.828125 -0.640625 0.828125 -2.0q0 -1.359375 -0.828125 -1.984375q-0.828125 -0.625 -2.34375 -0.625l-3.703125 0l0 5.25zm10.875 1.546875l0 -12.953125l2.15625 0l0 12.953125l-2.15625 0z" fill-rule="nonzero"/><path fill="#595959" d="m138.72842 219.72165q1.421875 0 2.796875 0.75q1.390625 0.734375 2.15625 2.125q0.765625 1.375 0.765625 2.859375q0 2.375 -1.6875 4.0625q-1.671875 1.671875 -4.03125 1.671875q-2.390625 0 -4.078125 -1.671875q-1.671875 -1.6875 -1.671875 -4.0625q0 -1.5 0.765625 -2.875q0.78125 -1.375 2.15625 -2.109375q1.375 -0.75 2.828125 -0.75z" fill-rule="nonzero"/><path fill="#595959" d="m172.8914 232.97165l0 -12.953125l2.171875 0l0 5.375l7.0625 0l0 -5.375l2.15625 0l0 12.953125l-2.15625 0l0 -5.8125l-7.0625 0l0 5.8125l-2.171875 0zm19.772156 0.234375q-1.34375 0 -2.390625 -0.515625q-1.046875 -0.515625 -1.671875 -1.421875q-0.609375 -0.90625 -0.609375 -2.03125q0 -1.4375 0.734375 -2.265625q0.734375 -0.828125 2.421875 -1.171875q1.703125 -0.34375 4.625 -0.34375l1.203125 0l0 1.40625l-1.171875 0q-1.625 0 -2.71875 0.109375q-1.09375 0.109375 -1.734375 0.375q-0.640625 0.265625 -0.90625 0.703125q-0.265625 0.421875 -0.265625 1.0625q0 1.09375 0.75 1.78125q0.765625 0.6875 2.078125 0.6875q1.0625 0 1.875 -0.5q0.8125 -0.515625 1.28125 -1.390625q0.46875 -0.875 0.46875 -2.015625l0 -3.046875q0 -1.65625 -0.671875 -2.390625q-0.65625 -0.734375 -2.1875 -0.734375q-1.171875 0 -2.265625 0.34375q-1.09375 0.328125 -2.234375 1.078125l-0.75 -1.578125q0.703125 -0.484375 1.578125 -0.84375q0.875 -0.359375 1.828125 -0.53125q0.96875 -0.1875 1.84375 -0.1875q1.6875 0 2.78125 0.546875q1.09375 0.53125 1.625 1.640625q0.53125 1.109375 0.53125 2.84375l0 8.15625l-2.03125 0l0 -3.015625l0.25 0q-0.21875 1.015625 -0.828125 1.734375q-0.59375 0.71875 -1.46875 1.125q-0.875 0.390625 -1.96875 0.390625zm11.7739105 4.5625l2.421875 -5.46875l0 0.9375l-5.671875 -13.21875l2.34375 0l4.640625 11.359375l-0.71875 0l4.6875 -11.359375l2.265625 0l-7.703125 17.75l-2.265625 0zm20.764694 -4.796875l0 -5.25q-0.75 0.453125 -1.625 0.6875q-0.859375 0.21875 -1.8125 0.21875q-1.84375 0 -3.0625 -0.578125q-1.203125 -0.59375 -1.796875 -1.78125q-0.578125 -1.1875 -0.578125 -2.96875l0 -3.28125l2.15625 0l0 3.109375q0 1.28125 0.375 2.09375q0.375 0.8125 1.140625 1.203125q0.78125 0.390625 2.03125 0.390625q0.953125 0 1.703125 -0.203125q0.75 -0.21875 1.4375 -0.703125l0 -5.890625l2.15625 0l0 12.953125l-2.125 0zm6.386078 0l0 -12.953125l2.171875 0l0 5.375l7.0625 0l0 -5.375l2.15625 0l0 12.953125l-2.15625 0l0 -5.8125l-7.0625 0l0 5.8125l-2.171875 0zm15.647156 0l0 -12.953125l2.171875 0l0 4.609375l3.90625 0q2.484375 0 3.7656403 1.078125q1.28125 1.078125 1.28125 3.046875q0 1.3125 -0.609375 2.265625q-0.59375 0.9375 -1.703125 1.453125q-1.0937653 0.5 -2.7343903 0.5l-6.078125 0zm2.171875 -1.546875l3.703125 0q1.515625 0 2.34375 -0.640625q0.82814026 -0.640625 0.82814026 -2.0q0 -1.359375 -0.82814026 -1.984375q-0.828125 -0.625 -2.34375 -0.625l-3.703125 0l0 5.25zm10.875015 1.546875l0 -12.953125l2.15625 0l0 12.953125l-2.15625 0zm12.287109 0.234375q-2.046875 0 -3.53125 -0.8125q-1.46875 -0.8125 -2.296875 -2.296875q-0.8125 -1.5 -0.8125 -3.578125q0 -2.03125 0.796875 -3.53125q0.8125 -1.5 2.203125 -2.34375q1.40625 -0.859375 3.25 -0.859375q1.75 0 3.0 0.765625q1.265625 0.765625 1.9375 2.1875q0.6875 1.40625 0.6875 3.390625l0 0.8125l-10.21875 0l0 -1.40625l8.78125 0l-0.4375 0.34375q0 -2.125 -0.953125 -3.3125q-0.9375 -1.1875 -2.75 -1.1875q-1.359375 0 -2.3125 0.625q-0.9375 0.625 -1.421875 1.734375q-0.46875 1.109375 -0.46875 2.578125l0 0.15625q0 1.625 0.515625 2.75q0.515625 1.109375 1.546875 1.6875q1.046875 0.5625 2.484375 0.5625q1.15625 0 2.234375 -0.359375q1.078125 -0.359375 2.03125 -1.171875l0.75 1.515625q-0.875 0.796875 -2.234375 1.28125q-1.359375 0.46875 -2.78125 0.46875zm20.954498 0q-1.9375 0 -3.359375 -0.84375q-1.40625 -0.859375 -2.171875 -2.390625q-0.765625 -1.53125 -0.765625 -3.5625q0 -2.046875 0.765625 -3.53125q0.765625 -1.5 2.171875 -2.296875q1.421875 -0.796875 3.359375 -0.796875q1.203125 0 2.375 0.421875q1.171875 0.421875 1.9375 1.203125l-0.734375 1.5625q-0.78125 -0.75 -1.703125 -1.09375q-0.90625 -0.34375 -1.734375 -0.34375q-2.03125 0 -3.125 1.265625q-1.09375 1.265625 -1.09375 3.640625q0 2.3125 1.09375 3.671875q1.09375 1.34375 3.125 1.34375q0.828125 0 1.734375 -0.34375q0.921875 -0.359375 1.703125 -1.125l0.734375 1.578125q-0.765625 0.765625 -1.953125 1.203125q-1.1875 0.4375 -2.359375 0.4375zm12.498993 0q-1.890625 0 -3.28125 -0.8125q-1.375 -0.828125 -2.140625 -2.328125q-0.765625 -1.515625 -0.765625 -3.578125q0 -2.046875 0.765625 -3.546875q0.765625 -1.515625 2.140625 -2.328125q1.390625 -0.828125 3.28125 -0.828125q1.890625 0 3.28125 0.828125q1.390625 0.8125 2.140625 2.328125q0.765625 1.5 0.765625 3.546875q0 2.0625 -0.765625 3.578125q-0.75 1.5 -2.140625 2.328125q-1.390625 0.8125 -3.28125 0.8125zm0 -1.734375q1.84375 0 2.921875 -1.28125q1.078125 -1.296875 1.078125 -3.71875q0 -2.40625 -1.078125 -3.6875q-1.078125 -1.28125 -2.921875 -1.28125q-1.8125 0 -2.90625 1.28125q-1.09375 1.28125 -1.09375 3.6875q0 2.421875 1.09375 3.71875q1.09375 1.28125 2.90625 1.28125zm12.368622 1.5l0 -11.21875l-4.6875 0l0 -1.734375l11.5625 0l0 1.734375l-4.71875 0l0 11.21875l-2.15625 0zm9.179077 4.796875l0 -17.75l2.09375 0l0 3.0625l-0.265625 0q0.4375 -1.515625 1.703125 -2.40625q1.265625 -0.890625 3.015625 -0.890625q1.734375 0 3.03125 0.8125q1.296875 0.8125 2.0 2.3125q0.703125 1.5 0.703125 3.578125q0 2.0625 -0.703125 3.578125q-0.703125 1.5 -1.984375 2.328125q-1.28125 0.8125 -3.046875 0.8125q-1.75 0 -3.015625 -0.890625q-1.25 -0.890625 -1.703125 -2.375l0.328125 0l0 7.828125l-2.15625 0zm6.09375 -6.296875q1.84375 0 2.921875 -1.28125q1.078125 -1.296875 1.078125 -3.703125q0 -2.421875 -1.078125 -3.703125q-1.078125 -1.28125 -2.921875 -1.28125q-1.8125 0 -2.90625 1.28125q-1.09375 1.28125 -1.09375 3.703125q0 2.40625 1.09375 3.703125q1.09375 1.28125 2.90625 1.28125zm11.03772 6.296875l2.421875 -5.46875l0 0.9375l-5.671875 -13.21875l2.34375 0l4.640625 11.359375l-0.71875 0l4.6875 -11.359375l2.265625 0l-7.703125 17.75l-2.265625 0zm10.710327 -1.328125l0 -5.203125l1.359375 0q0.609375 -0.90625 1.0 -1.984375q0.390625 -1.078125 0.5625 -2.40625q0.171875 -1.34375 0.171875 -3.015625l0 -3.8125l9.171875 0l0 11.21875l2.046875 0l0 5.203125l-1.859375 0l0 -3.46875l-10.609375 0l0 3.46875l-1.84375 0zm3.4375 -5.203125l6.765625 0l0 -9.515625l-5.1875 0l0 2.484375q0 2.0 -0.40625 3.875q-0.390625 1.859375 -1.171875 3.15625zm13.749176 1.734375l0 -12.953125l2.171875 0l0 5.375l7.0625 0l0 -5.375l2.15625 0l0 12.953125l-2.15625 0l0 -5.8125l-7.0625 0l0 5.8125l-2.171875 0zm15.647156 0l0 -12.953125l1.984375 0l0 10.90625l-0.671875 0l8.15625 -10.90625l1.84375 0l0 12.953125l-1.96875 0l0 -10.921875l0.65625 0l-8.15625 10.921875l-1.84375 0zm15.5672 0l0 -12.953125l2.171875 0l0 5.40625l2.421875 0l4.234375 -5.40625l2.375 0l-4.84375 6.296875l-0.625 -0.703125q0.75 0.078125 1.3125 0.375q0.5625 0.296875 1.0625 0.90625q0.515625 0.59375 1.09375 1.59375l2.671875 4.484375l-2.328125 0l-2.34375 -3.921875q-0.453125 -0.75 -0.859375 -1.15625q-0.390625 -0.40625 -0.90625 -0.5625q-0.5 -0.171875 -1.25 -0.171875l-2.015625 0l0 5.8125l-2.171875 0zm14.021149 0l0 -12.953125l1.984375 0l0 10.90625l-0.671875 0l8.15625 -10.90625l1.84375 0l0 12.953125l-1.96875 0l0 -10.921875l0.65625 0l-8.15625 10.921875l-1.84375 0z" fill-rule="nonzero"/><path fill="#595959" d="m138.72842 256.52164q1.421875 0 2.796875 0.75q1.390625 0.734375 2.15625 2.125q0.765625 1.375 0.765625 2.859375q0 2.375 -1.6875 4.0625q-1.671875 1.671875 -4.03125 1.671875q-2.390625 0 -4.078125 -1.671875q-1.671875 -1.6875 -1.671875 -4.0625q0 -1.5 0.765625 -2.875q0.78125 -1.375 2.15625 -2.109375q1.375 -0.75 2.828125 -0.75z" fill-rule="nonzero"/><path fill="#595959" d="m172.8914 269.77164l0 -12.953125l11.3125 0l0 12.953125l-2.15625 0l0 -11.21875l-6.984375 0l0 11.21875l-2.171875 0zm15.614075 4.796875l0 -17.75l2.09375 0l0 3.0625l-0.265625 0q0.4375 -1.515625 1.703125 -2.40625q1.265625 -0.890625 3.015625 -0.890625q1.734375 0 3.03125 0.8125q1.296875 0.8125 2.0 2.3125q0.703125 1.5 0.703125 3.578125q0 2.0625 -0.703125 3.578125q-0.703125 1.5 -1.984375 2.328125q-1.28125 0.8125 -3.046875 0.8125q-1.75 0 -3.015625 -0.890625q-1.25 -0.890625 -1.703125 -2.375l0.328125 0l0 7.828125l-2.15625 0zm6.09375 -6.296875q1.84375 0 2.921875 -1.28125q1.078125 -1.296875 1.078125 -3.703125q0 -2.421875 -1.078125 -3.703125q-1.078125 -1.28125 -2.921875 -1.28125q-1.8125 0 -2.90625 1.28125q-1.09375 1.28125 -1.09375 3.703125q0 2.40625 1.09375 3.703125q1.09375 1.28125 2.90625 1.28125zm15.541473 1.734375q-2.046875 0 -3.53125 -0.8125q-1.46875 -0.8125 -2.296875 -2.296875q-0.8125 -1.5 -0.8125 -3.578125q0 -2.03125 0.796875 -3.53125q0.8125 -1.5 2.203125 -2.34375q1.40625 -0.859375 3.25 -0.859375q1.75 0 3.0 0.765625q1.265625 0.765625 1.9375 2.1875q0.6875 1.40625 0.6875 3.390625l0 0.8125l-10.21875 0l0 -1.40625l8.78125 0l-0.4375 0.34375q0 -2.125 -0.953125 -3.3125q-0.9375 -1.1875 -2.75 -1.1875q-1.359375 0 -2.3125 0.625q-0.9375 0.625 -1.421875 1.734375q-0.46875 1.109375 -0.46875 2.578125l0 0.15625q0 1.625 0.515625 2.75q0.515625 1.109375 1.546875 1.6875q1.046875 0.5625 2.484375 0.5625q1.15625 0 2.234375 -0.359375q1.078125 -0.359375 2.03125 -1.171875l0.75 1.515625q-0.875 0.796875 -2.234375 1.28125q-1.359375 0.46875 -2.78125 0.46875zm8.572632 -0.234375l0 -12.953125l11.3125 0l0 12.953125l-2.15625 0l0 -11.21875l-6.984375 0l0 11.21875l-2.171875 0zm20.989075 0.234375q-1.890625 0 -3.28125 -0.8125q-1.375 -0.828125 -2.140625 -2.328125q-0.765625 -1.515625 -0.765625 -3.578125q0 -2.046875 0.765625 -3.546875q0.765625 -1.515625 2.140625 -2.328125q1.390625 -0.828125 3.28125 -0.828125q1.890625 0 3.28125 0.828125q1.390625 0.8125 2.140625 2.328125q0.765625 1.5 0.765625 3.546875q0 2.0625 -0.765625 3.578125q-0.75 1.5 -2.140625 2.328125q-1.390625 0.8125 -3.28125 0.8125zm0 -1.734375q1.84375 0 2.921875 -1.28125q1.078125 -1.296875 1.078125 -3.71875q0 -2.40625 -1.078125 -3.6875q-1.078125 -1.28125 -2.921875 -1.28125q-1.8125 0 -2.90625 1.28125q-1.09375 1.28125 -1.09375 3.6875q0 2.421875 1.09375 3.71875q1.09375 1.28125 2.90625 1.28125zm8.259262 4.96875l0 -5.203125l1.359375 0q0.609375 -0.90625 1.0 -1.984375q0.390625 -1.078125 0.5625 -2.40625q0.171875 -1.34375 0.171875 -3.015625l0 -3.8125l9.171875 0l0 11.21875l2.046875 0l0 5.203125l-1.859375 0l0 -3.46875l-10.609375 0l0 3.46875l-1.84375 0zm3.4375 -5.203125l6.765625 0l0 -9.515625l-5.1875 0l0 2.484375q0 2.0 -0.40625 3.875q-0.390625 1.859375 -1.171875 3.15625zm17.874207 1.96875q-1.34375 0 -2.390625 -0.515625q-1.046875 -0.515625 -1.671875 -1.421875q-0.609375 -0.90625 -0.609375 -2.03125q0 -1.4375 0.734375 -2.265625q0.734375 -0.828125 2.421875 -1.171875q1.703125 -0.34375 4.625 -0.34375l1.203125 0l0 1.40625l-1.171875 0q-1.625 0 -2.71875 0.109375q-1.09375 0.109375 -1.734375 0.375q-0.640625 0.265625 -0.90625 0.703125q-0.265625 0.421875 -0.265625 1.0625q0 1.09375 0.75 1.78125q0.765625 0.6875 2.078125 0.6875q1.0625 0 1.875 -0.5q0.8125 -0.515625 1.28125 -1.390625q0.46875 -0.875 0.46875 -2.015625l0 -3.046875q0 -1.65625 -0.671875 -2.390625q-0.65625 -0.734375 -2.1875 -0.734375q-1.171875 0 -2.265625 0.34375q-1.09375 0.328125 -2.234375 1.078125l-0.75 -1.578125q0.703125 -0.484375 1.578125 -0.84375q0.875 -0.359375 1.828125 -0.53125q0.96875 -0.1875 1.84375 -0.1875q1.6875 0 2.78125 0.546875q1.09375 0.53125 1.625 1.640625q0.53125 1.109375 0.53125 2.84375l0 8.15625l-2.03125 0l0 -3.015625l0.25 0q-0.21875 1.015625 -0.828125 1.734375q-0.59375 0.71875 -1.46875 1.125q-0.875 0.390625 -1.96875 0.390625zm10.242645 -0.234375l0 -12.953125l6.328125 0q1.546875 0 2.53125 0.390625q0.984375 0.375 1.453125 1.140625q0.484375 0.765625 0.484375 1.875q0 1.234375 -0.859375 2.09375q-0.859375 0.84375 -2.25 1.0l0 -0.34375q1.09375 0.03125 1.890625 0.453125q0.796875 0.40625 1.21875 1.125q0.4375 0.71875 0.4375 1.640625q0 1.65625 -1.234375 2.625q-1.21875 0.953125 -3.46875 0.953125l-6.53125 0zm2.0625 -1.46875l4.390625 0q1.3125 0 2.015625 -0.5625q0.703125 -0.578125 0.703125 -1.640625q0 -1.078125 -0.703125 -1.625q-0.703125 -0.5625 -2.015625 -0.5625l-4.390625 0l0 4.390625zm0 -5.859375l4.15625 0q1.203125 0 1.875 -0.5625q0.6875 -0.5625 0.6875 -1.546875q0 -0.984375 -0.6875 -1.515625q-0.671875 -0.53125 -1.875 -0.53125l-4.15625 0l0 4.15625zm16.643433 7.5625q-1.34375 0 -2.390625 -0.515625q-1.046875 -0.515625 -1.671875 -1.421875q-0.609375 -0.90625 -0.609375 -2.03125q0 -1.4375 0.734375 -2.265625q0.734375 -0.828125 2.421875 -1.171875q1.703125 -0.34375 4.625 -0.34375l1.203125 0l0 1.40625l-1.171875 0q-1.625 0 -2.71875 0.109375q-1.09375 0.109375 -1.734375 0.375q-0.640625 0.265625 -0.90625 0.703125q-0.265625 0.421875 -0.265625 1.0625q0 1.09375 0.75 1.78125q0.765625 0.6875 2.078125 0.6875q1.0625 0 1.875 -0.5q0.8125 -0.515625 1.28125 -1.390625q0.46875 -0.875 0.46875 -2.015625l0 -3.046875q0 -1.65625 -0.671875 -2.390625q-0.65625 -0.734375 -2.1875 -0.734375q-1.171875 0 -2.265625 0.34375q-1.09375 0.328125 -2.234375 1.078125l-0.75 -1.578125q0.703125 -0.484375 1.578125 -0.84375q0.875 -0.359375 1.828125 -0.53125q0.96875 -0.1875 1.84375 -0.1875q1.6875 0 2.78125 0.546875q1.09375 0.53125 1.625 1.640625q0.53125 1.109375 0.53125 2.84375l0 8.15625l-2.03125 0l0 -3.015625l0.25 0q-0.21875 1.015625 -0.828125 1.734375q-0.59375 0.71875 -1.46875 1.125q-0.875 0.390625 -1.96875 0.390625zm12.94577 -0.234375l0 -11.21875l-4.6875 0l0 -1.734375l11.5625 0l0 1.734375l-4.71875 0l0 11.21875l-2.15625 0zm14.953888 0.234375q-2.046875 0 -3.53125 -0.8125q-1.46875 -0.8125 -2.296875 -2.296875q-0.8125 -1.5 -0.8125 -3.578125q0 -2.03125 0.796875 -3.53125q0.8125 -1.5 2.203125 -2.34375q1.40625 -0.859375 3.25 -0.859375q1.75 0 3.0 0.765625q1.265625 0.765625 1.9375 2.1875q0.6875 1.40625 0.6875 3.390625l0 0.8125l-10.21875 0l0 -1.40625l8.78125 0l-0.4375 0.34375q0 -2.125 -0.953125 -3.3125q-0.9375 -1.1875 -2.75 -1.1875q-1.359375 0 -2.3125 0.625q-0.9375 0.625 -1.421875 1.734375q-0.46875 1.109375 -0.46875 2.578125l0 0.15625q0 1.625 0.515625 2.75q0.515625 1.109375 1.546875 1.6875q1.046875 0.5625 2.484375 0.5625q1.15625 0 2.234375 -0.359375q1.078125 -0.359375 2.03125 -1.171875l0.75 1.515625q-0.875 0.796875 -2.234375 1.28125q-1.359375 0.46875 -2.78125 0.46875zm7.853882 0.0625l-0.796875 -1.703125q0.90625 -0.375 1.5 -0.984375q0.609375 -0.625 0.96875 -1.5625q0.359375 -0.953125 0.515625 -2.328125q0.171875 -1.390625 0.171875 -3.375l0 -3.296875l9.40625 0l0 12.953125l-2.15625 0l0 -11.21875l-5.234375 0l0 1.65625q0 2.265625 -0.25 3.953125q-0.234375 1.671875 -0.75 2.828125q-0.515625 1.15625 -1.359375 1.90625q-0.84375 0.734375 -2.015625 1.171875zm16.019379 -0.296875l0 -12.953125l1.984375 0l0 10.90625l-0.671875 0l8.15625 -10.90625l1.84375 0l0 12.953125l-1.96875 0l0 -10.921875l0.65625 0l-8.15625 10.921875l-1.84375 0zm22.605347 0l0 -18.796875l7.53125 0q2.875 0 4.46875 1.28125q1.59375 1.28125 1.59375 3.625q0 1.765625 -1.03125 2.9375q-1.015625 1.171875 -2.765625 1.546875l0 -0.375q1.328125 0.15625 2.28125 0.765625q0.96875 0.59375 1.46875 1.5625q0.5 0.96875 0.5 2.28125q0 1.6875 -0.734375 2.84375q-0.71875 1.15625 -2.109375 1.75q-1.390625 0.578125 -3.359375 0.578125l-7.84375 0zm2.140625 -1.765625l5.484375 0q0.859375 0 1.53125 -0.125q0.6875 -0.140625 1.1875 -0.40625q0.515625 -0.28125 0.859375 -0.6875q0.34375 -0.40625 0.515625 -0.953125q0.171875 -0.5625 0.171875 -1.265625q0 -0.71875 -0.171875 -1.265625q-0.171875 -0.546875 -0.515625 -0.953125q-0.34375 -0.421875 -0.859375 -0.6875q-0.5 -0.265625 -1.1875 -0.390625q-0.671875 -0.140625 -1.53125 -0.140625l-5.484375 0l0 6.875zm0 -8.625l5.0625 0q2.078125 0 3.15625 -0.859375q1.078125 -0.859375 1.078125 -2.453125q0 -1.65625 -1.078125 -2.484375q-1.078125 -0.84375 -3.15625 -0.84375l-5.0625 0l0 6.640625zm18.047668 10.390625l3.140625 -6.109375l0 0.859375l-8.453125 -13.546875l2.375 0l7.140625 11.515625l-0.453125 0l5.921875 -11.515625l2.265625 0l-9.625 18.796875l-2.3125 0zm20.171143 0.234375q-1.59375 0 -2.9375 -0.28125q-1.34375 -0.296875 -2.4375 -0.84375q-1.09375 -0.546875 -1.875 -1.296875l0.78125 -1.734375q1.28125 1.125 2.796875 1.671875q1.515625 0.546875 3.546875 0.546875q2.578125 0 3.78125 -0.890625q1.21875 -0.890625 1.21875 -2.65625q0 -1.734375 -1.046875 -2.546875q-1.046875 -0.8125 -3.203125 -0.8125l-4.59375 0l0 -1.8125l4.15625 0q2.109375 0 3.171875 -0.828125q1.0625 -0.828125 1.0625 -2.421875q0 -1.609375 -1.140625 -2.515625q-1.125 -0.90625 -3.390625 -0.90625q-1.671875 0 -3.1875 0.53125q-1.5 0.515625 -2.71875 1.609375l-0.796875 -1.734375q0.8125 -0.765625 1.921875 -1.28125q1.109375 -0.53125 2.359375 -0.796875q1.25 -0.265625 2.59375 -0.265625q2.203125 0 3.65625 0.640625q1.453125 0.640625 2.1875 1.796875q0.734375 1.140625 0.734375 2.703125q0 1.765625 -1.03125 2.9375q-1.015625 1.171875 -2.78125 1.546875l0 -0.375q1.96875 0.234375 3.109375 1.4375q1.15625 1.203125 1.15625 3.171875q0 1.6875 -0.78125 2.90625q-0.765625 1.203125 -2.328125 1.859375q-1.546875 0.640625 -3.984375 0.640625zm16.294312 0q-1.890625 0 -3.28125 -0.8125q-1.375 -0.828125 -2.140625 -2.328125q-0.765625 -1.515625 -0.765625 -3.578125q0 -2.046875 0.765625 -3.546875q0.765625 -1.515625 2.140625 -2.328125q1.390625 -0.828125 3.28125 -0.828125q1.890625 0 3.28125 0.828125q1.390625 0.8125 2.140625 2.328125q0.765625 1.5 0.765625 3.546875q0 2.0625 -0.765625 3.578125q-0.75 1.5 -2.140625 2.328125q-1.390625 0.8125 -3.28125 0.8125zm0 -1.734375q1.84375 0 2.921875 -1.28125q1.078125 -1.296875 1.078125 -3.71875q0 -2.40625 -1.078125 -3.6875q-1.078125 -1.28125 -2.921875 -1.28125q-1.8125 0 -2.90625 1.28125q-1.09375 1.28125 -1.09375 3.6875q0 2.421875 1.09375 3.71875q1.09375 1.28125 2.90625 1.28125zm9.665527 1.5l0 -12.953125l6.328125 0q1.546875 0 2.53125 0.390625q0.984375 0.375 1.453125 1.140625q0.484375 0.765625 0.484375 1.875q0 1.234375 -0.859375 2.09375q-0.859375 0.84375 -2.25 1.0l0 -0.34375q1.09375 0.03125 1.890625 0.453125q0.796875 0.40625 1.21875 1.125q0.4375 0.71875 0.4375 1.640625q0 1.65625 -1.234375 2.625q-1.21875 0.953125 -3.46875 0.953125l-6.53125 0zm2.0625 -1.46875l4.390625 0q1.3125 0 2.015625 -0.5625q0.703125 -0.578125 0.703125 -1.640625q0 -1.078125 -0.703125 -1.625q-0.703125 -0.5625 -2.015625 -0.5625l-4.390625 0l0 4.390625zm0 -5.859375l4.15625 0q1.203125 0 1.875 -0.5625q0.6875 -0.5625 0.6875 -1.546875q0 -0.984375 -0.6875 -1.515625q-0.671875 -0.53125 -1.875 -0.53125l-4.15625 0l0 4.15625z" fill-rule="nonzero"/><path fill="#595959" d="m138.72842 293.32166q1.421875 0 2.796875 0.75q1.390625 0.734375 2.15625 2.125q0.765625 1.375 0.765625 2.859375q0 2.375 -1.6875 4.0625q-1.671875 1.671875 -4.03125 1.671875q-2.390625 0 -4.078125 -1.671875q-1.671875 -1.6875 -1.671875 -4.0625q0 -1.5 0.765625 -2.875q0.78125 -1.375 2.15625 -2.109375q1.375 -0.75 2.828125 -0.75z" fill-rule="nonzero"/><path fill="#595959" d="m172.8914 306.57166l0 -12.953125l2.171875 0l0 5.375l7.0625 0l0 -5.375l2.15625 0l0 12.953125l-2.15625 0l0 -5.8125l-7.0625 0l0 5.8125l-2.171875 0zm21.522156 0.234375q-2.046875 0 -3.53125 -0.8125q-1.46875 -0.8125 -2.296875 -2.296875q-0.8125 -1.5 -0.8125 -3.578125q0 -2.03125 0.796875 -3.53125q0.8125 -1.5 2.203125 -2.34375q1.40625 -0.859375 3.25 -0.859375q1.75 0 3.0 0.765625q1.265625 0.765625 1.9375 2.1875q0.6875 1.40625 0.6875 3.390625l0 0.8125l-10.21875 0l0 -1.40625l8.78125 0l-0.4375 0.34375q0 -2.125 -0.953125 -3.3125q-0.9375 -1.1875 -2.75 -1.1875q-1.359375 0 -2.3125 0.625q-0.9375 0.625 -1.421875 1.734375q-0.46875 1.109375 -0.46875 2.578125l0 0.15625q0 1.625 0.515625 2.75q0.515625 1.109375 1.546875 1.6875q1.046875 0.5625 2.484375 0.5625q1.15625 0 2.234375 -0.359375q1.078125 -0.359375 2.03125 -1.171875l0.75 1.515625q-0.875 0.796875 -2.234375 1.28125q-1.359375 0.46875 -2.78125 0.46875zm12.869507 0q-1.671875 0 -3.15625 -0.4375q-1.484375 -0.4375 -2.390625 -1.234375l0.703125 -1.515625q0.921875 0.734375 2.171875 1.125q1.265625 0.390625 2.625 0.390625q1.921875 0 2.75 -0.5625q0.84375 -0.5625 0.84375 -1.65625q0 -1.015625 -0.703125 -1.546875q-0.6875 -0.546875 -1.984375 -0.546875l-3.0625 0l0 -1.640625l2.796875 0q1.140625 0 1.8125 -0.53125q0.6875 -0.53125 0.6875 -1.484375q0 -0.984375 -0.734375 -1.546875q-0.734375 -0.5625 -2.40625 -0.5625q-1.34375 0 -2.46875 0.34375q-1.109375 0.328125 -2.125 1.0625l-0.6875 -1.515625q1.09375 -0.796875 2.484375 -1.171875q1.40625 -0.390625 3.0625 -0.390625q2.453125 0 3.6875 0.953125q1.234375 0.953125 1.234375 2.6875q0 1.234375 -0.859375 2.09375q-0.84375 0.84375 -2.25 1.0l0 -0.34375q1.09375 0.03125 1.890625 0.453125q0.796875 0.40625 1.234375 1.109375q0.4375 0.703125 0.4375 1.65625q0 1.734375 -1.40625 2.78125q-1.40625 1.03125 -4.1875 1.03125zm13.076233 0q-1.34375 0 -2.390625 -0.515625q-1.046875 -0.515625 -1.671875 -1.421875q-0.609375 -0.90625 -0.609375 -2.03125q0 -1.4375 0.734375 -2.265625q0.734375 -0.828125 2.421875 -1.171875q1.703125 -0.34375 4.625 -0.34375l1.203125 0l0 1.40625l-1.171875 0q-1.625 0 -2.71875 0.109375q-1.09375 0.109375 -1.734375 0.375q-0.640625 0.265625 -0.90625 0.703125q-0.265625 0.421875 -0.265625 1.0625q0 1.09375 0.75 1.78125q0.765625 0.6875 2.078125 0.6875q1.0625 0 1.875 -0.5q0.8125 -0.515625 1.28125 -1.390625q0.46875 -0.875 0.46875 -2.015625l0 -3.046875q0 -1.65625 -0.671875 -2.390625q-0.65625 -0.734375 -2.1875 -0.734375q-1.171875 0 -2.265625 0.34375q-1.09375 0.328125 -2.234375 1.078125l-0.75 -1.578125q0.703125 -0.484375 1.578125 -0.84375q0.875 -0.359375 1.828125 -0.53125q0.96875 -0.1875 1.84375 -0.1875q1.6875 0 2.78125 0.546875q1.09375 0.53125 1.625 1.640625q0.53125 1.109375 0.53125 2.84375l0 8.15625l-2.03125 0l0 -3.015625l0.25 0q-0.21875 1.015625 -0.828125 1.734375q-0.59375 0.71875 -1.46875 1.125q-0.875 0.390625 -1.96875 0.390625zm10.2426605 -0.234375l0 -12.953125l6.328125 0q1.546875 0 2.53125 0.390625q0.984375 0.375 1.453125 1.140625q0.484375 0.765625 0.484375 1.875q0 1.234375 -0.859375 2.09375q-0.859375 0.84375 -2.25 1.0l0 -0.34375q1.09375 0.03125 1.890625 0.453125q0.796875 0.40625 1.21875 1.125q0.4375 0.71875 0.4375 1.640625q0 1.65625 -1.234375 2.625q-1.21875 0.953125 -3.46875 0.953125l-6.53125 0zm2.0625 -1.46875l4.390625 0q1.3125 0 2.015625 -0.5625q0.703125 -0.578125 0.703125 -1.640625q0 -1.078125 -0.703125 -1.625q-0.703125 -0.5625 -2.015625 -0.5625l-4.390625 0l0 4.390625zm0 -5.859375l4.15625 0q1.203125 0 1.875 -0.5625q0.6875 -0.5625 0.6875 -1.546875q0 -0.984375 -0.6875 -1.515625q-0.671875 -0.53125 -1.875 -0.53125l-4.15625 0l0 4.15625zm12.518417 7.328125l0 -12.953125l1.984375 0l0 10.90625l-0.671875 0l8.15625 -10.90625l1.8437653 0l0 12.953125l-1.9687653 0l0 -10.921875l0.65625 0l-8.15625 10.921875l-1.84375 0zm21.098465 0.234375q-1.9375 0 -3.359375 -0.84375q-1.40625 -0.859375 -2.171875 -2.390625q-0.765625 -1.53125 -0.765625 -3.5625q0 -2.046875 0.765625 -3.53125q0.765625 -1.5 2.171875 -2.296875q1.421875 -0.796875 3.359375 -0.796875q1.203125 0 2.375 0.421875q1.171875 0.421875 1.9375 1.203125l-0.734375 1.5625q-0.78125 -0.75 -1.703125 -1.09375q-0.90625 -0.34375 -1.734375 -0.34375q-2.03125 0 -3.125 1.265625q-1.09375 1.265625 -1.09375 3.640625q0 2.3125 1.09375 3.671875q1.09375 1.34375 3.125 1.34375q0.828125 0 1.734375 -0.34375q0.921875 -0.359375 1.703125 -1.125l0.734375 1.578125q-0.765625 0.765625 -1.953125 1.203125q-1.1875 0.4375 -2.359375 0.4375zm7.0770874 -0.234375l0 -12.953125l1.984375 0l0 10.90625l-0.671875 0l8.15625 -10.90625l1.84375 0l0 12.953125l-1.96875 0l0 -10.921875l0.65625 0l-8.15625 10.921875l-1.84375 0zm15.5672 0l0 -12.953125l1.796875 0l4.875 8.65625l4.875 -8.65625l1.765625 0l0 12.953125l-1.921875 0l0 -10.46875l0.609375 0l-4.796875 8.390625l-1.09375 0l-4.796875 -8.390625l0.609375 0l0 10.46875l-1.921875 0zm17.566406 0l0 -12.953125l2.171875 0l0 4.609375l3.90625 0q2.484375 0 3.765625 1.078125q1.28125 1.078125 1.28125 3.046875q0 1.3125 -0.609375 2.265625q-0.59375 0.9375 -1.703125 1.453125q-1.09375 0.5 -2.734375 0.5l-6.078125 0zm2.171875 -1.546875l3.703125 0q1.515625 0 2.34375 -0.640625q0.828125 -0.640625 0.828125 -2.0q0 -1.359375 -0.828125 -1.984375q-0.828125 -0.625 -2.34375 -0.625l-3.703125 0l0 5.25zm10.875 1.546875l0 -12.953125l2.15625 0l0 12.953125l-2.15625 0zm12.287109 0.234375q-2.046875 0 -3.53125 -0.8125q-1.46875 -0.8125 -2.296875 -2.296875q-0.8125 -1.5 -0.8125 -3.578125q0 -2.03125 0.796875 -3.53125q0.8125 -1.5 2.203125 -2.34375q1.40625 -0.859375 3.25 -0.859375q1.75 0 3.0 0.765625q1.265625 0.765625 1.9375 2.1875q0.6875 1.40625 0.6875 3.390625l0 0.8125l-10.21875 0l0 -1.40625l8.78125 0l-0.4375 0.34375q0 -2.125 -0.953125 -3.3125q-0.9375 -1.1875 -2.75 -1.1875q-1.359375 0 -2.3125 0.625q-0.9375 0.625 -1.421875 1.734375q-0.46875 1.109375 -0.46875 2.578125l0 0.15625q0 1.625 0.515625 2.75q0.515625 1.109375 1.546875 1.6875q1.046875 0.5625 2.484375 0.5625q1.15625 0 2.234375 -0.359375q1.078125 -0.359375 2.03125 -1.171875l0.75 1.515625q-0.875 0.796875 -2.234375 1.28125q-1.359375 0.46875 -2.78125 0.46875zm15.423279 -0.234375l0 -12.953125l1.984375 0l0 10.90625l-0.671875 0l8.15625 -10.90625l1.84375 0l0 12.953125l-1.96875 0l0 -10.921875l0.65625 0l-8.15625 10.921875l-1.84375 0zm21.09845 0.234375q-1.9375 0 -3.359375 -0.84375q-1.40625 -0.859375 -2.171875 -2.390625q-0.765625 -1.53125 -0.765625 -3.5625q0 -2.046875 0.765625 -3.53125q0.765625 -1.5 2.171875 -2.296875q1.421875 -0.796875 3.359375 -0.796875q1.203125 0 2.375 0.421875q1.171875 0.421875 1.9375 1.203125l-0.734375 1.5625q-0.78125 -0.75 -1.703125 -1.09375q-0.90625 -0.34375 -1.734375 -0.34375q-2.03125 0 -3.125 1.265625q-1.09375 1.265625 -1.09375 3.640625q0 2.3125 1.09375 3.671875q1.09375 1.34375 3.125 1.34375q0.828125 0 1.734375 -0.34375q0.921875 -0.359375 1.703125 -1.125l0.734375 1.578125q-0.765625 0.765625 -1.953125 1.203125q-1.1875 0.4375 -2.359375 0.4375zm12.608368 0q-1.9375 0 -3.359375 -0.84375q-1.40625 -0.859375 -2.171875 -2.390625q-0.765625 -1.53125 -0.765625 -3.5625q0 -2.046875 0.765625 -3.53125q0.765625 -1.5 2.171875 -2.296875q1.421875 -0.796875 3.359375 -0.796875q1.203125 0 2.375 0.421875q1.171875 0.421875 1.9375 1.203125l-0.734375 1.5625q-0.78125 -0.75 -1.703125 -1.09375q-0.90625 -0.34375 -1.734375 -0.34375q-2.03125 0 -3.125 1.265625q-1.09375 1.265625 -1.09375 3.640625q0 2.3125 1.09375 3.671875q1.09375 1.34375 3.125 1.34375q0.828125 0 1.734375 -0.34375q0.921875 -0.359375 1.703125 -1.125l0.734375 1.578125q-0.765625 0.765625 -1.953125 1.203125q-1.1875 0.4375 -2.359375 0.4375zm6.3583374 0.0625l-0.796875 -1.703125q0.90625 -0.375 1.5 -0.984375q0.609375 -0.625 0.96875 -1.5625q0.359375 -0.953125 0.515625 -2.328125q0.171875 -1.390625 0.171875 -3.375l0 -3.296875l9.40625 0l0 12.953125l-2.15625 0l0 -11.21875l-5.234375 0l0 1.65625q0 2.265625 -0.25 3.953125q-0.234375 1.671875 -0.75 2.828125q-0.515625 1.15625 -1.359375 1.90625q-0.84375 0.734375 -2.015625 1.171875zm21.894379 -0.0625q-2.046875 0 -3.53125 -0.8125q-1.46875 -0.8125 -2.296875 -2.296875q-0.8125 -1.5 -0.8125 -3.578125q0 -2.03125 0.796875 -3.53125q0.8125 -1.5 2.203125 -2.34375q1.40625 -0.859375 3.25 -0.859375q1.75 0 3.0 0.765625q1.265625 0.765625 1.9375 2.1875q0.6875 1.40625 0.6875 3.390625l0 0.8125l-10.21875 0l0 -1.40625l8.78125 0l-0.4375 0.34375q0 -2.125 -0.953125 -3.3125q-0.9375 -1.1875 -2.75 -1.1875q-1.359375 0 -2.3125 0.625q-0.9375 0.625 -1.421875 1.734375q-0.46875 1.109375 -0.46875 2.578125l0 0.15625q0 1.625 0.515625 2.75q0.515625 1.109375 1.546875 1.6875q1.046875 0.5625 2.484375 0.5625q1.15625 0 2.234375 -0.359375q1.078125 -0.359375 2.03125 -1.171875l0.75 1.515625q-0.875 0.796875 -2.234375 1.28125q-1.359375 0.46875 -2.78125 0.46875zm7.166382 3.234375l0 -5.203125l1.359375 0q0.609375 -0.90625 1.0 -1.984375q0.390625 -1.078125 0.5625 -2.40625q0.171875 -1.34375 0.171875 -3.015625l0 -3.8125l9.171875 0l0 11.21875l2.046875 0l0 5.203125l-1.859375 0l0 -3.46875l-10.609375 0l0 3.46875l-1.84375 0zm3.4375 -5.203125l6.765625 0l0 -9.515625l-5.1875 0l0 2.484375q0 2.0 -0.40625 3.875q-0.390625 1.859375 -1.171875 3.15625zm19.171051 1.96875q-1.890625 0 -3.28125 -0.8125q-1.375 -0.828125 -2.140625 -2.328125q-0.765625 -1.515625 -0.765625 -3.578125q0 -2.046875 0.765625 -3.546875q0.765625 -1.515625 2.140625 -2.328125q1.390625 -0.828125 3.28125 -0.828125q1.890625 0 3.28125 0.828125q1.390625 0.8125 2.140625 2.328125q0.765625 1.5 0.765625 3.546875q0 2.0625 -0.765625 3.578125q-0.75 1.5 -2.140625 2.328125q-1.390625 0.8125 -3.28125 0.8125zm0 -1.734375q1.84375 0 2.921875 -1.28125q1.078125 -1.296875 1.078125 -3.71875q0 -2.40625 -1.078125 -3.6875q-1.078125 -1.28125 -2.921875 -1.28125q-1.8125 0 -2.90625 1.28125q-1.09375 1.28125 -1.09375 3.6875q0 2.421875 1.09375 3.71875q1.09375 1.28125 2.90625 1.28125zm9.665527 1.5l0 -12.953125l6.328125 0q1.546875 0 2.53125 0.390625q0.984375 0.375 1.453125 1.140625q0.484375 0.765625 0.484375 1.875q0 1.234375 -0.859375 2.09375q-0.859375 0.84375 -2.25 1.0l0 -0.34375q1.09375 0.03125 1.890625 0.453125q0.796875 0.40625 1.21875 1.125q0.4375 0.71875 0.4375 1.640625q0 1.65625 -1.234375 2.625q-1.21875 0.953125 -3.46875 0.953125l-6.53125 0zm2.0625 -1.46875l4.390625 0q1.3125 0 2.015625 -0.5625q0.703125 -0.578125 0.703125 -1.640625q0 -1.078125 -0.703125 -1.625q-0.703125 -0.5625 -2.015625 -0.5625l-4.390625 0l0 4.390625zm0 -5.859375l4.15625 0q1.203125 0 1.875 -0.5625q0.6875 -0.5625 0.6875 -1.546875q0 -0.984375 -0.6875 -1.515625q-0.671875 -0.53125 -1.875 -0.53125l-4.15625 0l0 4.15625zm16.643433 7.5625q-1.34375 0 -2.390625 -0.515625q-1.046875 -0.515625 -1.671875 -1.421875q-0.609375 -0.90625 -0.609375 -2.03125q0 -1.4375 0.734375 -2.265625q0.734375 -0.828125 2.421875 -1.171875q1.703125 -0.34375 4.625 -0.34375l1.203125 0l0 1.40625l-1.171875 0q-1.625 0 -2.71875 0.109375q-1.09375 0.109375 -1.734375 0.375q-0.640625 0.265625 -0.90625 0.703125q-0.265625 0.421875 -0.265625 1.0625q0 1.09375 0.75 1.78125q0.765625 0.6875 2.078125 0.6875q1.0625 0 1.875 -0.5q0.8125 -0.515625 1.28125 -1.390625q0.46875 -0.875 0.46875 -2.015625l0 -3.046875q0 -1.65625 -0.671875 -2.390625q-0.65625 -0.734375 -2.1875 -0.734375q-1.171875 0 -2.265625 0.34375q-1.09375 0.328125 -2.234375 1.078125l-0.75 -1.578125q0.703125 -0.484375 1.578125 -0.84375q0.875 -0.359375 1.828125 -0.53125q0.96875 -0.1875 1.84375 -0.1875q1.6875 0 2.78125 0.546875q1.09375 0.53125 1.625 1.640625q0.53125 1.109375 0.53125 2.84375l0 8.15625l-2.03125 0l0 -3.015625l0.25 0q-0.21875 1.015625 -0.828125 1.734375q-0.59375 0.71875 -1.46875 1.125q-0.875 0.390625 -1.96875 0.390625zm12.945801 -0.234375l0 -11.21875l-4.6875 0l0 -1.734375l11.5625 0l0 1.734375l-4.71875 0l0 11.21875l-2.15625 0zm14.953857 0.234375q-2.046875 0 -3.53125 -0.8125q-1.46875 -0.8125 -2.296875 -2.296875q-0.8125 -1.5 -0.8125 -3.578125q0 -2.03125 0.796875 -3.53125q0.8125 -1.5 2.203125 -2.34375q1.40625 -0.859375 3.25 -0.859375q1.75 0 3.0 0.765625q1.265625 0.765625 1.9375 2.1875q0.6875 1.40625 0.6875 3.390625l0 0.8125l-10.21875 0l0 -1.40625l8.78125 0l-0.4375 0.34375q0 -2.125 -0.953125 -3.3125q-0.9375 -1.1875 -2.75 -1.1875q-1.359375 0 -2.3125 0.625q-0.9375 0.625 -1.421875 1.734375q-0.46875 1.109375 -0.46875 2.578125l0 0.15625q0 1.625 0.515625 2.75q0.515625 1.109375 1.546875 1.6875q1.046875 0.5625 2.484375 0.5625q1.15625 0 2.234375 -0.359375q1.078125 -0.359375 2.03125 -1.171875l0.75 1.515625q-0.875 0.796875 -2.234375 1.28125q-1.359375 0.46875 -2.78125 0.46875zm7.853882 0.0625l-0.796875 -1.703125q0.90625 -0.375 1.5 -0.984375q0.609375 -0.625 0.96875 -1.5625q0.359375 -0.953125 0.515625 -2.328125q0.171875 -1.390625 0.171875 -3.375l0 -3.296875l9.40625 0l0 12.953125l-2.15625 0l0 -11.21875l-5.234375 0l0 1.65625q0 2.265625 -0.25 3.953125q-0.234375 1.671875 -0.75 2.828125q-0.515625 1.15625 -1.359375 1.90625q-0.84375 0.734375 -2.015625 1.171875zm16.019348 -0.296875l0 -12.953125l1.984375 0l0 10.90625l-0.671875 0l8.15625 -10.90625l1.84375 0l0 12.953125l-1.96875 0l0 -10.921875l0.65625 0l-8.15625 10.921875l-1.84375 0z" fill-rule="nonzero"/><path fill="#595959" d="m138.72842 330.12164q1.421875 0 2.796875 0.75q1.390625 0.734375 2.15625 2.125q0.765625 1.375 0.765625 2.859375q0 2.375 -1.6875 4.0625q-1.671875 1.671875 -4.03125 1.671875q-2.390625 0 -4.078125 -1.671875q-1.671875 -1.6875 -1.671875 -4.0625q0 -1.5 0.765625 -2.875q0.78125 -1.375 2.15625 -2.109375q1.375 -0.75 2.828125 -0.75z" fill-rule="nonzero"/><path fill="#595959" d="m172.93828 348.16852l0 -17.75l2.09375 0l0 3.0625l-0.265625 0q0.4375 -1.515625 1.703125 -2.40625q1.265625 -0.890625 3.015625 -0.890625q1.734375 0 3.03125 0.8125q1.296875 0.8125 2.0 2.3125q0.703125 1.5 0.703125 3.578125q0 2.0625 -0.703125 3.578125q-0.703125 1.5 -1.984375 2.328125q-1.28125 0.8125 -3.046875 0.8125q-1.75 0 -3.015625 -0.890625q-1.25 -0.890625 -1.703125 -2.375l0.328125 0l0 7.828125l-2.15625 0zm6.09375 -6.296875q1.84375 0 2.921875 -1.28125q1.078125 -1.296875 1.078125 -3.703125q0 -2.421875 -1.078125 -3.703125q-1.078125 -1.28125 -2.921875 -1.28125q-1.8125 0 -2.90625 1.28125q-1.09375 1.28125 -1.09375 3.703125q0 2.40625 1.09375 3.703125q1.09375 1.28125 2.90625 1.28125zm15.541473 1.734375q-2.046875 0 -3.53125 -0.8125q-1.46875 -0.8125 -2.296875 -2.296875q-0.8125 -1.5 -0.8125 -3.578125q0 -2.03125 0.796875 -3.53125q0.8125 -1.5 2.203125 -2.34375q1.40625 -0.859375 3.25 -0.859375q1.75 0 3.0 0.765625q1.265625 0.765625 1.9375 2.1875q0.6875 1.40625 0.6875 3.390625l0 0.8125l-10.21875 0l0 -1.40625l8.78125 0l-0.4375 0.34375q0 -2.125 -0.953125 -3.3125q-0.9375 -1.1875 -2.75 -1.1875q-1.359375 0 -2.3125 0.625q-0.9375 0.625 -1.421875 1.734375q-0.46875 1.109375 -0.46875 2.578125l0 0.15625q0 1.625 0.515625 2.75q0.515625 1.109375 1.546875 1.6875q1.046875 0.5625 2.484375 0.5625q1.15625 0 2.234375 -0.359375q1.078125 -0.359375 2.03125 -1.171875l0.75 1.515625q-0.875 0.796875 -2.234375 1.28125q-1.359375 0.46875 -2.78125 0.46875zm7.166382 3.234375l0 -5.203125l1.359375 0q0.609375 -0.90625 1.0 -1.984375q0.390625 -1.078125 0.5625 -2.40625q0.171875 -1.34375 0.171875 -3.015625l0 -3.8125l9.171875 0l0 11.21875l2.046875 0l0 5.203125l-1.859375 0l0 -3.46875l-10.609375 0l0 3.46875l-1.84375 0zm3.4375 -5.203125l6.765625 0l0 -9.515625l-5.1875 0l0 2.484375q0 2.0 -0.40625 3.875q-0.390625 1.859375 -1.171875 3.15625zm17.874191 1.96875q-1.34375 0 -2.390625 -0.515625q-1.046875 -0.515625 -1.671875 -1.421875q-0.609375 -0.90625 -0.609375 -2.03125q0 -1.4375 0.734375 -2.265625q0.734375 -0.828125 2.421875 -1.171875q1.703125 -0.34375 4.625 -0.34375l1.203125 0l0 1.40625l-1.171875 0q-1.625 0 -2.71875 0.109375q-1.09375 0.109375 -1.734375 0.375q-0.640625 0.265625 -0.90625 0.703125q-0.265625 0.421875 -0.265625 1.0625q0 1.09375 0.75 1.78125q0.765625 0.6875 2.078125 0.6875q1.0625 0 1.875 -0.5q0.8125 -0.515625 1.28125 -1.390625q0.46875 -0.875 0.46875 -2.015625l0 -3.046875q0 -1.65625 -0.671875 -2.390625q-0.65625 -0.734375 -2.1875 -0.734375q-1.171875 0 -2.265625 0.34375q-1.09375 0.328125 -2.234375 1.078125l-0.75 -1.578125q0.703125 -0.484375 1.578125 -0.84375q0.875 -0.359375 1.828125 -0.53125q0.96875 -0.1875 1.84375 -0.1875q1.6875 0 2.78125 0.546875q1.09375 0.53125 1.625 1.640625q0.53125 1.109375 0.53125 2.84375l0 8.15625l-2.03125 0l0 -3.015625l0.25 0q-0.21875 1.015625 -0.828125 1.734375q-0.59375 0.71875 -1.46875 1.125q-0.875 0.390625 -1.96875 0.390625zm10.2426605 -0.234375l0 -12.953125l2.171875 0l0 5.40625l2.421875 0l4.234375 -5.40625l2.375 0l-4.84375 6.296875l-0.625 -0.703125q0.75 0.078125 1.3125 0.375q0.5625 0.296875 1.0625 0.90625q0.515625 0.59375 1.09375 1.59375l2.671875 4.484375l-2.328125 0l-2.34375 -3.921875q-0.453125 -0.75 -0.859375 -1.15625q-0.390625 -0.40625 -0.90625 -0.5625q-0.5 -0.171875 -1.25 -0.171875l-2.015625 0l0 5.8125l-2.171875 0zm25.224258 3.46875l0 -3.46875l-11.203125 0l0 -12.953125l2.171875 0l0 11.21875l6.6875 0l0 -11.21875l2.15625 0l0 11.21875l2.046875 0l0 5.203125l-1.859375 0zm4.737274 -3.46875l0 -12.953125l1.984375 0l0 10.90625l-0.671875 0l8.15625 -10.90625l1.84375 0l0 12.953125l-1.96875 0l0 -10.921875l0.65625 0l-8.15625 10.921875l-1.84375 0zm15.5672 0l0 -12.953125l1.984375 0l0 10.90625l-0.671875 0l8.15625 -10.90625l1.84375 0l0 12.953125l-1.96875 0l0 -10.921875l0.65625 0l-8.15625 10.921875l-1.84375 0zm20.324066 0l2.65625 -4.484375q0.59375 -1.0 1.109375 -1.59375q0.515625 -0.609375 1.0625 -0.90625q0.546875 -0.296875 1.296875 -0.375l-0.5625 0.703125l-4.90625 -6.296875l2.375 0l4.265625 5.40625l2.0625 0l0 -5.40625l2.15625 0l0 5.40625l2.078125 0l4.234375 -5.40625l2.375 0l-4.90625 6.296875l-0.5625 -0.703125q0.75 0.078125 1.296875 0.375q0.546875 0.296875 1.0625 0.90625q0.515625 0.59375 1.109375 1.59375l2.65625 4.484375l-2.3125 0l-2.34375 -3.921875q-0.453125 -0.75 -0.859375 -1.15625q-0.390625 -0.40625 -0.90625 -0.5625q-0.5 -0.171875 -1.25 -0.171875l-1.671875 0l0 5.8125l-2.15625 0l0 -5.8125l-1.6875 0q-0.71875 0 -1.234375 0.171875q-0.5 0.15625 -0.921875 0.5625q-0.40625 0.40625 -0.859375 1.15625l-2.34375 3.921875l-2.3125 0zm24.55008 4.796875l2.421875 -5.46875l0 0.9375l-5.671875 -13.21875l2.34375 0l4.640625 11.359375l-0.71875 0l4.6875 -11.359375l2.265625 0l-7.703125 17.75l-2.265625 0zm12.483459 0l0 -17.75l2.09375 0l0 3.0625l-0.265625 0q0.4375 -1.515625 1.703125 -2.40625q1.265625 -0.890625 3.015625 -0.890625q1.734375 0 3.03125 0.8125q1.296875 0.8125 2.0 2.3125q0.703125 1.5 0.703125 3.578125q0 2.0625 -0.703125 3.578125q-0.703125 1.5 -1.984375 2.328125q-1.28125 0.8125 -3.046875 0.8125q-1.75 0 -3.015625 -0.890625q-1.25 -0.890625 -1.703125 -2.375l0.328125 0l0 7.828125l-2.15625 0zm6.09375 -6.296875q1.84375 0 2.921875 -1.28125q1.078125 -1.296875 1.078125 -3.703125q0 -2.421875 -1.078125 -3.703125q-1.078125 -1.28125 -2.921875 -1.28125q-1.8125 0 -2.90625 1.28125q-1.09375 1.28125 -1.09375 3.703125q0 2.40625 1.09375 3.703125q1.09375 1.28125 2.90625 1.28125zm9.666473 1.5l0 -12.953125l2.171875 0l0 5.375l7.0625 0l0 -5.375l2.15625 0l0 12.953125l-2.15625 0l0 -5.8125l-7.0625 0l0 5.8125l-2.171875 0zm19.772156 0.234375q-1.34375 0 -2.390625 -0.515625q-1.046875 -0.515625 -1.671875 -1.421875q-0.609375 -0.90625 -0.609375 -2.03125q0 -1.4375 0.734375 -2.265625q0.734375 -0.828125 2.421875 -1.171875q1.703125 -0.34375 4.625 -0.34375l1.203125 0l0 1.40625l-1.171875 0q-1.625 0 -2.71875 0.109375q-1.09375 0.109375 -1.734375 0.375q-0.640625 0.265625 -0.90625 0.703125q-0.265625 0.421875 -0.265625 1.0625q0 1.09375 0.75 1.78125q0.765625 0.6875 2.078125 0.6875q1.0625 0 1.875 -0.5q0.8125 -0.515625 1.28125 -1.390625q0.46875 -0.875 0.46875 -2.015625l0 -3.046875q0 -1.65625 -0.671875 -2.390625q-0.65625 -0.734375 -2.1875 -0.734375q-1.171875 0 -2.265625 0.34375q-1.09375 0.328125 -2.234375 1.078125l-0.75 -1.578125q0.703125 -0.484375 1.578125 -0.84375q0.875 -0.359375 1.828125 -0.53125q0.96875 -0.1875 1.84375 -0.1875q1.6875 0 2.78125 0.546875q1.09375 0.53125 1.625 1.640625q0.53125 1.109375 0.53125 2.84375l0 8.15625l-2.03125 0l0 -3.015625l0.25 0q-0.21875 1.015625 -0.828125 1.734375q-0.59375 0.71875 -1.46875 1.125q-0.875 0.390625 -1.96875 0.390625zm9.523926 0.0625l-0.796875 -1.703125q0.90625 -0.375 1.5 -0.984375q0.609375 -0.625 0.96875 -1.5625q0.359375 -0.953125 0.515625 -2.328125q0.171875 -1.390625 0.171875 -3.375l0 -3.296875l9.40625 0l0 12.953125l-2.15625 0l0 -11.21875l-5.234375 0l0 1.65625q0 2.265625 -0.25 3.953125q-0.234375 1.671875 -0.75 2.828125q-0.515625 1.15625 -1.359375 1.90625q-0.84375 0.734375 -2.015625 1.171875zm21.441223 -0.0625q-1.890625 0 -3.28125 -0.8125q-1.375 -0.828125 -2.140625 -2.328125q-0.765625 -1.515625 -0.765625 -3.578125q0 -2.046875 0.765625 -3.546875q0.765625 -1.515625 2.140625 -2.328125q1.390625 -0.828125 3.28125 -0.828125q1.890625 0 3.28125 0.828125q1.390625 0.8125 2.140625 2.328125q0.765625 1.5 0.765625 3.546875q0 2.0625 -0.765625 3.578125q-0.75 1.5 -2.140625 2.328125q-1.390625 0.8125 -3.28125 0.8125zm0 -1.734375q1.84375 0 2.921875 -1.28125q1.078125 -1.296875 1.078125 -3.71875q0 -2.40625 -1.078125 -3.6875q-1.078125 -1.28125 -2.921875 -1.28125q-1.8125 0 -2.90625 1.28125q-1.09375 1.28125 -1.09375 3.6875q0 2.421875 1.09375 3.71875q1.09375 1.28125 2.90625 1.28125zm9.665527 1.5l0 -12.953125l6.328125 0q1.546875 0 2.53125 0.390625q0.984375 0.375 1.453125 1.140625q0.484375 0.765625 0.484375 1.875q0 1.234375 -0.859375 2.09375q-0.859375 0.84375 -2.25 1.0l0 -0.34375q1.09375 0.03125 1.890625 0.453125q0.796875 0.40625 1.21875 1.125q0.4375 0.71875 0.4375 1.640625q0 1.65625 -1.234375 2.625q-1.21875 0.953125 -3.46875 0.953125l-6.53125 0zm2.0625 -1.46875l4.390625 0q1.3125 0 2.015625 -0.5625q0.703125 -0.578125 0.703125 -1.640625q0 -1.078125 -0.703125 -1.625q-0.703125 -0.5625 -2.015625 -0.5625l-4.390625 0l0 4.390625zm0 -5.859375l4.15625 0q1.203125 0 1.875 -0.5625q0.6875 -0.5625 0.6875 -1.546875q0 -0.984375 -0.6875 -1.515625q-0.671875 -0.53125 -1.875 -0.53125l-4.15625 0l0 4.15625z" fill-rule="nonzero"/><path fill="#595959" d="m138.72842 366.92163q1.421875 0 2.796875 0.75q1.390625 0.734375 2.15625 2.125q0.765625 1.375 0.765625 2.859375q0 2.375 -1.6875 4.0625q-1.671875 1.671875 -4.03125 1.671875q-2.390625 0 -4.078125 -1.671875q-1.671875 -1.6875 -1.671875 -4.0625q0 -1.5 0.765625 -2.875q0.78125 -1.375 2.15625 -2.109375q1.375 -0.75 2.828125 -0.75z" fill-rule="nonzero"/><path fill="#595959" d="m178.31328 380.406q-1.890625 0 -3.28125 -0.8125q-1.375 -0.828125 -2.140625 -2.328125q-0.765625 -1.515625 -0.765625 -3.578125q0 -2.046875 0.765625 -3.546875q0.765625 -1.515625 2.140625 -2.328125q1.390625 -0.828125 3.28125 -0.828125q1.890625 0 3.28125 0.828125q1.390625 0.8125 2.140625 2.328125q0.765625 1.5 0.765625 3.546875q0 2.0625 -0.765625 3.578125q-0.75 1.5 -2.140625 2.328125q-1.390625 0.8125 -3.28125 0.8125zm0 -1.734375q1.84375 0 2.921875 -1.28125q1.078125 -1.296875 1.078125 -3.71875q0 -2.40625 -1.078125 -3.6875q-1.078125 -1.28125 -2.921875 -1.28125q-1.8125 0 -2.90625 1.28125q-1.09375 1.28125 -1.09375 3.6875q0 2.421875 1.09375 3.71875q1.09375 1.28125 2.90625 1.28125zm9.712387 6.296875l0 -17.75l2.09375 0l0 3.0625l-0.265625 0q0.4375 -1.515625 1.703125 -2.40625q1.265625 -0.890625 3.015625 -0.890625q1.734375 0 3.03125 0.8125q1.296875 0.8125 2.0 2.3125q0.703125 1.5 0.703125 3.578125q0 2.0625 -0.703125 3.578125q-0.703125 1.5 -1.984375 2.328125q-1.28125 0.8125 -3.046875 0.8125q-1.75 0 -3.015625 -0.890625q-1.25 -0.890625 -1.703125 -2.375l0.328125 0l0 7.828125l-2.15625 0zm6.09375 -6.296875q1.84375 0 2.921875 -1.28125q1.078125 -1.296875 1.078125 -3.703125q0 -2.421875 -1.078125 -3.703125q-1.078125 -1.28125 -2.921875 -1.28125q-1.8125 0 -2.90625 1.28125q-1.09375 1.28125 -1.09375 3.703125q0 2.40625 1.09375 3.703125q1.09375 1.28125 2.90625 1.28125zm9.666473 1.5l0 -12.953125l9.09375 0l0 1.734375l-6.921875 0l0 11.21875l-2.171875 0zm15.720428 0.234375q-1.34375 0 -2.390625 -0.515625q-1.046875 -0.515625 -1.671875 -1.421875q-0.609375 -0.90625 -0.609375 -2.03125q0 -1.4375 0.734375 -2.265625q0.734375 -0.828125 2.421875 -1.171875q1.703125 -0.34375 4.625 -0.34375l1.203125 0l0 1.40625l-1.171875 0q-1.625 0 -2.71875 0.109375q-1.09375 0.109375 -1.734375 0.375q-0.640625 0.265625 -0.90625 0.703125q-0.265625 0.421875 -0.265625 1.0625q0 1.09375 0.75 1.78125q0.765625 0.6875 2.078125 0.6875q1.0625 0 1.875 -0.5q0.8125 -0.515625 1.28125 -1.390625q0.46875 -0.875 0.46875 -2.015625l0 -3.046875q0 -1.65625 -0.671875 -2.390625q-0.65625 -0.734375 -2.1875 -0.734375q-1.171875 0 -2.265625 0.34375q-1.09375 0.328125 -2.234375 1.078125l-0.75 -1.578125q0.703125 -0.484375 1.578125 -0.84375q0.875 -0.359375 1.828125 -0.53125q0.96875 -0.1875 1.84375 -0.1875q1.6875 0 2.78125 0.546875q1.09375 0.53125 1.625 1.640625q0.53125 1.109375 0.53125 2.84375l0 8.15625l-2.03125 0l0 -3.015625l0.25 0q-0.21875 1.015625 -0.828125 1.734375q-0.59375 0.71875 -1.46875 1.125q-0.875 0.390625 -1.96875 0.390625zm10.2426605 -0.234375l0 -12.953125l2.171875 0l0 5.375l7.0625 0l0 -5.375l2.15625 0l0 12.953125l-2.15625 0l0 -5.8125l-7.0625 0l0 5.8125l-2.171875 0zm15.647156 0l0 -12.953125l1.984375 0l0 10.90625l-0.671875 0l8.15625 -10.90625l1.8437653 0l0 12.953125l-1.9687653 0l0 -10.921875l0.65625 0l-8.15625 10.921875l-1.84375 0zm19.86409 0.234375q-1.671875 0 -3.15625 -0.4375q-1.484375 -0.4375 -2.390625 -1.234375l0.703125 -1.515625q0.921875 0.734375 2.171875 1.125q1.265625 0.390625 2.625 0.390625q1.921875 0 2.75 -0.5625q0.84375 -0.5625 0.84375 -1.65625q0 -1.015625 -0.703125 -1.546875q-0.6875 -0.546875 -1.984375 -0.546875l-3.0625 0l0 -1.640625l2.796875 0q1.140625 0 1.8125 -0.53125q0.6875 -0.53125 0.6875 -1.484375q0 -0.984375 -0.734375 -1.546875q-0.734375 -0.5625 -2.40625 -0.5625q-1.34375 0 -2.46875 0.34375q-1.109375 0.328125 -2.125 1.0625l-0.6875 -1.515625q1.09375 -0.796875 2.484375 -1.171875q1.40625 -0.390625 3.0625 -0.390625q2.453125 0 3.6875 0.953125q1.234375 0.953125 1.234375 2.6875q0 1.234375 -0.859375 2.09375q-0.84375 0.84375 -2.25 1.0l0 -0.34375q1.09375 0.03125 1.890625 0.453125q0.796875 0.40625 1.234375 1.109375q0.4375 0.703125 0.4375 1.65625q0 1.734375 -1.40625 2.78125q-1.40625 1.03125 -4.1875 1.03125zm13.076233 0q-1.34375 0 -2.390625 -0.515625q-1.046875 -0.515625 -1.671875 -1.421875q-0.609375 -0.90625 -0.609375 -2.03125q0 -1.4375 0.734375 -2.265625q0.734375 -0.828125 2.421875 -1.171875q1.703125 -0.34375 4.625 -0.34375l1.203125 0l0 1.40625l-1.171875 0q-1.625 0 -2.71875 0.109375q-1.09375 0.109375 -1.734375 0.375q-0.640625 0.265625 -0.90625 0.703125q-0.265625 0.421875 -0.265625 1.0625q0 1.09375 0.75 1.78125q0.765625 0.6875 2.078125 0.6875q1.0625 0 1.875 -0.5q0.8125 -0.515625 1.28125 -1.390625q0.46875 -0.875 0.46875 -2.015625l0 -3.046875q0 -1.65625 -0.671875 -2.390625q-0.65625 -0.734375 -2.1875 -0.734375q-1.171875 0 -2.265625 0.34375q-1.09375 0.328125 -2.234375 1.078125l-0.75 -1.578125q0.703125 -0.484375 1.578125 -0.84375q0.875 -0.359375 1.828125 -0.53125q0.96875 -0.1875 1.84375 -0.1875q1.6875 0 2.78125 0.546875q1.09375 0.53125 1.625 1.640625q0.53125 1.109375 0.53125 2.84375l0 8.15625l-2.03125 0l0 -3.015625l0.25 0q-0.21875 1.015625 -0.828125 1.734375q-0.59375 0.71875 -1.46875 1.125q-0.875 0.390625 -1.96875 0.390625zm12.94577 -0.234375l0 -11.21875l-4.6875 0l0 -1.734375l11.5625 0l0 1.734375l-4.71875 0l0 11.21875l-2.15625 0zm14.500763 0.234375q-1.890625 0 -3.28125 -0.8125q-1.375 -0.828125 -2.140625 -2.328125q-0.765625 -1.515625 -0.765625 -3.578125q0 -2.046875 0.765625 -3.546875q0.765625 -1.515625 2.140625 -2.328125q1.390625 -0.828125 3.28125 -0.828125q1.890625 0 3.28125 0.828125q1.390625 0.8125 2.140625 2.328125q0.765625 1.5 0.765625 3.546875q0 2.0625 -0.765625 3.578125q-0.75 1.5 -2.140625 2.328125q-1.390625 0.8125 -3.28125 0.8125zm0 -1.734375q1.84375 0 2.921875 -1.28125q1.078125 -1.296875 1.078125 -3.71875q0 -2.40625 -1.078125 -3.6875q-1.078125 -1.28125 -2.921875 -1.28125q-1.8125 0 -2.90625 1.28125q-1.09375 1.28125 -1.09375 3.6875q0 2.421875 1.09375 3.71875q1.09375 1.28125 2.90625 1.28125zm9.712372 6.296875l0 -17.75l2.09375 0l0 3.0625l-0.265625 0q0.4375 -1.515625 1.703125 -2.40625q1.265625 -0.890625 3.015625 -0.890625q1.734375 0 3.03125 0.8125q1.296875 0.8125 2.0 2.3125q0.703125 1.5 0.703125 3.578125q0 2.0625 -0.703125 3.578125q-0.703125 1.5 -1.984375 2.328125q-1.28125 0.8125 -3.046875 0.8125q-1.75 0 -3.015625 -0.890625q-1.25 -0.890625 -1.703125 -2.375l0.328125 0l0 7.828125l-2.15625 0zm6.09375 -6.296875q1.84375 0 2.921875 -1.28125q1.078125 -1.296875 1.078125 -3.703125q0 -2.421875 -1.078125 -3.703125q-1.078125 -1.28125 -2.921875 -1.28125q-1.8125 0 -2.90625 1.28125q-1.09375 1.28125 -1.09375 3.703125q0 2.40625 1.09375 3.703125q1.09375 1.28125 2.90625 1.28125zm9.666473 1.5l0 -12.953125l2.171875 0l0 4.609375l3.90625 0q2.484375 0 3.765625 1.078125q1.28125 1.078125 1.28125 3.046875q0 1.3125 -0.609375 2.265625q-0.59375 0.9375 -1.703125 1.453125q-1.09375 0.5 -2.734375 0.5l-6.078125 0zm2.171875 -1.546875l3.703125 0q1.515625 0 2.34375 -0.640625q0.828125 -0.640625 0.828125 -2.0q0 -1.359375 -0.828125 -1.984375q-0.828125 -0.625 -2.34375 -0.625l-3.703125 0l0 5.25zm10.875 1.546875l0 -12.953125l2.15625 0l0 12.953125l-2.15625 0zm13.262756 0l0 -12.953125l2.171875 0l0 5.40625l2.421875 0l4.234375 -5.40625l2.375 0l-4.84375 6.296875l-0.625 -0.703125q0.75 0.078125 1.3125 0.375q0.5625 0.296875 1.0625 0.90625q0.515625 0.59375 1.09375 1.59375l2.671875 4.484375l-2.328125 0l-2.34375 -3.921875q-0.453125 -0.75 -0.859375 -1.15625q-0.390625 -0.40625 -0.90625 -0.5625q-0.5 -0.171875 -1.25 -0.171875l-2.015625 0l0 5.8125l-2.171875 0zm19.443024 0.234375q-1.890625 0 -3.28125 -0.8125q-1.375 -0.828125 -2.140625 -2.328125q-0.765625 -1.515625 -0.765625 -3.578125q0 -2.046875 0.765625 -3.546875q0.765625 -1.515625 2.140625 -2.328125q1.390625 -0.828125 3.28125 -0.828125q1.890625 0 3.28125 0.828125q1.390625 0.8125 2.140625 2.328125q0.765625 1.5 0.765625 3.546875q0 2.0625 -0.765625 3.578125q-0.75 1.5 -2.140625 2.328125q-1.390625 0.8125 -3.28125 0.8125zm0 -1.734375q1.84375 0 2.921875 -1.28125q1.078125 -1.296875 1.078125 -3.71875q0 -2.40625 -1.078125 -3.6875q-1.078125 -1.28125 -2.921875 -1.28125q-1.8125 0 -2.90625 1.28125q-1.09375 1.28125 -1.09375 3.6875q0 2.421875 1.09375 3.71875q1.09375 1.28125 2.90625 1.28125zm9.665497 1.5l0 -12.953125l2.171875 0l0 5.375l7.0625 0l0 -5.375l2.15625 0l0 12.953125l-2.15625 0l0 -5.8125l-7.0625 0l0 5.8125l-2.171875 0zm23.03778 4.796875l0 -7.65625l0.234375 0q-0.359375 1.46875 -1.328125 2.28125q-0.953125 0.8125 -2.375 0.8125q-1.40625 0 -2.46875 -0.8125q-1.046875 -0.828125 -1.640625 -2.34375q-0.578125 -1.53125 -0.578125 -3.5625q0 -2.078125 0.578125 -3.578125q0.59375 -1.5 1.640625 -2.3125q1.0625 -0.8125 2.46875 -0.8125q1.4375 0 2.390625 0.8125q0.953125 0.8125 1.3125 2.265625l-0.234375 0l0 -8.6875l2.15625 0l0 8.6875l-0.265625 0q0.40625 -1.453125 1.34375 -2.265625q0.953125 -0.8125 2.390625 -0.8125q1.40625 0 2.453125 0.8125q1.0625 0.8125 1.640625 2.3125q0.59375 1.5 0.59375 3.578125q0 2.03125 -0.59375 3.5625q-0.578125 1.515625 -1.625 2.34375q-1.03125 0.8125 -2.46875 0.8125q-1.40625 0 -2.375 -0.8125q-0.953125 -0.8125 -1.359375 -2.28125l0.265625 0l0 7.65625l-2.15625 0zm-2.984375 -6.265625q0.953125 0 1.625 -0.5625q0.671875 -0.578125 1.03125 -1.6875q0.359375 -1.125 0.359375 -2.765625q0 -1.625 -0.359375 -2.734375q-0.359375 -1.125 -1.046875 -1.6875q-0.671875 -0.578125 -1.609375 -0.578125q-1.390625 0 -2.203125 1.28125q-0.8125 1.265625 -0.8125 3.71875q0 2.484375 0.8125 3.75q0.8125 1.265625 2.203125 1.265625zm8.109375 0q1.40625 0 2.21875 -1.265625q0.8125 -1.265625 0.8125 -3.75q0 -2.453125 -0.828125 -3.71875q-0.828125 -1.28125 -2.203125 -1.28125q-0.9375 0 -1.609375 0.578125q-0.65625 0.5625 -1.015625 1.6875q-0.359375 1.109375 -0.359375 2.734375q0 1.640625 0.359375 2.765625q0.359375 1.109375 1.015625 1.6875q0.671875 0.5625 1.609375 0.5625zm14.550995 1.703125q-2.046875 0 -3.53125 -0.8125q-1.46875 -0.8125 -2.296875 -2.296875q-0.8125 -1.5 -0.8125 -3.578125q0 -2.03125 0.796875 -3.53125q0.8125 -1.5 2.203125 -2.34375q1.40625 -0.859375 3.25 -0.859375q1.75 0 3.0 0.765625q1.265625 0.765625 1.9375 2.1875q0.6875 1.40625 0.6875 3.390625l0 0.8125l-10.21875 0l0 -1.40625l8.78125 0l-0.4375 0.34375q0 -2.125 -0.953125 -3.3125q-0.9375 -1.1875 -2.75 -1.1875q-1.359375 0 -2.3125 0.625q-0.9375 0.625 -1.421875 1.734375q-0.46875 1.109375 -0.46875 2.578125l0 0.15625q0 1.625 0.515625 2.75q0.515625 1.109375 1.546875 1.6875q1.046875 0.5625 2.484375 0.5625q1.15625 0 2.234375 -0.359375q1.078125 -0.359375 2.03125 -1.171875l0.75 1.515625q-0.875 0.796875 -2.234375 1.28125q-1.359375 0.46875 -2.78125 0.46875zm8.619507 4.5625l0 -17.75l2.09375 0l0 3.0625l-0.265625 0q0.4375 -1.515625 1.703125 -2.40625q1.265625 -0.890625 3.015625 -0.890625q1.734375 0 3.03125 0.8125q1.296875 0.8125 2.0 2.3125q0.703125 1.5 0.703125 3.578125q0 2.0625 -0.703125 3.578125q-0.703125 1.5 -1.984375 2.328125q-1.28125 0.8125 -3.046875 0.8125q-1.75 0 -3.015625 -0.890625q-1.25 -0.890625 -1.703125 -2.375l0.328125 0l0 7.828125l-2.15625 0zm6.09375 -6.296875q1.84375 0 2.921875 -1.28125q1.078125 -1.296875 1.078125 -3.703125q0 -2.421875 -1.078125 -3.703125q-1.078125 -1.28125 -2.921875 -1.28125q-1.8125 0 -2.90625 1.28125q-1.09375 1.28125 -1.09375 3.703125q0 2.40625 1.09375 3.703125q1.09375 1.28125 2.90625 1.28125zm15.541473 1.734375q-2.046875 0 -3.53125 -0.8125q-1.46875 -0.8125 -2.296875 -2.296875q-0.8125 -1.5 -0.8125 -3.578125q0 -2.03125 0.796875 -3.53125q0.8125 -1.5 2.203125 -2.34375q1.40625 -0.859375 3.25 -0.859375q1.75 0 3.0 0.765625q1.265625 0.765625 1.9375 2.1875q0.6875 1.40625 0.6875 3.390625l0 0.8125l-10.21875 0l0 -1.40625l8.78125 0l-0.4375 0.34375q0 -2.125 -0.953125 -3.3125q-0.9375 -1.1875 -2.75 -1.1875q-1.359375 0 -2.3125 0.625q-0.9375 0.625 -1.421875 1.734375q-0.46875 1.109375 -0.46875 2.578125l0 0.15625q0 1.625 0.515625 2.75q0.515625 1.109375 1.546875 1.6875q1.046875 0.5625 2.484375 0.5625q1.15625 0 2.234375 -0.359375q1.078125 -0.359375 2.03125 -1.171875l0.75 1.515625q-0.875 0.796875 -2.234375 1.28125q-1.359375 0.46875 -2.78125 0.46875zm8.572632 -0.234375l0 -12.953125l2.171875 0l0 5.375l7.0625 0l0 -5.375l2.15625 0l0 12.953125l-2.15625 0l0 -5.8125l-7.0625 0l0 5.8125l-2.171875 0zm26.85028 3.46875l0 -3.46875l-11.203125 0l0 -12.953125l2.171875 0l0 11.21875l6.6875 0l0 -11.21875l2.15625 0l0 11.21875l2.046875 0l0 5.203125l-1.859375 0zm4.737274 -3.46875l0 -12.953125l1.984375 0l0 10.90625l-0.671875 0l8.15625 -10.90625l1.84375 0l0 12.953125l-1.96875 0l0 -10.921875l0.65625 0l-8.15625 10.921875l-1.84375 0zm15.5672 0l0 -12.953125l1.984375 0l0 10.90625l-0.671875 0l8.15625 -10.90625l1.84375 0l0 12.953125l-1.96875 0l0 -10.921875l0.65625 0l-8.15625 10.921875l-1.84375 0zm5.65625 -14.640625q-1.0625 0 -1.96875 -0.375q-0.90625 -0.390625 -1.578125 -1.15625q-0.671875 -0.78125 -1.015625 -1.953125l1.25 -0.484375q0.484375 1.34375 1.296875 1.984375q0.8125 0.625 2.015625 0.625q1.21875 0 2.0 -0.578125q0.796875 -0.59375 1.4375 -2.0l1.234375 0.453125q-0.484375 1.28125 -1.203125 2.046875q-0.703125 0.75 -1.578125 1.09375q-0.875 0.34375 -1.890625 0.34375z" fill-rule="nonzero"/><path fill="#595959" d="m138.72842 403.72165q1.421875 0 2.796875 0.75q1.390625 0.734375 2.15625 2.125q0.765625 1.375 0.765625 2.859375q0 2.375 -1.6875 4.0625q-1.671875 1.671875 -4.03125 1.671875q-2.390625 0 -4.078125 -1.671875q-1.671875 -1.6875 -1.671875 -4.0625q0 -1.5 0.765625 -2.875q0.78125 -1.375 2.15625 -2.109375q1.375 -0.75 2.828125 -0.75z" fill-rule="nonzero"/><path fill="#595959" d="m172.93828 421.76852l0 -17.75l2.09375 0l0 3.0625l-0.265625 0q0.4375 -1.515625 1.703125 -2.40625q1.265625 -0.890625 3.015625 -0.890625q1.734375 0 3.03125 0.8125q1.296875 0.8125 2.0 2.3125q0.703125 1.5 0.703125 3.578125q0 2.0625 -0.703125 3.578125q-0.703125 1.5 -1.984375 2.328125q-1.28125 0.8125 -3.046875 0.8125q-1.75 0 -3.015625 -0.890625q-1.25 -0.890625 -1.703125 -2.375l0.328125 0l0 7.828125l-2.15625 0zm6.09375 -6.296875q1.84375 0 2.921875 -1.28125q1.078125 -1.296875 1.078125 -3.703125q0 -2.421875 -1.078125 -3.703125q-1.078125 -1.28125 -2.921875 -1.28125q-1.8125 0 -2.90625 1.28125q-1.09375 1.28125 -1.09375 3.703125q0 2.40625 1.09375 3.703125q1.09375 1.28125 2.90625 1.28125zm11.03772 6.296875l2.421875 -5.46875l0 0.9375l-5.671875 -13.21875l2.34375 0l4.640625 11.359375l-0.71875 0l4.6875 -11.359375l2.265625 0l-7.703125 17.75l-2.265625 0zm12.436569 -4.796875l0 -12.953125l2.171875 0l0 5.40625l2.421875 0l4.234375 -5.40625l2.375 0l-4.84375 6.296875l-0.625 -0.703125q0.75 0.078125 1.3125 0.375q0.5625 0.296875 1.0625 0.90625q0.515625 0.59375 1.09375 1.59375l2.671875 4.484375l-2.328125 0l-2.34375 -3.921875q-0.453125 -0.75 -0.859375 -1.15625q-0.390625 -0.40625 -0.90625 -0.5625q-0.5 -0.171875 -1.25 -0.171875l-2.015625 0l0 5.8125l-2.171875 0zm19.443008 0.234375q-1.890625 0 -3.28125 -0.8125q-1.375 -0.828125 -2.140625 -2.328125q-0.765625 -1.515625 -0.765625 -3.578125q0 -2.046875 0.765625 -3.546875q0.765625 -1.515625 2.140625 -2.328125q1.390625 -0.828125 3.28125 -0.828125q1.890625 0 3.28125 0.828125q1.390625 0.8125 2.140625 2.328125q0.765625 1.5 0.765625 3.546875q0 2.0625 -0.765625 3.578125q-0.75 1.5 -2.140625 2.328125q-1.390625 0.8125 -3.28125 0.8125zm0 -1.734375q1.84375 0 2.921875 -1.28125q1.078125 -1.296875 1.078125 -3.71875q0 -2.40625 -1.078125 -3.6875q-1.078125 -1.28125 -2.921875 -1.28125q-1.8125 0 -2.90625 1.28125q-1.09375 1.28125 -1.09375 3.6875q0 2.421875 1.09375 3.71875q1.09375 1.28125 2.90625 1.28125zm9.665512 1.5l0 -12.953125l6.328125 0q1.546875 0 2.53125 0.390625q0.984375 0.375 1.453125 1.140625q0.484375 0.765625 0.484375 1.875q0 1.234375 -0.859375 2.09375q-0.859375 0.84375 -2.25 1.0l0 -0.34375q1.09375 0.03125 1.890625 0.453125q0.796875 0.40625 1.21875 1.125q0.4375 0.71875 0.4375 1.640625q0 1.65625 -1.234375 2.625q-1.21875 0.953125 -3.46875 0.953125l-6.53125 0zm2.0625 -1.46875l4.390625 0q1.3125 0 2.015625 -0.5625q0.703125 -0.578125 0.703125 -1.640625q0 -1.078125 -0.703125 -1.625q-0.703125 -0.5625 -2.015625 -0.5625l-4.390625 0l0 4.390625zm0 -5.859375l4.15625 0q1.203125 0 1.875 -0.5625q0.6875 -0.5625 0.6875 -1.546875q0 -0.984375 -0.6875 -1.515625q-0.671875 -0.53125 -1.875 -0.53125l-4.15625 0l0 4.15625zm17.940292 7.5625q-1.890625 0 -3.28125 -0.8125q-1.375 -0.828125 -2.140625 -2.328125q-0.765625 -1.515625 -0.765625 -3.578125q0 -2.046875 0.765625 -3.546875q0.765625 -1.515625 2.140625 -2.328125q1.390625 -0.828125 3.28125 -0.828125q1.890625 0 3.28125 0.828125q1.3906403 0.8125 2.1406403 2.328125q0.765625 1.5 0.765625 3.546875q0 2.0625 -0.765625 3.578125q-0.75 1.5 -2.1406403 2.328125q-1.390625 0.8125 -3.28125 0.8125zm0 -1.734375q1.84375 0 2.921875 -1.28125q1.078125 -1.296875 1.078125 -3.71875q0 -2.40625 -1.078125 -3.6875q-1.078125 -1.28125 -2.921875 -1.28125q-1.8125 0 -2.90625 1.28125q-1.09375 1.28125 -1.09375 3.6875q0 2.421875 1.09375 3.71875q1.09375 1.28125 2.90625 1.28125zm8.259262 4.96875l0 -5.203125l1.359375 0q0.609375 -0.90625 1.0 -1.984375q0.390625 -1.078125 0.5625 -2.40625q0.171875 -1.34375 0.171875 -3.015625l0 -3.8125l9.171875 0l0 11.21875l2.046875 0l0 5.203125l-1.859375 0l0 -3.46875l-10.609375 0l0 3.46875l-1.84375 0zm3.4375 -5.203125l6.765625 0l0 -9.515625l-5.1875 0l0 2.484375q0 2.0 -0.40625 3.875q-0.390625 1.859375 -1.171875 3.15625zm13.749207 1.734375l0 -12.953125l1.984375 0l0 10.90625l-0.671875 0l8.15625 -10.90625l1.84375 0l0 12.953125l-1.96875 0l0 -10.921875l0.65625 0l-8.15625 10.921875l-1.84375 0zm18.270325 0l0 -11.21875l-4.6875 0l0 -1.734375l11.5625 0l0 1.734375l-4.71875 0l0 11.21875l-2.15625 0zm14.953857 0.234375q-2.046875 0 -3.53125 -0.8125q-1.46875 -0.8125 -2.296875 -2.296875q-0.8125 -1.5 -0.8125 -3.578125q0 -2.03125 0.796875 -3.53125q0.8125 -1.5 2.203125 -2.34375q1.40625 -0.859375 3.25 -0.859375q1.75 0 3.0 0.765625q1.265625 0.765625 1.9375 2.1875q0.6875 1.40625 0.6875 3.390625l0 0.8125l-10.21875 0l0 -1.40625l8.78125 0l-0.4375 0.34375q0 -2.125 -0.953125 -3.3125q-0.9375 -1.1875 -2.75 -1.1875q-1.359375 0 -2.3125 0.625q-0.9375 0.625 -1.421875 1.734375q-0.46875 1.109375 -0.46875 2.578125l0 0.15625q0 1.625 0.515625 2.75q0.515625 1.109375 1.546875 1.6875q1.046875 0.5625 2.484375 0.5625q1.15625 0 2.234375 -0.359375q1.078125 -0.359375 2.03125 -1.171875l0.75 1.515625q-0.875 0.796875 -2.234375 1.28125q-1.359375 0.46875 -2.78125 0.46875zm7.853882 0.0625l-0.796875 -1.703125q0.90625 -0.375 1.5 -0.984375q0.609375 -0.625 0.96875 -1.5625q0.359375 -0.953125 0.515625 -2.328125q0.171875 -1.390625 0.171875 -3.375l0 -3.296875l9.40625 0l0 12.953125l-2.15625 0l0 -11.21875l-5.234375 0l0 1.65625q0 2.265625 -0.25 3.953125q-0.234375 1.671875 -0.75 2.828125q-0.515625 1.15625 -1.359375 1.90625q-0.84375 0.734375 -2.015625 1.171875zm16.019379 -0.296875l0 -12.953125l1.984375 0l0 10.90625l-0.671875 0l8.15625 -10.90625l1.84375 0l0 12.953125l-1.96875 0l0 -10.921875l0.65625 0l-8.15625 10.921875l-1.84375 0zm22.417847 0l0 -12.953125l2.171875 0l0 5.375l7.0625 0l0 -5.375l2.15625 0l0 12.953125l-2.15625 0l0 -5.8125l-7.0625 0l0 5.8125l-2.171875 0zm19.772156 0.234375q-1.34375 0 -2.390625 -0.515625q-1.046875 -0.515625 -1.671875 -1.421875q-0.609375 -0.90625 -0.609375 -2.03125q0 -1.4375 0.734375 -2.265625q0.734375 -0.828125 2.421875 -1.171875q1.703125 -0.34375 4.625 -0.34375l1.203125 0l0 1.40625l-1.171875 0q-1.625 0 -2.71875 0.109375q-1.09375 0.109375 -1.734375 0.375q-0.640625 0.265625 -0.90625 0.703125q-0.265625 0.421875 -0.265625 1.0625q0 1.09375 0.75 1.78125q0.765625 0.6875 2.078125 0.6875q1.0625 0 1.875 -0.5q0.8125 -0.515625 1.28125 -1.390625q0.46875 -0.875 0.46875 -2.015625l0 -3.046875q0 -1.65625 -0.671875 -2.390625q-0.65625 -0.734375 -2.1875 -0.734375q-1.171875 0 -2.265625 0.34375q-1.09375 0.328125 -2.234375 1.078125l-0.75 -1.578125q0.703125 -0.484375 1.578125 -0.84375q0.875 -0.359375 1.828125 -0.53125q0.96875 -0.1875 1.84375 -0.1875q1.6875 0 2.78125 0.546875q1.09375 0.53125 1.625 1.640625q0.53125 1.109375 0.53125 2.84375l0 8.15625l-2.03125 0l0 -3.015625l0.25 0q-0.21875 1.015625 -0.828125 1.734375q-0.59375 0.71875 -1.46875 1.125q-0.875 0.390625 -1.96875 0.390625zm11.773895 4.5625l2.421875 -5.46875l0 0.9375l-5.671875 -13.21875l2.34375 0l4.640625 11.359375l-0.71875 0l4.6875 -11.359375l2.265625 0l-7.703125 17.75l-2.265625 0zm20.76471 -4.796875l0 -5.25q-0.75 0.453125 -1.625 0.6875q-0.859375 0.21875 -1.8125 0.21875q-1.84375 0 -3.0625 -0.578125q-1.203125 -0.59375 -1.796875 -1.78125q-0.578125 -1.1875 -0.578125 -2.96875l0 -3.28125l2.15625 0l0 3.109375q0 1.28125 0.375 2.09375q0.375 0.8125 1.140625 1.203125q0.78125 0.390625 2.03125 0.390625q0.953125 0 1.703125 -0.203125q0.75 -0.21875 1.4375 -0.703125l0 -5.890625l2.15625 0l0 12.953125l-2.125 0zm6.386078 0l0 -12.953125l2.171875 0l0 5.375l7.0625 0l0 -5.375l2.15625 0l0 12.953125l-2.15625 0l0 -5.8125l-7.0625 0l0 5.8125l-2.171875 0zm15.647156 0l0 -12.953125l2.171875 0l0 4.609375l3.90625 0q2.484375 0 3.765625 1.078125q1.28125 1.078125 1.28125 3.046875q0 1.3125 -0.609375 2.265625q-0.59375 0.9375 -1.703125 1.453125q-1.09375 0.5 -2.734375 0.5l-6.078125 0zm2.171875 -1.546875l3.703125 0q1.515625 0 2.34375 -0.640625q0.828125 -0.640625 0.828125 -2.0q0 -1.359375 -0.828125 -1.984375q-0.828125 -0.625 -2.34375 -0.625l-3.703125 0l0 5.25zm10.875 1.546875l0 -12.953125l2.15625 0l0 12.953125l-2.15625 0zm4.8027344 0l5.8125 -7.25l0 1.125l-5.5 -6.828125l2.5625 0l4.140625 5.25l-0.75 0l4.15625 -5.25l2.53125 0l-5.46875 6.765625l0 -0.984375l5.78125 7.171875l-2.546875 0l-4.484375 -5.625l0.78125 0l-4.453125 5.625l-2.5625 0zm28.142914 0.234375q-1.890625 0 -3.28125 -0.8125q-1.375 -0.828125 -2.140625 -2.328125q-0.765625 -1.515625 -0.765625 -3.578125q0 -2.046875 0.765625 -3.546875q0.765625 -1.515625 2.140625 -2.328125q1.390625 -0.828125 3.28125 -0.828125q1.890625 0 3.28125 0.828125q1.390625 0.8125 2.140625 2.328125q0.765625 1.5 0.765625 3.546875q0 2.0625 -0.765625 3.578125q-0.75 1.5 -2.140625 2.328125q-1.390625 0.8125 -3.28125 0.8125zm0 -1.734375q1.84375 0 2.921875 -1.28125q1.078125 -1.296875 1.078125 -3.71875q0 -2.40625 -1.078125 -3.6875q-1.078125 -1.28125 -2.921875 -1.28125q-1.8125 0 -2.90625 1.28125q-1.09375 1.28125 -1.09375 3.6875q0 2.421875 1.09375 3.71875q1.09375 1.28125 2.90625 1.28125zm9.712402 6.296875l0 -17.75l2.09375 0l0 3.0625l-0.265625 0q0.4375 -1.515625 1.703125 -2.40625q1.265625 -0.890625 3.015625 -0.890625q1.734375 0 3.03125 0.8125q1.296875 0.8125 2.0 2.3125q0.703125 1.5 0.703125 3.578125q0 2.0625 -0.703125 3.578125q-0.703125 1.5 -1.984375 2.328125q-1.28125 0.8125 -3.046875 0.8125q-1.75 0 -3.015625 -0.890625q-1.25 -0.890625 -1.703125 -2.375l0.328125 0l0 7.828125l-2.15625 0zm6.09375 -6.296875q1.84375 0 2.921875 -1.28125q1.078125 -1.296875 1.078125 -3.703125q0 -2.421875 -1.078125 -3.703125q-1.078125 -1.28125 -2.921875 -1.28125q-1.8125 0 -2.90625 1.28125q-1.09375 1.28125 -1.09375 3.703125q0 2.40625 1.09375 3.703125q1.09375 1.28125 2.90625 1.28125zm9.666473 1.5l0 -12.953125l9.09375 0l0 1.734375l-6.921875 0l0 11.21875l-2.171875 0zm15.720428 0.234375q-1.34375 0 -2.390625 -0.515625q-1.046875 -0.515625 -1.671875 -1.421875q-0.609375 -0.90625 -0.609375 -2.03125q0 -1.4375 0.734375 -2.265625q0.734375 -0.828125 2.421875 -1.171875q1.703125 -0.34375 4.625 -0.34375l1.203125 0l0 1.40625l-1.171875 0q-1.625 0 -2.71875 0.109375q-1.09375 0.109375 -1.734375 0.375q-0.640625 0.265625 -0.90625 0.703125q-0.265625 0.421875 -0.265625 1.0625q0 1.09375 0.75 1.78125q0.765625 0.6875 2.078125 0.6875q1.0625 0 1.875 -0.5q0.8125 -0.515625 1.28125 -1.390625q0.46875 -0.875 0.46875 -2.015625l0 -3.046875q0 -1.65625 -0.671875 -2.390625q-0.65625 -0.734375 -2.1875 -0.734375q-1.171875 0 -2.265625 0.34375q-1.09375 0.328125 -2.234375 1.078125l-0.75 -1.578125q0.703125 -0.484375 1.578125 -0.84375q0.875 -0.359375 1.828125 -0.53125q0.96875 -0.1875 1.84375 -0.1875q1.6875 0 2.78125 0.546875q1.09375 0.53125 1.625 1.640625q0.53125 1.109375 0.53125 2.84375l0 8.15625l-2.03125 0l0 -3.015625l0.25 0q-0.21875 1.015625 -0.828125 1.734375q-0.59375 0.71875 -1.46875 1.125q-0.875 0.390625 -1.96875 0.390625zm10.242676 -0.234375l0 -12.953125l2.171875 0l0 5.375l7.0625 0l0 -5.375l2.15625 0l0 12.953125l-2.15625 0l0 -5.8125l-7.0625 0l0 5.8125l-2.171875 0zm15.647156 0l0 -12.953125l1.984375 0l0 10.90625l-0.671875 0l8.15625 -10.90625l1.84375 0l0 12.953125l-1.96875 0l0 -10.921875l0.65625 0l-8.15625 10.921875l-1.84375 0zm19.864075 0.234375q-1.671875 0 -3.15625 -0.4375q-1.484375 -0.4375 -2.390625 -1.234375l0.703125 -1.515625q0.921875 0.734375 2.171875 1.125q1.265625 0.390625 2.625 0.390625q1.921875 0 2.75 -0.5625q0.84375 -0.5625 0.84375 -1.65625q0 -1.015625 -0.703125 -1.546875q-0.6875 -0.546875 -1.984375 -0.546875l-3.0625 0l0 -1.640625l2.796875 0q1.140625 0 1.8125 -0.53125q0.6875 -0.53125 0.6875 -1.484375q0 -0.984375 -0.734375 -1.546875q-0.734375 -0.5625 -2.40625 -0.5625q-1.34375 0 -2.46875 0.34375q-1.109375 0.328125 -2.125 1.0625l-0.6875 -1.515625q1.09375 -0.796875 2.484375 -1.171875q1.40625 -0.390625 3.0625 -0.390625q2.453125 0 3.6875 0.953125q1.234375 0.953125 1.234375 2.6875q0 1.234375 -0.859375 2.09375q-0.84375 0.84375 -2.25 1.0l0 -0.34375q1.09375 0.03125 1.890625 0.453125q0.796875 0.40625 1.234375 1.109375q0.4375 0.703125 0.4375 1.65625q0 1.734375 -1.40625 2.78125q-1.40625 1.03125 -4.1875 1.03125zm13.076233 0q-1.34375 0 -2.390625 -0.515625q-1.046875 -0.515625 -1.671875 -1.421875q-0.609375 -0.90625 -0.609375 -2.03125q0 -1.4375 0.734375 -2.265625q0.734375 -0.828125 2.421875 -1.171875q1.703125 -0.34375 4.625 -0.34375l1.203125 0l0 1.40625l-1.171875 0q-1.625 0 -2.71875 0.109375q-1.09375 0.109375 -1.734375 0.375q-0.640625 0.265625 -0.90625 0.703125q-0.265625 0.421875 -0.265625 1.0625q0 1.09375 0.75 1.78125q0.765625 0.6875 2.078125 0.6875q1.0625 0 1.875 -0.5q0.8125 -0.515625 1.28125 -1.390625q0.46875 -0.875 0.46875 -2.015625l0 -3.046875q0 -1.65625 -0.671875 -2.390625q-0.65625 -0.734375 -2.1875 -0.734375q-1.171875 0 -2.265625 0.34375q-1.09375 0.328125 -2.234375 1.078125l-0.75 -1.578125q0.703125 -0.484375 1.578125 -0.84375q0.875 -0.359375 1.828125 -0.53125q0.96875 -0.1875 1.84375 -0.1875q1.6875 0 2.78125 0.546875q1.09375 0.53125 1.625 1.640625q0.53125 1.109375 0.53125 2.84375l0 8.15625l-2.03125 0l0 -3.015625l0.25 0q-0.21875 1.015625 -0.828125 1.734375q-0.59375 0.71875 -1.46875 1.125q-0.875 0.390625 -1.96875 0.390625zm21.4458 3.234375l0 -3.46875l-11.203125 0l0 -12.953125l2.171875 0l0 11.21875l6.6875 0l0 -11.21875l2.15625 0l0 11.21875l2.046875 0l0 5.203125l-1.859375 0zm4.7372437 -3.46875l0 -12.953125l1.984375 0l0 10.90625l-0.671875 0l8.15625 -10.90625l1.84375 0l0 12.953125l-1.96875 0l0 -10.921875l0.65625 0l-8.15625 10.921875l-1.84375 0zm15.5672 0l0 -12.953125l1.984375 0l0 10.90625l-0.671875 0l8.15625 -10.90625l1.84375 0l0 12.953125l-1.96875 0l0 -10.921875l0.65625 0l-8.15625 10.921875l-1.84375 0zm5.65625 -14.640625q-1.0625 0 -1.96875 -0.375q-0.90625 -0.390625 -1.578125 -1.15625q-0.671875 -0.78125 -1.015625 -1.953125l1.25 -0.484375q0.484375 1.34375 1.296875 1.984375q0.8125 0.625 2.015625 0.625q1.21875 0 2.0 -0.578125q0.796875 -0.59375 1.4375 -2.0l1.234375 0.453125q-0.484375 1.28125 -1.203125 2.046875q-0.703125 0.75 -1.578125 1.09375q-0.875 0.34375 -1.890625 0.34375zm16.761597 14.640625l0 -12.953125l1.984375 0l0 10.90625l-0.671875 0l8.15625 -10.90625l1.84375 0l0 12.953125l-1.96875 0l0 -10.921875l0.65625 0l-8.15625 10.921875l-1.84375 0zm22.417847 0l0 -12.953125l11.3125 0l0 12.953125l-2.15625 0l0 -11.21875l-6.984375 0l0 11.21875l-2.171875 0zm20.989075 0.234375q-1.890625 0 -3.28125 -0.8125q-1.375 -0.828125 -2.140625 -2.328125q-0.765625 -1.515625 -0.765625 -3.578125q0 -2.046875 0.765625 -3.546875q0.765625 -1.515625 2.140625 -2.328125q1.390625 -0.828125 3.28125 -0.828125q1.890625 0 3.28125 0.828125q1.390625 0.8125 2.140625 2.328125q0.765625 1.5 0.765625 3.546875q0 2.0625 -0.765625 3.578125q-0.75 1.5 -2.140625 2.328125q-1.390625 0.8125 -3.28125 0.8125zm0 -1.734375q1.84375 0 2.921875 -1.28125q1.078125 -1.296875 1.078125 -3.71875q0 -2.40625 -1.078125 -3.6875q-1.078125 -1.28125 -2.921875 -1.28125q-1.8125 0 -2.90625 1.28125q-1.09375 1.28125 -1.09375 3.6875q0 2.421875 1.09375 3.71875q1.09375 1.28125 2.90625 1.28125zm8.259277 4.96875l0 -5.203125l1.359375 0q0.609375 -0.90625 1.0 -1.984375q0.390625 -1.078125 0.5625 -2.40625q0.171875 -1.34375 0.171875 -3.015625l0 -3.8125l9.171875 0l0 11.21875l2.046875 0l0 5.203125l-1.859375 0l0 -3.46875l-10.609375 0l0 3.46875l-1.84375 0zm3.4375 -5.203125l6.765625 0l0 -9.515625l-5.1875 0l0 2.484375q0 2.0 -0.40625 3.875q-0.390625 1.859375 -1.171875 3.15625zm13.796082 6.53125l0 -17.75l2.09375 0l0 3.0625l-0.265625 0q0.4375 -1.515625 1.703125 -2.40625q1.265625 -0.890625 3.015625 -0.890625q1.734375 0 3.03125 0.8125q1.296875 0.8125 2.0 2.3125q0.703125 1.5 0.703125 3.578125q0 2.0625 -0.703125 3.578125q-0.703125 1.5 -1.984375 2.328125q-1.28125 0.8125 -3.046875 0.8125q-1.75 0 -3.015625 -0.890625q-1.25 -0.890625 -1.703125 -2.375l0.328125 0l0 7.828125l-2.15625 0zm6.09375 -6.296875q1.84375 0 2.921875 -1.28125q1.078125 -1.296875 1.078125 -3.703125q0 -2.421875 -1.078125 -3.703125q-1.078125 -1.28125 -2.921875 -1.28125q-1.8125 0 -2.90625 1.28125q-1.09375 1.28125 -1.09375 3.703125q0 2.40625 1.09375 3.703125q1.09375 1.28125 2.90625 1.28125zm13.791443 1.734375q-1.34375 0 -2.390625 -0.515625q-1.046875 -0.515625 -1.671875 -1.421875q-0.609375 -0.90625 -0.609375 -2.03125q0 -1.4375 0.734375 -2.265625q0.734375 -0.828125 2.421875 -1.171875q1.703125 -0.34375 4.625 -0.34375l1.203125 0l0 1.40625l-1.171875 0q-1.625 0 -2.71875 0.109375q-1.09375 0.109375 -1.734375 0.375q-0.640625 0.265625 -0.90625 0.703125q-0.265625 0.421875 -0.265625 1.0625q0 1.09375 0.75 1.78125q0.765625 0.6875 2.078125 0.6875q1.0625 0 1.875 -0.5q0.8125 -0.515625 1.28125 -1.390625q0.46875 -0.875 0.46875 -2.015625l0 -3.046875q0 -1.65625 -0.671875 -2.390625q-0.65625 -0.734375 -2.1875 -0.734375q-1.171875 0 -2.265625 0.34375q-1.09375 0.328125 -2.234375 1.078125l-0.75 -1.578125q0.703125 -0.484375 1.578125 -0.84375q0.875 -0.359375 1.828125 -0.53125q0.96875 -0.1875 1.84375 -0.1875q1.6875 0 2.78125 0.546875q1.09375 0.53125 1.625 1.640625q0.53125 1.109375 0.53125 2.84375l0 8.15625l-2.03125 0l0 -3.015625l0.25 0q-0.21875 1.015625 -0.828125 1.734375q-0.59375 0.71875 -1.46875 1.125q-0.875 0.390625 -1.96875 0.390625zm14.539551 0q-1.671875 0 -3.15625 -0.4375q-1.484375 -0.4375 -2.390625 -1.234375l0.703125 -1.515625q0.921875 0.734375 2.171875 1.125q1.265625 0.390625 2.625 0.390625q1.921875 0 2.75 -0.5625q0.84375 -0.5625 0.84375 -1.65625q0 -1.015625 -0.703125 -1.546875q-0.6875 -0.546875 -1.984375 -0.546875l-3.0625 0l0 -1.640625l2.796875 0q1.140625 0 1.8125 -0.53125q0.6875 -0.53125 0.6875 -1.484375q0 -0.984375 -0.734375 -1.546875q-0.734375 -0.5625 -2.40625 -0.5625q-1.34375 0 -2.46875 0.34375q-1.109375 0.328125 -2.125 1.0625l-0.6875 -1.515625q1.09375 -0.796875 2.484375 -1.171875q1.40625 -0.390625 3.0625 -0.390625q2.453125 0 3.6875 0.953125q1.234375 0.953125 1.234375 2.6875q0 1.234375 -0.859375 2.09375q-0.84375 0.84375 -2.25 1.0l0 -0.34375q1.09375 0.03125 1.890625 0.453125q0.796875 0.40625 1.234375 1.109375q0.4375 0.703125 0.4375 1.65625q0 1.734375 -1.40625 2.78125q-1.40625 1.03125 -4.1875 1.03125zm7.8116455 3.234375l0 -5.203125l1.359375 0q0.609375 -0.90625 1.0 -1.984375q0.390625 -1.078125 0.5625 -2.40625q0.171875 -1.34375 0.171875 -3.015625l0 -3.8125l9.171875 0l0 11.21875l2.046875 0l0 5.203125l-1.859375 0l0 -3.46875l-10.609375 0l0 3.46875l-1.84375 0zm3.4375 -5.203125l6.765625 0l0 -9.515625l-5.1875 0l0 2.484375q0 2.0 -0.40625 3.875q-0.390625 1.859375 -1.171875 3.15625zm19.624207 1.96875q-2.046875 0 -3.53125 -0.8125q-1.46875 -0.8125 -2.296875 -2.296875q-0.8125 -1.5 -0.8125 -3.578125q0 -2.03125 0.796875 -3.53125q0.8125 -1.5 2.203125 -2.34375q1.40625 -0.859375 3.25 -0.859375q1.75 0 3.0 0.765625q1.265625 0.765625 1.9375 2.1875q0.6875 1.40625 0.6875 3.390625l0 0.8125l-10.21875 0l0 -1.40625l8.78125 0l-0.4375 0.34375q0 -2.125 -0.953125 -3.3125q-0.9375 -1.1875 -2.75 -1.1875q-1.359375 0 -2.3125 0.625q-0.9375 0.625 -1.421875 1.734375q-0.46875 1.109375 -0.46875 2.578125l0 0.15625q0 1.625 0.515625 2.75q0.515625 1.109375 1.546875 1.6875q1.046875 0.5625 2.484375 0.5625q1.15625 0 2.234375 -0.359375q1.078125 -0.359375 2.03125 -1.171875l0.75 1.515625q-0.875 0.796875 -2.234375 1.28125q-1.359375 0.46875 -2.78125 0.46875zm7.853882 0.0625l-0.796875 -1.703125q0.90625 -0.375 1.5 -0.984375q0.609375 -0.625 0.96875 -1.5625q0.359375 -0.953125 0.515625 -2.328125q0.171875 -1.390625 0.171875 -3.375l0 -3.296875l9.40625 0l0 12.953125l-2.15625 0l0 -11.21875l-5.234375 0l0 1.65625q0 2.265625 -0.25 3.953125q-0.234375 1.671875 -0.75 2.828125q-0.515625 1.15625 -1.359375 1.90625q-0.84375 0.734375 -2.015625 1.171875zm21.894348 -0.0625q-2.046875 0 -3.53125 -0.8125q-1.46875 -0.8125 -2.296875 -2.296875q-0.8125 -1.5 -0.8125 -3.578125q0 -2.03125 0.796875 -3.53125q0.8125 -1.5 2.203125 -2.34375q1.40625 -0.859375 3.25 -0.859375q1.75 0 3.0 0.765625q1.265625 0.765625 1.9375 2.1875q0.6875 1.40625 0.6875 3.390625l0 0.8125l-10.21875 0l0 -1.40625l8.78125 0l-0.4375 0.34375q0 -2.125 -0.953125 -3.3125q-0.9375 -1.1875 -2.75 -1.1875q-1.359375 0 -2.3125 0.625q-0.9375 0.625 -1.421875 1.734375q-0.46875 1.109375 -0.46875 2.578125l0 0.15625q0 1.625 0.515625 2.75q0.515625 1.109375 1.546875 1.6875q1.046875 0.5625 2.484375 0.5625q1.15625 0 2.234375 -0.359375q1.078125 -0.359375 2.03125 -1.171875l0.75 1.515625q-0.875 0.796875 -2.234375 1.28125q-1.359375 0.46875 -2.78125 0.46875zm8.572632 -0.234375l0 -12.953125l2.171875 0l0 5.375l7.0625 0l0 -5.375l2.15625 0l0 12.953125l-2.15625 0l0 -5.8125l-7.0625 0l0 5.8125l-2.171875 0zm15.647156 0l0 -12.953125l1.984375 0l0 10.90625l-0.671875 0l8.15625 -10.90625l1.84375 0l0 12.953125l-1.96875 0l0 -10.921875l0.65625 0l-8.15625 10.921875l-1.84375 0zm15.5672 0l0 -12.953125l1.984375 0l0 10.90625l-0.671875 0l8.15625 -10.90625l1.84375 0l0 12.953125l-1.96875 0l0 -10.921875l0.65625 0l-8.15625 10.921875l-1.84375 0zm5.65625 -14.640625q-1.0625 0 -1.96875 -0.375q-0.90625 -0.390625 -1.578125 -1.15625q-0.671875 -0.78125 -1.015625 -1.953125l1.25 -0.484375q0.484375 1.34375 1.296875 1.984375q0.8125 0.625 2.015625 0.625q1.21875 0 2.0 -0.578125q0.796875 -0.59375 1.4375 -2.0l1.234375 0.453125q-0.484375 1.28125 -1.203125 2.046875q-0.703125 0.75 -1.578125 1.09375q-0.875 0.34375 -1.890625 0.34375z" fill-rule="nonzero"/><path fill="#000000" fill-opacity="0.0" d="m175.85826 31.307087l608.28345 0l0 65.41733l-608.28345 0z" fill-rule="evenodd"/><path fill="#1b4596" d="m213.68639 88.29833l0 -7.03125l-25.546875 0l0 -30.078121l5.46875 0l0 25.515621l15.21875 0l0 -25.515621l5.46875 0l0 25.515621l4.265625 0l0 11.59375l-4.875 0zm19.15245 -6.609375q-3.53125 0 -6.09375 -1.3125q-2.5625 -1.328125 -3.953125 -3.75q-1.375 -2.4375 -1.375 -5.765625q0 -3.25 1.34375 -5.671875q1.34375 -2.4374962 3.703125 -3.8124962q2.375 -1.390625 5.40625 -1.390625q2.984375 0 5.109375 1.28125q2.140625 1.28125 3.3125 3.6249962q1.171875 2.34375 1.171875 5.578125l0 1.578125l-15.75 0l0 -3.0625l12.0 0l-0.6875 0.640625q0 -2.90625 -1.28125 -4.453125q-1.28125 -1.5624962 -3.671875 -1.5624962q-1.78125 0 -3.046875 0.8281212q-1.25 0.828125 -1.921875 2.34375q-0.65625 1.515625 -0.65625 3.609375l0 0.296875q0 2.34375 0.71875 3.890625q0.734375 1.53125 2.171875 2.296875q1.453125 0.765625 3.59375 0.765625q1.75 0 3.5 -0.53125q1.75 -0.53125 3.1875 -1.6875l1.5 3.578125q-1.5 1.234375 -3.765625 1.96875q-2.25 0.71875 -4.515625 0.71875zm12.841843 0.171875l-1.65625 -4.21875q1.359375 -0.46875 2.28125 -1.25q0.921875 -0.796875 1.46875 -2.046875q0.5625 -1.265625 0.8125 -3.09375q0.25 -1.84375 0.25 -4.40625l0 -6.437496l16.812515 0l0 20.859371l-5.328125 0l0 -16.671875l-6.5781403 0l0 2.421875q0 3.375 -0.46875 5.9375q-0.46875 2.546875 -1.4375 4.34375q-0.953125 1.796875 -2.484375 2.921875q-1.53125 1.125 -3.671875 1.640625zm36.340744 -0.171875q-3.53125 0 -6.09375 -1.3125q-2.5625 -1.328125 -3.953125 -3.75q-1.375 -2.4375 -1.375 -5.765625q0 -3.25 1.34375 -5.671875q1.34375 -2.4374962 3.703125 -3.8124962q2.375 -1.390625 5.40625 -1.390625q2.984375 0 5.109375 1.28125q2.140625 1.28125 3.3125 3.6249962q1.171875 2.34375 1.171875 5.578125l0 1.578125l-15.75 0l0 -3.0625l12.0 0l-0.6875 0.640625q0 -2.90625 -1.28125 -4.453125q-1.28125 -1.5624962 -3.671875 -1.5624962q-1.78125 0 -3.046875 0.8281212q-1.25 0.828125 -1.921875 2.34375q-0.65625 1.515625 -0.65625 3.609375l0 0.296875q0 2.34375 0.71875 3.890625q0.734375 1.53125 2.171875 2.296875q1.453125 0.765625 3.59375 0.765625q1.75 0 3.5 -0.53125q1.75 -0.53125 3.1875 -1.6875l1.5 3.578125q-1.5 1.234375 -3.765625 1.96875q-2.25 0.71875 -4.515625 0.71875zm13.404358 -0.421875l0 -20.859371l11.265625 0q2.6875 0 4.359375 0.640625q1.6875 0.640625 2.453125 1.859375q0.765625 1.2187462 0.765625 2.9531212q0 1.96875 -1.34375 3.3125q-1.34375 1.34375 -3.546875 1.640625l0 -0.59375q1.875 0.078125 3.109375 0.765625q1.234375 0.6875 1.875 1.8125q0.640625 1.125 0.640625 2.625q0 2.6875 -2.046875 4.265625q-2.046875 1.578125 -5.9375 1.578125l-11.59375 0zm4.953125 -3.28125l6.171875 0q1.75 0 2.671875 -0.71875q0.921875 -0.734375 0.921875 -2.140625q0 -1.40625 -0.921875 -2.125q-0.921875 -0.734375 -2.671875 -0.734375l-6.171875 0l0 5.71875zm0 -9.0l5.796875 0q1.53125 0 2.375 -0.703125q0.859375 -0.703125 0.859375 -1.984375q0 -1.28125 -0.859375 -1.9375q-0.84375 -0.6718712 -2.375 -0.6718712l-5.796875 0l0 5.296871zm26.181824 12.703125q-2.265625 0 -4.03125 -0.875q-1.765625 -0.875 -2.78125 -2.359375q-1.0 -1.5 -1.0 -3.375q0 -2.296875 1.1875 -3.640625q1.203125 -1.34375 3.890625 -1.9375q2.6875 -0.609375 7.21875 -0.609375l2.125 0l0 3.078125l-2.09375 0q-2.0 0 -3.375 0.15625q-1.359375 0.140625 -2.1875 0.46875q-0.828125 0.3125 -1.203125 0.875q-0.359375 0.546875 -0.359375 1.359375q0 1.40625 0.984375 2.3125q0.984375 0.890625 2.734375 0.890625q1.40625 0 2.484375 -0.65625q1.09375 -0.671875 1.734375 -1.828125q0.640625 -1.15625 0.640625 -2.640625l0 -4.90625q0 -2.140625 -0.9375 -3.078125q-0.9375 -0.9374962 -3.15625 -0.9374962q-1.75 0 -3.59375 0.5468712q-1.828125 0.53125 -3.703125 1.640625l-1.53125 -3.6249962q1.109375 -0.78125 2.625 -1.34375q1.515625 -0.578125 3.1875 -0.890625q1.6875 -0.328125 3.1875 -0.328125q3.078125 0 5.046875 0.9375q1.984375 0.9375 2.96875 2.84375q0.984375 1.8906212 0.984375 4.874996l0 12.625l-4.984375 0l0 -4.4375l0.328125 0q-0.296875 1.5 -1.171875 2.59375q-0.875 1.078125 -2.203125 1.671875q-1.3125 0.59375 -3.015625 0.59375zm15.22699 -0.421875l3.109375 -5.375q0.8125 -1.453125 2.046875 -2.328125q1.25 -0.875 2.5625 -0.875l0.859375 0l0 0.46875q-2.4375 0 -4.140625 -0.71875q-1.703125 -0.734375 -2.578125 -2.140625q-0.875 -1.40625 -0.875 -3.40625q0 -3.0312462 2.046875 -4.749996q2.046875 -1.734375 6.015625 -1.734375l10.625 0l0 20.859371l-4.953125 0l0 -7.203125l-2.21875 0q-1.28125 0 -2.21875 0.6875q-0.9375 0.671875 -1.53125 1.703125l-2.734375 4.8125l-6.015625 0zm10.15625 -10.703125l4.5625 0l0 -6.656246l-4.5625 0q-2.09375 0 -3.125 0.8749962q-1.015625 0.875 -1.015625 2.40625q0 1.578125 1.015625 2.484375q1.03125 0.890625 3.125 0.890625zm33.99417 11.125q-2.265625 0 -4.03125 -0.875q-1.765625 -0.875 -2.78125 -2.359375q-1.0 -1.5 -1.0 -3.375q0 -2.296875 1.1875 -3.640625q1.203125 -1.34375 3.890625 -1.9375q2.6875 -0.609375 7.21875 -0.609375l2.125 0l0 3.078125l-2.09375 0q-2.0 0 -3.375 0.15625q-1.359375 0.140625 -2.1875 0.46875q-0.828125 0.3125 -1.203125 0.875q-0.359375 0.546875 -0.359375 1.359375q0 1.40625 0.984375 2.3125q0.984375 0.890625 2.734375 0.890625q1.40625 0 2.484375 -0.65625q1.09375 -0.671875 1.734375 -1.828125q0.640625 -1.15625 0.640625 -2.640625l0 -4.90625q0 -2.140625 -0.9375 -3.078125q-0.9375 -0.9374962 -3.15625 -0.9374962q-1.75 0 -3.59375 0.5468712q-1.828125 0.53125 -3.703125 1.640625l-1.53125 -3.6249962q1.109375 -0.78125 2.625 -1.34375q1.515625 -0.578125 3.1875 -0.890625q1.6875 -0.328125 3.1875 -0.328125q3.078125 0 5.046875 0.9375q1.984375 0.9375 2.96875 2.84375q0.984375 1.8906212 0.984375 4.874996l0 12.625l-4.984375 0l0 -4.4375l0.328125 0q-0.296875 1.5 -1.171875 2.59375q-0.875 1.078125 -2.203125 1.671875q-1.3125 0.59375 -3.015625 0.59375zm18.94574 7.25l4.34375 -9.59375l0 2.21875l-9.171875 -21.156246l5.671875 0l6.484375 16.171871l-1.28125 0l6.609375 -16.171871l5.375 0l-12.53125 28.531246l-5.5 0zm18.550568 -2.125l0 -9.734375l2.390625 0q0.84375 -1.3125 1.328125 -2.828125q0.5 -1.515625 0.734375 -3.453125q0.234375 -1.9375 0.234375 -4.453125l0 -5.937496l16.25 0l0 16.671871l3.421875 0l0 9.734375l-4.53125 0l0 -5.546875l-15.3125 0l0 5.546875l-4.515625 0zm7.203125 -9.734375l8.75 0l0 -12.578125l-6.703125 0l0 3.078125q0 2.6875 -0.53125 5.203125q-0.53125 2.515625 -1.515625 4.296875zm21.080292 4.1875l0 -20.859371l4.8125 0l0 15.406246l-1.109375 0l11.5625 -15.406246l4.4375 0l0 20.859371l-4.8125 0l0 -15.4375l1.140625 0l-11.59375 15.4375l-4.4375 0zm30.154938 0l0 -16.671875l-7.125 0l0 -4.187496l19.625 0l0 4.187496l-7.171875 0l0 16.671875l-5.328125 0zm25.119293 0.421875q-3.234375 0 -5.625 -1.3125q-2.390625 -1.328125 -3.71875 -3.78125q-1.3125 -2.453125 -1.3125 -5.78125q0 -3.328125 1.3125 -5.75q1.328125 -2.4374962 3.71875 -3.7499962q2.390625 -1.328125 5.625 -1.328125q3.25 0 5.6249695 1.328125q2.390625 1.3125 3.71875 3.7499962q1.328125 2.421875 1.328125 5.75q0 3.328125 -1.328125 5.78125q-1.328125 2.453125 -3.71875 3.78125q-2.3749695 1.3125 -5.6249695 1.3125zm0 -4.046875q2.390625 0 3.84375 -1.71875q1.4530945 -1.734375 1.4530945 -5.15625q0 -3.359375 -1.4530945 -5.046875q-1.453125 -1.6875 -3.84375 -1.6875q-2.390625 0 -3.84375 1.6875q-1.4375 1.6875 -1.4375 5.046875q0 3.421875 1.4375 5.15625q1.453125 1.71875 3.84375 1.71875zm15.65152 11.296875l0 -28.531246l5.21875 0l0 4.390621l-0.4375 0q0.640625 -2.1718712 2.625 -3.4843712q1.984375 -1.328125 4.625 -1.328125q2.734375 0 4.796875 1.328125q2.078125 1.3125 3.21875 3.7187462q1.15625 2.40625 1.15625 5.78125q0 3.328125 -1.15625 5.78125q-1.140625 2.453125 -3.1875 3.78125q-2.046875 1.3125 -4.828125 1.3125q-2.59375 0 -4.5625 -1.296875q-1.953125 -1.296875 -2.640625 -3.390625l0.515625 0l0 11.9375l-5.34375 0zm10.546875 -11.296875q2.390625 0 3.828125 -1.71875q1.453125 -1.734375 1.453125 -5.109375q0 -3.40625 -1.453125 -5.09375q-1.4375 -1.6875 -3.828125 -1.6875q-2.390625 0 -3.84375 1.6875q-1.453125 1.6875 -1.453125 5.09375q0 3.375 1.453125 5.109375q1.453125 1.71875 3.84375 1.71875zm15.612793 3.625l0 -20.859371l4.8125 0l0 15.406246l-1.109375 0l11.5625 -15.406246l4.4375 0l0 20.859371l-4.8125 0l0 -15.4375l1.140625 0l-11.59375 15.4375l-4.4375 0zm23.967468 0l3.109375 -5.375q0.8125 -1.453125 2.046875 -2.328125q1.25 -0.875 2.5625 -0.875l0.859375 0l0 0.46875q-2.4375 0 -4.140625 -0.71875q-1.703125 -0.734375 -2.578125 -2.140625q-0.875 -1.40625 -0.875 -3.40625q0 -3.0312462 2.046875 -4.749996q2.046875 -1.734375 6.015625 -1.734375l10.625 0l0 20.859371l-4.953125 0l0 -7.203125l-2.21875 0q-1.28125 0 -2.21875 0.6875q-0.9375 0.671875 -1.53125 1.703125l-2.734375 4.8125l-6.015625 0zm10.15625 -10.703125l4.5625 0l0 -6.656246l-4.5625 0q-2.09375 0 -3.125 0.8749962q-1.015625 0.875 -1.015625 2.40625q0 1.578125 1.015625 2.484375q1.03125 0.890625 3.125 0.890625zm27.33789 10.703125l0 -30.078121l5.078125 0l0 22.437496l-0.984375 0l17.15625 -22.437496l4.09375 0l0 30.078121l-5.078125 0l0 -22.484371l0.9375 0l-17.140625 22.484371l-4.0625 0zm45.9068 0.421875q-4.703125 0 -8.046875 -1.890625q-3.34375 -1.90625 -5.140625 -5.375q-1.796875 -3.484375 -1.796875 -8.21875q0 -4.734371 1.796875 -8.187496q1.796875 -3.453125 5.140625 -5.34375q3.34375 -1.90625 8.046875 -1.90625q3.015625 0 5.71875 0.9375q2.71875 0.9375 4.46875 2.6875l-1.796875 4.359375q-1.90625 -1.625 -3.921875 -2.375q-2.0 -0.75 -4.296875 -0.75q-4.578125 0 -6.96875 2.75q-2.375 2.75 -2.375 7.828121q0 5.078125 2.375 7.859375q2.390625 2.765625 6.96875 2.765625q2.296875 0 4.296875 -0.734375q2.015625 -0.75 3.921875 -2.375l1.796875 4.34375q-1.75 1.703125 -4.46875 2.671875q-2.703125 0.953125 -5.71875 0.953125zm11.089172 -0.421875l13.609375 -30.078121l4.46875 0l13.609375 30.078121l-5.546875 0l-3.625 -8.453125l2.3125 1.5l-18.0 0l2.296875 -1.5l-3.578125 8.453125l-5.546875 0zm15.78125 -24.140621l-5.96875 14.203121l-1.109375 -1.359375l14.234375 0l-1.0625 1.359375l-6.015625 -14.203121l-0.078125 0zm19.189331 24.140621l0 -30.078121l5.46875 0l0 12.546875l15.484375 0l0 -12.546875l5.453125 0l0 30.078121l-5.453125 0l0 -12.96875l-15.484375 0l0 12.96875l-5.46875 0zm30.285767 7.03125l0 -11.375l2.984375 0q1.375 -1.71875 2.265625 -4.234375q0.890625 -2.515625 1.3125 -5.921875q0.4375 -3.4218712 0.4375 -7.718746l0 -7.859375l21.28125 0l0 25.734371l4.265625 0l0 11.375l-4.859375 0l0 -7.03125l-22.828125 0l0 7.03125l-4.859375 0zm8.53125 -11.375l14.25 0l0 -21.374996l-10.703125 0l0 4.0q0 4.109375 -0.390625 7.328121q-0.375 3.21875 -1.171875 5.6875q-0.78125 2.46875 -1.984375 4.359375z" fill-rule="nonzero"/></g></svg>