<svg version="1.1" viewBox="0.0 0.0 960.0 540.0" fill="none" stroke="none" stroke-linecap="square" stroke-miterlimit="10" xmlns:xlink="http://www.w3.org/1999/xlink" xmlns="http://www.w3.org/2000/svg"><clipPath id="g2b90f0cbf69_0_88.0"><path d="m0 0l960.0 0l0 540.0l-960.0 0l0 -540.0z" clip-rule="nonzero"/></clipPath><g clip-path="url(#g2b90f0cbf69_0_88.0)"><path fill="#1b4596" d="m0 0l960.0 0l0 540.0l-960.0 0z" fill-rule="evenodd"/><path fill="#000000" fill-opacity="0.0" d="m32.72441 225.81102l894.55115 0l0 88.377945l-894.55115 0z" fill-rule="evenodd"/><path fill="#ffffff" d="m125.61879 252.72l0 -50.765625l44.140625 0l0 50.765625l-9.21875 0l0 -43.0625l-25.703125 0l0 43.0625l-9.21875 0zm70.911514 0.71875q-5.46875 0 -9.5 -2.234375q-4.03125 -2.234375 -6.265625 -6.375q-2.234375 -4.140625 -2.234375 -9.75q0 -5.609375 2.234375 -9.71875q2.234375 -4.109375 6.265625 -6.328125q4.03125 -2.234375 9.5 -2.234375q5.46875 0 9.5 2.234375q4.03125 2.21875 6.265625 6.328125q2.234375 4.109375 2.234375 9.71875q0 5.609375 -2.234375 9.75q-2.234375 4.140625 -6.265625 6.375q-4.03125 2.234375 -9.5 2.234375zm0 -6.84375q4.03125 0 6.46875 -2.90625q2.453125 -2.921875 2.453125 -8.6875q0 -5.6875 -2.453125 -8.53125q-2.4375 -2.84375 -6.46875 -2.84375q-4.03125 0 -6.484375 2.84375q-2.4375 2.84375 -2.4375 8.53125q0 5.765625 2.4375 8.6875q2.453125 2.90625 6.484375 2.90625zm23.120636 15.484375l0 -16.421875l4.03125 0q1.4375 -2.21875 2.265625 -4.78125q0.828125 -2.5625 1.21875 -5.828125q0.40625 -3.28125 0.40625 -7.53125l0 -10.0l27.421875 0l0 28.140625l5.765625 0l0 16.421875l-7.625 0l0 -9.359375l-25.859375 0l0 9.359375l-7.625 0zm12.171875 -16.421875l14.75 0l0 -21.234375l-11.296875 0l0 5.1875q0 4.53125 -0.90625 8.78125q-0.890625 4.25 -2.546875 7.265625zm35.636627 20.015625l0 -48.15625l8.78125 0l0 7.40625l-0.71875 0q1.078125 -3.671875 4.421875 -5.890625q3.34375 -2.234375 7.8125 -2.234375q4.609375 0 8.09375 2.234375q3.5 2.21875 5.4375 6.296875q1.953125 4.0625 1.953125 9.75q0 5.609375 -1.953125 9.75q-1.9375 4.140625 -5.40625 6.375q-3.453125 2.234375 -8.125 2.234375q-4.390625 0 -7.703125 -2.1875q-3.3125 -2.203125 -4.46875 -5.734375l0.875 0l0 20.15625l-9.0 0zm17.78125 -19.078125q4.03125 0 6.46875 -2.90625q2.453125 -2.921875 2.453125 -8.609375q0 -5.765625 -2.453125 -8.609375q-2.4375 -2.84375 -6.46875 -2.84375q-4.03125 0 -6.484375 2.84375q-2.453125 2.84375 -2.453125 8.609375q0 5.6875 2.453125 8.609375q2.453125 2.90625 6.484375 2.90625zm42.473633 6.84375q-5.46875 0 -9.5 -2.234375q-4.03125 -2.234375 -6.265625 -6.375q-2.234375 -4.140625 -2.234375 -9.75q0 -5.609375 2.234375 -9.71875q2.234375 -4.109375 6.265625 -6.328125q4.03125 -2.234375 9.5 -2.234375q5.46875 0 9.5 2.234375q4.03125 2.21875 6.265625 6.328125q2.234375 4.109375 2.234375 9.71875q0 5.609375 -2.234375 9.75q-2.234375 4.140625 -6.265625 6.375q-4.03125 2.234375 -9.5 2.234375zm0 -6.84375q4.03125 0 6.46875 -2.90625q2.453125 -2.921875 2.453125 -8.6875q0 -5.6875 -2.453125 -8.53125q-2.4375 -2.84375 -6.46875 -2.84375q-4.03125 0 -6.484375 2.84375q-2.4375 2.84375 -2.4375 8.53125q0 5.765625 2.4375 8.6875q2.453125 2.90625 6.484375 2.90625zm42.839417 6.84375q-5.609375 0 -9.75 -2.296875q-4.140625 -2.3125 -6.375 -6.875q-2.234375 -4.578125 -2.234375 -11.28125l0 -5.25q0 -4.25 0.75 -7.671875q0.765625 -3.421875 2.3125 -6.046875q1.546875 -2.625 3.8125 -4.640625q2.28125 -2.015625 5.265625 -3.375q2.984375 -1.375 6.734375 -2.3125l12.3125 -3.03125l2.65625 7.140625l-14.328125 3.375q-5.390625 1.296875 -8.203125 4.796875q-2.8125 3.484375 -2.8125 8.8125l0 3.890625l-1.21875 0q0.71875 -3.09375 2.484375 -5.546875q1.765625 -2.453125 4.5625 -3.84375q2.8125 -1.40625 6.5625 -1.40625q3.3125 0 6.078125 1.21875q2.765625 1.21875 4.78125 3.5q2.03125 2.265625 3.140625 5.46875q1.109375 3.203125 1.109375 7.234375q0 5.546875 -2.203125 9.609375q-2.1875 4.0625 -6.15625 6.296875q-3.953125 2.234375 -9.28125 2.234375zm-0.359375 -6.84375q4.25 0 6.59375 -2.796875q2.34375 -2.8125 2.34375 -8.140625q0 -5.25 -2.34375 -8.09375q-2.34375 -2.859375 -6.59375 -2.859375q-4.171875 0 -6.546875 2.8125q-2.375 2.8125 -2.375 7.78125q0 5.546875 2.328125 8.421875q2.34375 2.875 6.59375 2.875zm26.355011 6.125l0 -35.203125l9.0 0l0 13.609375l15.546875 0l0 -13.609375l9.0 0l0 35.203125l-9.0 0l0 -14.546875l-15.546875 0l0 14.546875l-9.0 0zm61.197876 0.71875q-5.96875 0 -10.296875 -2.234375q-4.3125 -2.234375 -6.65625 -6.328125q-2.34375 -4.109375 -2.34375 -9.71875q0 -5.484375 2.265625 -9.578125q2.265625 -4.109375 6.265625 -6.4375q4.0 -2.34375 9.109375 -2.34375q5.046875 0 8.640625 2.15625q3.59375 2.15625 5.578125 6.125q1.984375 3.953125 1.984375 9.421875l0 2.671875l-26.5625 0l0 -5.1875l20.21875 0l-1.140625 1.078125q0 -4.890625 -2.171875 -7.515625q-2.15625 -2.640625 -6.1875 -2.640625q-3.015625 0 -5.140625 1.40625q-2.125 1.40625 -3.25 3.96875q-1.109375 2.546875 -1.109375 6.078125l0 0.5q0 3.96875 1.21875 6.5625q1.234375 2.578125 3.671875 3.875q2.453125 1.296875 6.046875 1.296875q2.953125 0 5.90625 -0.890625q2.953125 -0.90625 5.40625 -2.84375l2.515625 6.046875q-2.515625 2.078125 -6.34375 3.3125q-3.8125 1.21875 -7.625 1.21875zm40.032013 0q-5.96875 0 -10.296875 -2.234375q-4.3125 -2.234375 -6.65625 -6.328125q-2.34375 -4.109375 -2.34375 -9.71875q0 -5.484375 2.265625 -9.578125q2.265625 -4.109375 6.265625 -6.4375q4.0 -2.34375 9.109375 -2.34375q5.046875 0 8.640625 2.15625q3.59375 2.15625 5.578125 6.125q1.9844055 3.953125 1.9844055 9.421875l0 2.671875l-26.56253 0l0 -5.1875l20.21875 0l-1.140625 1.078125q0 -4.890625 -2.171875 -7.515625q-2.15625 -2.640625 -6.1875 -2.640625q-3.015625 0 -5.140625 1.40625q-2.125 1.40625 -3.25 3.96875q-1.109375 2.546875 -1.109375 6.078125l0 0.5q0 3.96875 1.21875 6.5625q1.234375 2.578125 3.671875 3.875q2.453125 1.296875 6.046875 1.296875q2.953125 0 5.90625 -0.890625q2.953125 -0.90625 5.40625 -2.84375l2.515625 6.046875q-2.515625 2.078125 -6.34375 3.3125q-3.8125 1.21875 -7.625 1.21875zm58.17514 0q-5.46875 0 -9.5 -2.234375q-4.03125 -2.234375 -6.265625 -6.375q-2.234375 -4.140625 -2.234375 -9.75q0 -5.609375 2.234375 -9.71875q2.234375 -4.109375 6.265625 -6.328125q4.03125 -2.234375 9.5 -2.234375q5.46875 0 9.5 2.234375q4.03125 2.21875 6.265625 6.328125q2.234375 4.109375 2.234375 9.71875q0 5.609375 -2.234375 9.75q-2.234375 4.140625 -6.265625 6.375q-4.03125 2.234375 -9.5 2.234375zm0 -6.84375q4.03125 0 6.46875 -2.90625q2.453125 -2.921875 2.453125 -8.6875q0 -5.6875 -2.453125 -8.53125q-2.4375 -2.84375 -6.46875 -2.84375q-4.03125 0 -6.484375 2.84375q-2.4375 2.84375 -2.4375 8.53125q0 5.765625 2.4375 8.6875q2.453125 2.90625 6.484375 2.90625zm45.87317 19.078125l0 -48.15625l8.78125 0l0 7.40625l-0.71875 0q1.078125 -3.671875 4.421875 -5.890625q3.34375 -2.234375 7.8125 -2.234375q4.609375 0 8.09375 2.234375q3.5 2.21875 5.4375 6.296875q1.953125 4.0625 1.953125 9.75q0 5.609375 -1.953125 9.75q-1.9375 4.140625 -5.40625 6.375q-3.453125 2.234375 -8.125 2.234375q-4.390625 0 -7.703125 -2.1875q-3.3125 -2.203125 -4.46875 -5.734375l0.875 0l0 20.15625l-9.0 0zm17.78125 -19.078125q4.03125 0 6.46875 -2.90625q2.453125 -2.921875 2.453125 -8.609375q0 -5.765625 -2.453125 -8.609375q-2.4375 -2.84375 -6.46875 -2.84375q-4.03125 0 -6.484375 2.84375q-2.453125 2.84375 -2.453125 8.609375q0 5.6875 2.453125 8.609375q2.453125 2.90625 6.484375 2.90625zm38.004883 6.84375q-3.8125 0 -6.796875 -1.46875q-2.984375 -1.484375 -4.6875 -4.0q-1.6875 -2.515625 -1.6875 -5.6875q0 -3.890625 2.015625 -6.15625q2.015625 -2.265625 6.546875 -3.265625q4.546875 -1.015625 12.171875 -1.015625l3.609375 0l0 5.171875l-3.53125 0q-3.390625 0 -5.703125 0.265625q-2.296875 0.25 -3.703125 0.796875q-1.390625 0.53125 -2.015625 1.46875q-0.609375 0.9375 -0.609375 2.296875q0 2.375 1.65625 3.890625q1.65625 1.515625 4.609375 1.515625q2.375 0 4.203125 -1.109375q1.84375 -1.125 2.921875 -3.0625q1.09375 -1.953125 1.09375 -4.46875l0 -8.28125q0 -3.59375 -1.59375 -5.171875q-1.578125 -1.59375 -5.328125 -1.59375q-2.953125 0 -6.046875 0.90625q-3.09375 0.890625 -6.265625 2.765625l-2.59375 -6.125q1.875 -1.296875 4.421875 -2.265625q2.5625 -0.96875 5.40625 -1.5q2.84375 -0.546875 5.375 -0.546875q5.171875 0 8.515625 1.578125q3.359375 1.578125 5.015625 4.78125q1.65625 3.203125 1.65625 8.25l0 21.3125l-8.421875 0l0 -7.484375l0.578125 0q-0.515625 2.515625 -2.0 4.359375q-1.46875 1.828125 -3.703125 2.84375q-2.21875 1.0 -5.109375 1.0zm45.220215 0q-5.609375 0 -9.75 -2.296875q-4.140625 -2.3125 -6.375 -6.875q-2.234375 -4.578125 -2.234375 -11.28125l0 -5.25q0 -4.25 0.75 -7.671875q0.765625 -3.421875 2.3125 -6.046875q1.546875 -2.625 3.8125 -4.640625q2.28125 -2.015625 5.265625 -3.375q2.984375 -1.375 6.734375 -2.3125l12.3125 -3.03125l2.65625 7.140625l-14.328125 3.375q-5.390625 1.296875 -8.203125 4.796875q-2.8125 3.484375 -2.8125 8.8125l0 3.890625l-1.21875 0q0.71875 -3.09375 2.484375 -5.546875q1.765625 -2.453125 4.5625 -3.84375q2.8125 -1.40625 6.5625 -1.40625q3.3125 0 6.078125 1.21875q2.765625 1.21875 4.78125 3.5q2.03125 2.265625 3.140625 5.46875q1.109375 3.203125 1.109375 7.234375q0 5.546875 -2.203125 9.609375q-2.1875 4.0625 -6.15625 6.296875q-3.953125 2.234375 -9.28125 2.234375zm-0.359375 -6.84375q4.25 0 6.59375 -2.796875q2.34375 -2.8125 2.34375 -8.140625q0 -5.25 -2.34375 -8.09375q-2.34375 -2.859375 -6.59375 -2.859375q-4.171875 0 -6.546875 2.8125q-2.375 2.8125 -2.375 7.78125q0 5.546875 2.328125 8.421875q2.34375 2.875 6.59375 2.875zm42.47998 6.84375q-5.46875 0 -9.5 -2.234375q-4.03125 -2.234375 -6.265625 -6.375q-2.234375 -4.140625 -2.234375 -9.75q0 -5.609375 2.234375 -9.71875q2.234375 -4.109375 6.265625 -6.328125q4.03125 -2.234375 9.5 -2.234375q5.46875 0 9.5 2.234375q4.03125 2.21875 6.265625 6.328125q2.234375 4.109375 2.234375 9.71875q0 5.609375 -2.234375 9.75q-2.234375 4.140625 -6.265625 6.375q-4.03125 2.234375 -9.5 2.234375zm0 -6.84375q4.03125 0 6.46875 -2.90625q2.453125 -2.921875 2.453125 -8.6875q0 -5.6875 -2.453125 -8.53125q-2.4375 -2.84375 -6.46875 -2.84375q-4.03125 0 -6.484375 2.84375q-2.4375 2.84375 -2.4375 8.53125q0 5.765625 2.4375 8.6875q2.453125 2.90625 6.484375 2.90625zm33.776855 6.125l0 -28.15625l-12.03125 0l0 -7.046875l33.125 0l0 7.046875l-12.09375 0l0 28.15625l-9.0 0zm43.696045 0.71875q-5.96875 0 -10.296875 -2.234375q-4.3125 -2.234375 -6.65625 -6.328125q-2.34375 -4.109375 -2.34375 -9.71875q0 -5.484375 2.265625 -9.578125q2.265625 -4.109375 6.265625 -6.4375q4.0 -2.34375 9.109375 -2.34375q5.046875 0 8.640625 2.15625q3.59375 2.15625 5.578125 6.125q1.984375 3.953125 1.984375 9.421875l0 2.671875l-26.5625 0l0 -5.1875l20.21875 0l-1.140625 1.078125q0 -4.890625 -2.171875 -7.515625q-2.15625 -2.640625 -6.1875 -2.640625q-3.015625 0 -5.140625 1.40625q-2.125 1.40625 -3.25 3.96875q-1.109375 2.546875 -1.109375 6.078125l0 0.5q0 3.96875 1.21875 6.5625q1.234375 2.578125 3.671875 3.875q2.453125 1.296875 6.046875 1.296875q2.953125 0 5.90625 -0.890625q2.953125 -0.90625 5.40625 -2.84375l2.515625 6.046875q-2.515625 2.078125 -6.34375 3.3125q-3.8125 1.21875 -7.625 1.21875z" fill-rule="nonzero"/><path fill="#ffffff" d="m351.33884 339.12l0 -50.765625l8.5625 0l0 37.875l-1.65625 0l28.953125 -37.875l6.90625 0l0 50.765625l-8.5625 0l0 -37.9375l1.578125 0l-28.9375 37.9375l-6.84375 0zm77.46539 0.71875q-7.921875 0 -13.578125 -3.203125q-5.640625 -3.203125 -8.671875 -9.0625q-3.015625 -5.875 -3.015625 -13.875q0 -7.984375 3.015625 -13.8125q3.03125 -5.84375 8.671875 -9.046875q5.65625 -3.203125 13.578125 -3.203125q5.109375 0 9.6875 1.59375q4.578125 1.578125 7.53125 4.53125l-3.03125 7.34375q-3.234375 -2.734375 -6.625 -3.984375q-3.375 -1.265625 -7.265625 -1.265625q-7.703125 0 -11.734375 4.640625q-4.03125 4.640625 -4.03125 13.203125q0 8.578125 4.03125 13.265625q4.03125 4.671875 11.734375 4.671875q3.890625 0 7.265625 -1.265625q3.390625 -1.265625 6.625 -4.0l3.03125 7.34375q-2.953125 2.890625 -7.53125 4.515625q-4.578125 1.609375 -9.6875 1.609375zm18.729889 -0.71875l22.96875 -50.765625l7.546875 0l22.96875 50.765625l-9.359375 0l-6.109375 -14.25l3.875 2.515625l-30.375 0l3.890625 -2.515625l-6.046875 14.25l-9.359375 0zm26.640625 -40.75l-10.09375 23.96875l-1.859375 -2.296875l24.046875 0l-1.796875 2.296875l-10.15625 -23.96875l-0.140625 0zm32.39615 40.75l0 -50.765625l9.2187805 0l0 21.171875l26.125 0l0 -21.171875l9.21875 0l0 50.765625l-9.21875 0l0 -21.890625l-26.125 0l0 21.890625l-9.2187805 0zm51.124786 11.875l0 -19.21875l5.03125 0q2.3125 -2.875 3.8125 -7.125q1.515625 -4.25 2.234375 -10.0q0.71875 -5.765625 0.71875 -13.046875l0 -13.25l35.9375 0l0 43.421875l7.1875 0l0 19.21875l-8.203125 0l0 -11.875l-38.515625 0l0 11.875l-8.203125 0zm14.390625 -19.21875l24.046875 0l0 -36.078125l-18.0625 0l0 6.78125q0 6.90625 -0.65625 12.34375q-0.640625 5.4375 -1.984375 9.609375q-1.328125 4.171875 -3.34375 7.34375z" fill-rule="nonzero"/><path fill="#000000" fill-opacity="0.0" d="m889.4969 489.57657l57.606323 0l0 41.322845l-57.606323 0z" fill-rule="evenodd"/><path fill="#595959" d="m928.247 515.03796l-1.171875 0l0 -7.4687195q-0.421875 0.40625 -1.109375 0.8125q-0.6875 0.40625 -1.234375 0.609375l0 -1.140625q0.984375 -0.453125 1.71875 -1.109375q0.734375 -0.671875 1.03125 -1.28125l0.765625 0l0 9.5780945zm4.8031006 -5.1718445q-0.734375 -0.265625 -1.09375 -0.765625q-0.34375 -0.5 -0.34375 -1.1875q0 -1.03125 0.75 -1.734375q0.75 -0.71875 1.984375 -0.71875q1.25 0 2.015625 0.734375q0.765625 0.71875 0.765625 1.75q0 0.671875 -0.359375 1.171875q-0.34375 0.484375 -1.046875 0.75q0.875 0.28125 1.328125 0.921875q0.46875 0.640625 0.46875 1.5155945q0 1.234375 -0.875 2.0625q-0.859375 0.828125 -2.265625 0.828125q-1.421875 0 -2.28125 -0.828125q-0.859375 -0.84375 -0.859375 -2.09375q0 -0.9218445 0.46875 -1.5468445q0.46875 -0.640625 1.34375 -0.859375zm-0.234375 -1.984375q0 0.671875 0.4375 1.109375q0.4375 0.421875 1.125 0.421875q0.671875 0 1.109375 -0.421875q0.4375 -0.421875 0.4375 -1.046875q0 -0.640625 -0.453125 -1.078125q-0.4375 -0.4375 -1.109375 -0.4375q-0.671875 0 -1.109375 0.4375q-0.4375 0.421875 -0.4375 1.015625zm-0.375 4.4062195q0 0.5 0.234375 0.96875q0.234375 0.46875 0.703125 0.734375q0.46875 0.25 1.015625 0.25q0.828125 0 1.375 -0.53125q0.546875 -0.546875 0.546875 -1.390625q0 -0.8437195 -0.5625 -1.3905945q-0.5625 -0.5625 -1.40625 -0.5625q-0.828125 0 -1.375 0.546875q-0.53125 0.546875 -0.53125 1.3749695z" fill-rule="nonzero"/></g></svg>