<svg version="1.1" viewBox="0.0 0.0 960.0 540.0" fill="none" stroke="none" stroke-linecap="square" stroke-miterlimit="10" xmlns:xlink="http://www.w3.org/1999/xlink" xmlns="http://www.w3.org/2000/svg"><clipPath id="g2b8d5f3b2c6_0_391.0"><path d="m0 0l960.0 0l0 540.0l-960.0 0l0 -540.0z" clip-rule="nonzero"/></clipPath><g clip-path="url(#g2b8d5f3b2c6_0_391.0)"><path fill="#1b4596" d="m0 0l960.0 0l0 540.0l-960.0 0z" fill-rule="evenodd"/><path fill="#000000" fill-opacity="0.0" d="m32.72441 225.81102l894.55115 0l0 88.377945l-894.55115 0z" fill-rule="evenodd"/><path fill="#ffffff" d="m329.84183 252.72l0 -19.796875q-1.296875 0.640625 -3.140625 1.109375q-1.828125 0.46875 -3.875 0.71875q-2.046875 0.25 -4.0625 0.25q-9.875 0 -15.203125 -5.328125q-5.328125 -5.328125 -5.328125 -15.984375l0 -11.734375l9.21875 0l0 11.3125q0 7.203125 3.09375 10.515625q3.09375 3.3125 9.21875 3.3125q2.59375 0 5.21875 -0.546875q2.625 -0.546875 4.859375 -1.6875l0 -22.90625l9.21875 0l0 50.765625l-9.21875 0zm27.293396 0l0 -28.15625l-12.03125 0l0 -7.046875l33.125 0l0 7.046875l-12.09375 0l0 28.15625l-9.0 0zm42.39914 0.71875q-5.46875 0 -9.5 -2.234375q-4.03125 -2.234375 -6.265625 -6.375q-2.234375 -4.140625 -2.234375 -9.75q0 -5.609375 2.234375 -9.71875q2.234375 -4.109375 6.265625 -6.328125q4.03125 -2.234375 9.5 -2.234375q5.46875 0 9.5 2.234375q4.03125 2.21875 6.265625 6.328125q2.234375 4.109375 2.234375 9.71875q0 5.609375 -2.234375 9.75q-2.234375 4.140625 -6.265625 6.375q-4.03125 2.234375 -9.5 2.234375zm0 -6.84375q4.03125 0 6.46875 -2.90625q2.453125 -2.921875 2.453125 -8.6875q0 -5.6875 -2.453125 -8.53125q-2.4375 -2.84375 -6.46875 -2.84375q-4.03125 0 -6.484375 2.84375q-2.4375 2.84375 -2.4375 8.53125q0 5.765625 2.4375 8.6875q2.453125 2.90625 6.484375 2.90625zm45.795013 6.125l0 -35.203125l7.421875 0l12.171875 20.796875l12.15625 -20.796875l7.34375 0l0 35.203125l-7.921875 0l0 -24.84375l1.734375 0l-11.234375 19.078125l-4.25 0l-11.234375 -19.078125l1.734375 0l0 24.84375l-7.921875 0zm65.44501 0.71875q-5.46875 0 -9.5 -2.234375q-4.03125 -2.234375 -6.265625 -6.375q-2.234375 -4.140625 -2.234375 -9.75q0 -5.609375 2.234375 -9.71875q2.234375 -4.109375 6.265625 -6.328125q4.03125 -2.234375 9.5 -2.234375q5.4687805 0 9.5000305 2.234375q4.03125 2.21875 6.265625 6.328125q2.234375 4.109375 2.234375 9.71875q0 5.609375 -2.234375 9.75q-2.234375 4.140625 -6.265625 6.375q-4.03125 2.234375 -9.5000305 2.234375zm0 -6.84375q4.0312805 0 6.4687805 -2.90625q2.453125 -2.921875 2.453125 -8.6875q0 -5.6875 -2.453125 -8.53125q-2.4375 -2.84375 -6.4687805 -2.84375q-4.03125 0 -6.484375 2.84375q-2.4375 2.84375 -2.4375 8.53125q0 5.765625 2.4375 8.6875q2.453125 2.90625 6.484375 2.90625zm20.808197 6.125l7.421875 -13.109375q1.296875 -2.296875 2.625 -3.84375q1.328125 -1.546875 2.875 -2.40625q1.5625 -0.875 3.5 -1.09375l-1.65625 2.890625l-13.171875 -17.640625l9.640625 0l10.234375 13.671875l4.234375 0l0 -13.671875l9.0 0l0 13.671875l4.25 0l10.15625 -13.671875l9.640625 0l-13.09375 17.640625l-1.734375 -2.890625q1.953125 0.21875 3.5 1.09375q1.546875 0.859375 2.90625 2.40625q1.375 1.546875 2.671875 3.84375l7.34375 13.109375l-9.578125 0l-5.90625 -10.375q-0.9375 -1.65625 -1.84375 -2.546875q-0.890625 -0.90625 -2.015625 -1.265625q-1.109375 -0.359375 -2.6875 -0.359375l-3.609375 0l0 14.546875l-9.0 0l0 -14.546875l-3.59375 0q-1.578125 0 -2.703125 0.359375q-1.109375 0.359375 -2.015625 1.265625q-0.890625 0.890625 -1.828125 2.546875l-5.90625 10.375l-9.65625 0zm82.440735 0.71875q-5.96875 0 -10.296875 -2.234375q-4.3125 -2.234375 -6.65625 -6.328125q-2.34375 -4.109375 -2.34375 -9.71875q0 -5.484375 2.265625 -9.578125q2.265625 -4.109375 6.265625 -6.4375q4.0 -2.34375 9.109375 -2.34375q5.046875 0 8.640625 2.15625q3.59375 2.15625 5.578125 6.125q1.984375 3.953125 1.984375 9.421875l0 2.671875l-26.5625 0l0 -5.1875l20.21875 0l-1.140625 1.078125q0 -4.890625 -2.171875 -7.515625q-2.15625 -2.640625 -6.1875 -2.640625q-3.015625 0 -5.140625 1.40625q-2.125 1.40625 -3.25 3.96875q-1.109375 2.546875 -1.109375 6.078125l0 0.5q0 3.96875 1.21875 6.5625q1.234375 2.578125 3.671875 3.875q2.453125 1.296875 6.046875 1.296875q2.953125 0 5.90625 -0.890625q2.953125 -0.90625 5.40625 -2.84375l2.515625 6.046875q-2.515625 2.078125 -6.34375 3.3125q-3.8125 1.21875 -7.625 1.21875zm30.032043 -0.71875l0 -28.15625l-12.03125 0l0 -7.046875l33.125 0l0 7.046875l-12.09375 0l0 28.15625l-9.0 0z" fill-rule="nonzero"/><path fill="#ffffff" d="m334.81482 339.12l0 -50.765625l8.5625 0l0 37.875l-1.65625 0l28.953125 -37.875l6.90625 0l0 50.765625l-8.5625 0l0 -37.9375l1.578125 0l-28.9375 37.9375l-6.84375 0zm77.46539 0.71875q-7.921875 0 -13.578125 -3.203125q-5.640625 -3.203125 -8.671875 -9.0625q-3.015625 -5.875 -3.015625 -13.875q0 -7.984375 3.015625 -13.8125q3.03125 -5.84375 8.671875 -9.046875q5.65625 -3.203125 13.578125 -3.203125q5.109375 0 9.6875 1.59375q4.578125 1.578125 7.53125 4.53125l-3.03125 7.34375q-3.234375 -2.734375 -6.625 -3.984375q-3.375 -1.265625 -7.265625 -1.265625q-7.703125 0 -11.734375 4.640625q-4.03125 4.640625 -4.03125 13.203125q0 8.578125 4.03125 13.265625q4.03125 4.671875 11.734375 4.671875q3.890625 0 7.265625 -1.265625q3.390625 -1.265625 6.625 -4.0l3.03125 7.34375q-2.953125 2.890625 -7.53125 4.515625q-4.578125 1.609375 -9.6875 1.609375zm18.729889 -0.71875l22.96875 -50.765625l7.546875 0l22.96875 50.765625l-9.359375 0l-6.109375 -14.25l3.875 2.515625l-30.375 0l3.890625 -2.515625l-6.046875 14.25l-9.359375 0zm26.640625 -40.75l-10.09375 23.96875l-1.859375 -2.296875l24.046875 0l-1.796875 2.296875l-10.15625 -23.96875l-0.140625 0zm32.39615 40.75l0 -50.765625l9.21875 0l0 21.171875l26.125 0l0 -21.171875l9.21875 0l0 50.765625l-9.21875 0l0 -21.890625l-26.125 0l0 21.890625l-9.21875 0zm51.124817 11.875l0 -19.21875l5.03125 0q2.3125 -2.875 3.8125 -7.125q1.515625 -4.25 2.234375 -10.0q0.71875 -5.765625 0.71875 -13.046875l0 -13.25l35.9375 0l0 43.421875l7.1875 0l0 19.21875l-8.203125 0l0 -11.875l-38.515625 0l0 11.875l-8.203125 0zm14.390625 -19.21875l24.046875 0l0 -36.078125l-18.0625 0l0 6.78125q0 6.90625 -0.65625 12.34375q-0.640625 5.4375 -1.984375 9.609375q-1.328125 4.171875 -3.34375 7.34375zm55.29358 -7.703125l0 -2.875q0 -2.234375 0.53125 -4.25q0.546875 -2.015625 1.765625 -4.03125q1.234375 -2.015625 3.25 -4.25q1.515625 -1.734375 2.40625 -3.0625q0.90625 -1.328125 1.296875 -2.546875q0.40625 -1.234375 0.40625 -2.53125q0 -1.578125 -0.796875 -2.734375q-0.796875 -1.15625 -2.28125 -1.765625q-1.46875 -0.609375 -3.546875 -0.609375q-3.609375 0 -6.84375 1.296875q-3.234375 1.296875 -6.1875 3.890625l-3.03125 -6.921875q2.015625 -1.859375 4.71875 -3.1875q2.703125 -1.34375 5.765625 -2.09375q3.0625 -0.765625 6.15625 -0.765625q4.53125 0 7.953125 1.515625q3.421875 1.515625 5.328125 4.1875q1.90625 2.65625 1.90625 6.25q0 2.234375 -0.65625 4.21875q-0.640625 1.96875 -2.078125 3.953125q-1.4375 1.984375 -3.96875 4.28125q-2.21875 2.015625 -3.5625 3.75q-1.328125 1.734375 -1.9375 3.25q-0.609375 1.5 -0.828125 3.015625l-0.296875 2.015625l-5.46875 0zm-2.296875 15.046875l0 -10.015625l10.078125 0l0 10.015625l-10.078125 0z" fill-rule="nonzero"/></g></svg>