<svg version="1.1" viewBox="0.0 0.0 960.0 540.0" fill="none" stroke="none" stroke-linecap="square" stroke-miterlimit="10" xmlns:xlink="http://www.w3.org/1999/xlink" xmlns="http://www.w3.org/2000/svg"><clipPath id="g2c78ebc0c72_1_182.0"><path d="m0 0l960.0 0l0 540.0l-960.0 0l0 -540.0z" clip-rule="nonzero"/></clipPath><g clip-path="url(#g2c78ebc0c72_1_182.0)"><path fill="#1b4596" d="m0 0l960.0 0l0 540.0l-960.0 0z" fill-rule="evenodd"/><path fill="#000000" fill-opacity="0.0" d="m32.72441 225.81102l894.55115 0l0 88.377945l-894.55115 0z" fill-rule="evenodd"/><path fill="#ffffff" d="m167.16078 227.51875q-5.546875 0 -10.046875 -1.828125q-4.5 -1.84375 -7.703125 -5.296875q-3.203125 -3.453125 -4.9375 -8.28125q-1.71875 -4.828125 -1.71875 -10.734375q0 -5.96875 1.71875 -10.75q1.734375 -4.796875 4.9375 -8.21875q3.203125 -3.421875 7.703125 -5.25q4.5 -1.84375 10.046875 -1.84375q5.546875 0 10.046875 1.84375q4.5 1.828125 7.703125 5.21875q3.203125 3.375 4.921875 8.171875q1.734375 4.78125 1.734375 10.765625q0 5.96875 -1.734375 10.796875q-1.71875 4.828125 -4.921875 8.28125q-3.203125 3.453125 -7.703125 5.296875q-4.5 1.828125 -10.046875 1.828125zm0 -7.921875q4.671875 0 7.953125 -2.15625q3.28125 -2.15625 5.046875 -6.265625q1.765625 -4.109375 1.765625 -9.796875q0 -5.75 -1.734375 -9.8125q-1.734375 -4.078125 -5.046875 -6.203125q-3.3125 -2.125 -7.984375 -2.125q-4.609375 0 -7.921875 2.125q-3.3125 2.125 -5.078125 6.203125q-1.765625 4.0625 -1.765625 9.8125q0 5.6875 1.765625 9.796875q1.765625 4.109375 5.078125 6.265625q3.3125 2.15625 7.921875 2.15625zm49.67627 7.921875q-5.546875 0 -9.65625 -2.265625q-4.09375 -2.265625 -6.328125 -6.4375q-2.234375 -4.1875 -2.234375 -9.796875q0 -5.625 2.234375 -9.6875q2.234375 -4.0625 6.328125 -6.25q4.109375 -2.203125 9.65625 -2.203125q3.390625 0 6.6875 1.078125q3.3125 1.078125 5.484375 3.015625l-2.671875 6.265625q-1.875 -1.65625 -4.21875 -2.515625q-2.328125 -0.859375 -4.484375 -0.859375q-4.6875 0 -7.25 2.921875q-2.546875 2.90625 -2.546875 8.296875q0 5.328125 2.546875 8.390625q2.5625 3.0625 7.25 3.0625q2.078125 0 4.453125 -0.859375q2.375 -0.859375 4.25 -2.59375l2.671875 6.328125q-2.171875 1.875 -5.515625 3.0q-3.34375 1.109375 -6.65625 1.109375zm18.64827 -0.71875l0 -35.203125l9.0 0l0 13.609375l15.546875 0l0 -13.609375l9.0 0l0 35.203125l-9.0 0l0 -14.546875l-15.546875 0l0 14.546875l-9.0 0zm59.901 0.71875q-5.46875 0 -9.5 -2.234375q-4.03125 -2.234375 -6.265625 -6.375q-2.234375 -4.140625 -2.234375 -9.75q0 -5.609375 2.234375 -9.71875q2.234375 -4.109375 6.265625 -6.328125q4.03125 -2.234375 9.5 -2.234375q5.46875 0 9.5 2.234375q4.03125 2.21875 6.265625 6.328125q2.234375 4.109375 2.234375 9.71875q0 5.609375 -2.234375 9.75q-2.234375 4.140625 -6.265625 6.375q-4.03125 2.234375 -9.5 2.234375zm0 -6.84375q4.03125 0 6.46875 -2.90625q2.453125 -2.921875 2.453125 -8.6875q0 -5.6875 -2.453125 -8.53125q-2.4375 -2.84375 -6.46875 -2.84375q-4.03125 0 -6.484375 2.84375q-2.4375 2.84375 -2.4375 8.53125q0 5.765625 2.4375 8.6875q2.453125 2.90625 6.484375 2.90625zm26.355011 6.125l0 -35.203125l19.015625 0q4.53125 0 7.375 1.078125q2.84375 1.078125 4.140625 3.140625q1.296875 2.046875 1.296875 5.0q0 3.296875 -2.265625 5.578125q-2.265625 2.265625 -6.015625 2.765625l0 -1.0q3.171875 0.140625 5.25 1.296875q2.09375 1.140625 3.171875 3.046875q1.078125 1.90625 1.078125 4.4375q0 4.53125 -3.453125 7.203125q-3.453125 2.65625 -10.0 2.65625l-19.59375 0zm8.359375 -5.546875l10.4375 0q2.953125 0 4.5 -1.21875q1.546875 -1.21875 1.546875 -3.609375q0 -2.375 -1.546875 -3.59375q-1.546875 -1.21875 -4.5 -1.21875l-10.4375 0l0 9.640625zm0 -15.1875l9.78125 0q2.59375 0 4.03125 -1.1875q1.453125 -1.1875 1.453125 -3.34375q0 -2.171875 -1.453125 -3.28125q-1.4375 -1.109375 -4.03125 -1.109375l-9.78125 0l0 8.921875zm32.53665 20.734375l0 -35.203125l9.0 0l0 13.609375l15.546875 0l0 -13.609375l9.0 0l0 35.203125l-9.0 0l0 -14.546875l-15.546875 0l0 14.546875l-9.0 0zm43.776 0l0 -35.203125l9.0 0l0 11.65625l9.296875 0q6.984375 0 10.546875 2.953125q3.5625 2.953125 3.5625 8.640625q0 3.59375 -1.734375 6.296875q-1.71875 2.703125 -4.859375 4.1875q-3.125 1.46875 -7.515625 1.46875l-18.296875 0zm9.0 -5.90625l7.921875 0q3.390625 0 5.25 -1.46875q1.875 -1.484375 1.875 -4.5q0 -2.953125 -1.875 -4.359375q-1.859375 -1.40625 -5.25 -1.40625l-7.921875 0l0 11.734375zm27.65625 5.90625l0 -35.203125l9.0 0l0 35.203125l-9.0 0zm36.637665 0.71875q-5.96875 0 -10.296875 -2.234375q-4.3125 -2.234375 -6.65625 -6.328125q-2.34375 -4.109375 -2.34375 -9.71875q0 -5.484375 2.265625 -9.578125q2.265625 -4.109375 6.265625 -6.4375q4.0 -2.34375 9.109375 -2.34375q5.046875 0 8.640625 2.15625q3.59375 2.15625 5.578125 6.125q1.984375 3.953125 1.984375 9.421875l0 2.671875l-26.5625 0l0 -5.1875l20.21875 0l-1.140625 1.078125q0 -4.890625 -2.171875 -7.515625q-2.15625 -2.640625 -6.1875 -2.640625q-3.015625 0 -5.140625 1.40625q-2.125 1.40625 -3.25 3.96875q-1.109375 2.546875 -1.109375 6.078125l0 0.5q0 3.96875 1.21875 6.5625q1.234375 2.578125 3.671875 3.875q2.453125 1.296875 6.046875 1.296875q2.953125 0 5.90625 -0.890625q2.953125 -0.90625 5.40625 -2.84375l2.515625 6.046875q-2.515625 2.078125 -6.34375 3.3125q-3.8125 1.21875 -7.625 1.21875zm42.05017 -0.71875l0 -35.203125l19.015625 0q4.53125 0 7.375 1.078125q2.84375 1.078125 4.140625 3.140625q1.296875 2.046875 1.296875 5.0q0 3.296875 -2.265625 5.578125q-2.265625 2.265625 -6.015625 2.765625l0 -1.0q3.171875 0.140625 5.25 1.296875q2.09375 1.140625 3.171875 3.046875q1.078125 1.90625 1.078125 4.4375q0 4.53125 -3.453125 7.203125q-3.453125 2.65625 -10.0 2.65625l-19.59375 0zm8.359375 -5.546875l10.4375 0q2.953125 0 4.5 -1.21875q1.546875 -1.21875 1.546875 -3.609375q0 -2.375 -1.546875 -3.59375q-1.546875 -1.21875 -4.5 -1.21875l-10.4375 0l0 9.640625zm0 -15.1875l9.78125 0q2.59375 0 4.03125 -1.1875q1.453125 -1.1875 1.453125 -3.34375q0 -2.171875 -1.453125 -3.28125q-1.4375 -1.109375 -4.03125 -1.109375l-9.78125 0l0 8.921875zm48.661682 21.453125q-5.46875 0 -9.5 -2.234375q-4.03125 -2.234375 -6.265625 -6.375q-2.234375 -4.140625 -2.234375 -9.75q0 -5.609375 2.234375 -9.71875q2.234375 -4.109375 6.265625 -6.328125q4.03125 -2.234375 9.5 -2.234375q5.46875 0 9.5 2.234375q4.03125 2.21875 6.265625 6.328125q2.234375 4.109375 2.234375 9.71875q0 5.609375 -2.234375 9.75q-2.234375 4.140625 -6.265625 6.375q-4.03125 2.234375 -9.5 2.234375zm0 -6.84375q4.03125 0 6.46875 -2.90625q2.453125 -2.921875 2.453125 -8.6875q0 -5.6875 -2.453125 -8.53125q-2.4375 -2.84375 -6.46875 -2.84375q-4.03125 0 -6.484375 2.84375q-2.4375 2.84375 -2.4375 8.53125q0 5.765625 2.4375 8.6875q2.453125 2.90625 6.484375 2.90625zm26.35498 6.125l0 -35.203125l33.34375 0l0 35.203125l-9.0 0l0 -28.15625l-15.34375 0l0 28.15625l-9.0 0zm43.638184 12.953125l0 -48.15625l8.78125 0l0 7.40625l-0.71875 0q1.078125 -3.671875 4.421875 -5.890625q3.34375 -2.234375 7.8125 -2.234375q4.609375 0 8.09375 2.234375q3.5 2.21875 5.4375 6.296875q1.953125 4.0625 1.953125 9.75q0 5.609375 -1.953125 9.75q-1.9375 4.140625 -5.40625 6.375q-3.453125 2.234375 -8.125 2.234375q-4.390625 0 -7.703125 -2.1875q-3.3125 -2.203125 -4.46875 -5.734375l0.875 0l0 20.15625l-9.0 0zm17.78125 -19.078125q4.03125 0 6.46875 -2.90625q2.453125 -2.921875 2.453125 -8.609375q0 -5.765625 -2.453125 -8.609375q-2.4375 -2.84375 -6.46875 -2.84375q-4.03125 0 -6.484375 2.84375q-2.453125 2.84375 -2.453125 8.609375q0 5.6875 2.453125 8.609375q2.453125 2.90625 6.484375 2.90625zm42.473633 6.84375q-5.46875 0 -9.5 -2.234375q-4.03125 -2.234375 -6.265625 -6.375q-2.234375 -4.140625 -2.234375 -9.75q0 -5.609375 2.234375 -9.71875q2.234375 -4.109375 6.265625 -6.328125q4.03125 -2.234375 9.5 -2.234375q5.46875 0 9.5 2.234375q4.03125 2.21875 6.265625 6.328125q2.234375 4.109375 2.234375 9.71875q0 5.609375 -2.234375 9.75q-2.234375 4.140625 -6.265625 6.375q-4.03125 2.234375 -9.5 2.234375zm0 -6.84375q4.03125 0 6.46875 -2.90625q2.453125 -2.921875 2.453125 -8.6875q0 -5.6875 -2.453125 -8.53125q-2.4375 -2.84375 -6.46875 -2.84375q-4.03125 0 -6.484375 2.84375q-2.4375 2.84375 -2.4375 8.53125q0 5.765625 2.4375 8.6875q2.453125 2.90625 6.484375 2.90625zm42.69873 6.84375q-5.546875 0 -9.65625 -2.265625q-4.09375 -2.265625 -6.328125 -6.4375q-2.234375 -4.1875 -2.234375 -9.796875q0 -5.625 2.234375 -9.6875q2.234375 -4.0625 6.328125 -6.25q4.109375 -2.203125 9.65625 -2.203125q3.390625 0 6.6875 1.078125q3.3125 1.078125 5.484375 3.015625l-2.671875 6.265625q-1.875 -1.65625 -4.21875 -2.515625q-2.328125 -0.859375 -4.484375 -0.859375q-4.6875 0 -7.25 2.921875q-2.546875 2.90625 -2.546875 8.296875q0 5.328125 2.546875 8.390625q2.5625 3.0625 7.25 3.0625q2.078125 0 4.453125 -0.859375q2.375 -0.859375 4.25 -2.59375l2.671875 6.328125q-2.171875 1.875 -5.515625 3.0q-3.34375 1.109375 -6.65625 1.109375zm18.648193 -0.71875l0 -35.203125l9.0 0l0 11.65625l9.296875 0q6.984375 0 10.546875 2.953125q3.5625 2.953125 3.5625 8.640625q0 3.59375 -1.734375 6.296875q-1.71875 2.703125 -4.859375 4.1875q-3.125 1.46875 -7.515625 1.46875l-18.296875 0zm9.0 -5.90625l7.921875 0q3.390625 0 5.25 -1.46875q1.875 -1.484375 1.875 -4.5q0 -2.953125 -1.875 -4.359375q-1.859375 -1.40625 -5.25 -1.40625l-7.921875 0l0 11.734375zm27.65625 5.90625l0 -35.203125l9.0 0l0 35.203125l-9.0 0z" fill-rule="nonzero"/><path fill="#ffffff" d="m351.33884 313.2l0 -50.765625l8.5625 0l0 37.875l-1.65625 0l28.953125 -37.875l6.90625 0l0 50.765625l-8.5625 0l0 -37.9375l1.578125 0l-28.9375 37.9375l-6.84375 0zm77.46539 0.71875q-7.921875 0 -13.578125 -3.203125q-5.640625 -3.203125 -8.671875 -9.0625q-3.015625 -5.875 -3.015625 -13.875q0 -7.984375 3.015625 -13.8125q3.03125 -5.84375 8.671875 -9.046875q5.65625 -3.203125 13.578125 -3.203125q5.109375 0 9.6875 1.59375q4.578125 1.578125 7.53125 4.53125l-3.03125 7.34375q-3.234375 -2.734375 -6.625 -3.984375q-3.375 -1.265625 -7.265625 -1.265625q-7.703125 0 -11.734375 4.640625q-4.03125 4.640625 -4.03125 13.203125q0 8.578125 4.03125 13.265625q4.03125 4.671875 11.734375 4.671875q3.890625 0 7.265625 -1.265625q3.390625 -1.265625 6.625 -4.0l3.03125 7.34375q-2.953125 2.890625 -7.53125 4.515625q-4.578125 1.609375 -9.6875 1.609375zm18.729889 -0.71875l22.96875 -50.765625l7.546875 0l22.96875 50.765625l-9.359375 0l-6.109375 -14.25l3.875 2.515625l-30.375 0l3.890625 -2.515625l-6.046875 14.25l-9.359375 0zm26.640625 -40.75l-10.09375 23.96875l-1.859375 -2.296875l24.046875 0l-1.796875 2.296875l-10.15625 -23.96875l-0.140625 0zm32.39615 40.75l0 -50.765625l9.2187805 0l0 21.171875l26.125 0l0 -21.171875l9.21875 0l0 50.765625l-9.21875 0l0 -21.890625l-26.125 0l0 21.890625l-9.2187805 0zm51.124786 11.875l0 -19.21875l5.03125 0q2.3125 -2.875 3.8125 -7.125q1.515625 -4.25 2.234375 -10.0q0.71875 -5.765625 0.71875 -13.046875l0 -13.25l35.9375 0l0 43.421875l7.1875 0l0 19.21875l-8.203125 0l0 -11.875l-38.515625 0l0 11.875l-8.203125 0zm14.390625 -19.21875l24.046875 0l0 -36.078125l-18.0625 0l0 6.78125q0 6.90625 -0.65625 12.34375q-0.640625 5.4375 -1.984375 9.609375q-1.328125 4.171875 -3.34375 7.34375z" fill-rule="nonzero"/></g></svg>