<svg width="52" height="64" viewBox="0 0 52 64" fill="none" xmlns="http://www.w3.org/2000/svg">
<path d="M12.8791 41.1756C12.8791 40.1127 12.143 39.4789 10.8444 39.4789C10.3141 39.4789 9.95494 39.5313 9.76709 39.5815V42.9916C9.98951 43.0418 10.2629 43.0585 10.6398 43.0585C12.0241 43.0585 12.8791 42.3578 12.8791 41.1756Z" fill="#1B4596"/>
<path d="M20.9182 39.5148C20.3366 39.5148 19.9608 39.5651 19.7385 39.6172V47.1697C19.961 47.222 20.3201 47.222 20.6448 47.222C23.004 47.2388 24.5427 45.9375 24.5427 43.1802C24.5594 40.7825 23.1573 39.5148 20.9182 39.5148Z" fill="#1B4596"/>
<path d="M35.8545 0H10.2012C6.4535 0 3.40327 3.0585 3.40327 6.81165V31.9999H2.73931C1.22672 31.9999 0 33.2279 0 34.7449V51.3913C0 52.9081 1.22658 54.136 2.73931 54.136H3.40327V57.1884C3.40327 60.9456 6.4535 64 10.2012 64H45.204C48.9494 64 52 60.9455 52 57.1884V16.1214L35.8545 0ZM7.18635 37.749C7.98915 37.6131 9.11757 37.5106 10.7074 37.5106C12.314 37.5106 13.4592 37.8179 14.2286 38.4351C14.9635 39.0168 15.4595 39.9769 15.4595 41.1068C15.4595 42.2364 15.0837 43.1968 14.3999 43.8474C13.5104 44.6863 12.1951 45.0629 10.6564 45.0629C10.3139 45.0629 10.007 45.0459 9.76696 45.0126V49.1404H7.18635V37.749ZM45.204 59.8285H10.2012C8.75008 59.8285 7.56841 58.6444 7.56841 57.1884V54.136H40.1982C41.7111 54.136 42.9377 52.9081 42.9377 51.3913V34.7449C42.9377 33.2279 41.7111 31.9999 40.1982 31.9999H7.56841V6.81165C7.56841 5.35972 8.75021 4.17566 10.2012 4.17566L34.297 4.15044V13.0751C34.297 15.6819 36.4079 17.799 39.0114 17.799L47.7364 17.7739L47.8346 57.1882C47.8346 58.6444 46.655 59.8285 45.204 59.8285ZM17.1235 49.088V37.749C18.0807 37.5963 19.3282 37.5106 20.6447 37.5106C22.8327 37.5106 24.2515 37.9039 25.3632 38.7427C26.5596 39.6339 27.3111 41.0545 27.3111 43.0941C27.3111 45.3033 26.5083 46.8285 25.3964 47.7698C24.1834 48.7802 22.3368 49.2594 20.0809 49.2594C18.7299 49.2594 17.7728 49.1737 17.1235 49.088ZM35.7795 42.3746V44.498H31.6424V49.1404H29.0273V37.5963H36.0697V39.7364H31.6424V42.3746H35.7795Z" fill="#1B4596"/>
</svg>
