<!DOCTYPE svg PUBLIC "-//W3C//DTD SVG 1.1//EN" "http://www.w3.org/Graphics/SVG/1.1/DTD/svg11.dtd">
<!-- Uploaded to: SVG Repo, www.svgrepo.com, Transformed by: SVG Repo Mixer Tools -->
<svg fill="#db0000" version="1.1" id="Capa_1" xmlns="http://www.w3.org/2000/svg" xmlns:xlink="http://www.w3.org/1999/xlink" width="162px" height="162px" viewBox="-4.17 -4.17 54.62 54.62" xml:space="preserve" stroke="#db0000" transform="rotate(0)" stroke-width="0.00046281">
<g id="SVGRepo_bgCarrier" stroke-width="0"/>
<g id="SVGRepo_tracerCarrier" stroke-linecap="round" stroke-linejoin="round" stroke="#CCCCCC" stroke-width="0.277686"/>
<g id="SVGRepo_iconCarrier"> <g> <path d="M37.373,31.098c-0.702-6.471-3.842-15.586-8.156-20.451c0.641-1.058,1.021-2.293,1.021-3.616 C30.238,3.154,27.083,0,23.199,0c-3.884,0-7.042,3.154-7.042,7.031c0,1.324,0.377,2.559,1.017,3.617 c-4.316,4.864-7.501,13.981-8.204,20.45C6.622,31.637,4.83,33.73,4.83,36.236v4.671c0,2.912,2.436,5.373,5.353,5.373h26.042 c2.918,0,5.227-2.461,5.227-5.373v-4.671C41.449,33.729,39.721,31.637,37.373,31.098z M23.204,3.051c2.2,0,3.991,1.785,3.991,3.979 c0,0.535-0.11,1.045-0.303,1.512c-1.179-0.8-2.412-1.264-3.688-1.264c-1.277,0-2.512,0.464-3.689,1.265 c-0.193-0.467-0.304-0.977-0.304-1.512C19.211,4.836,21.001,3.051,23.204,3.051z M38.398,40.906c0,1.229-0.938,2.32-2.174,2.32 H10.182c-1.234,0-2.301-1.092-2.301-2.32v-4.671c0-1.229,1.066-2.163,2.301-2.163h26.042c1.234,0,2.174,0.934,2.174,2.163V40.906z"/> </g> </g>
</svg>