<?xml version="1.0" encoding="utf-8"?>
<svg width="352" height="188" viewBox="0 0 352 188" fill="none" xmlns="http://www.w3.org/2000/svg">
  <rect width="352" height="188" fill="white"/>
  <rect x="96" y="14" width="160" height="160" rx="32" fill="#D7E8FF"/>
  <path d="M152.75 66H208L205 61L208 56H152.75C149 56 144 56.875 144 61C144 65.125 149 66 152.75 66Z" fill="white"/>
  <path fill-rule="evenodd" clip-rule="evenodd" d="M214 70.9999L214 71V146H154C142.95 146 134 138.5 134 126V61.0375C134 61.025 134 61.0125 134 61C134 52.7125 142.95 46 154 46H214C214 46 214 46 214 46V56C214 56 209.873 58.3803 209 61C208.383 62.8524 209 66 209 66L214 66V70.9999ZM144 61.0249V61L144 61C144 56.875 149 56 152.75 56H201.217C200.074 57.5682 199.25 59.2523 199 61C198.724 62.933 199 66 199 66L152.75 66C149.008 66 144.02 65.1285 144 61.0249ZM144 73.9948V126C144 131 149 136 152.75 136H204V76H154C150.357 76 146.941 75.2702 144 73.9948Z" fill="#1B4596"/>
  <path d="M161.264 114.624L168.992 92.256L165.968 91.968V88.08H176.96L186.752 115.776H186.8L189.536 115.92V120H177.152V116.112L178.976 115.968C179.52 115.904 179.888 115.776 180.08 115.584C180.272 115.392 180.288 115.04 180.128 114.528L179.12 111.552H167.888L166.448 115.776L169.328 115.92V120H158.24V116.112L159.824 115.968C160.496 115.904 160.976 115.456 161.264 114.624ZM173.504 93.456L169.04 107.136H177.968L173.648 93.456H173.504Z" fill="#1B4596"/>
  <g id="analysis-left" transform="matrix(1.205985, 0, 0, 1.242335, 84.335205, -20.418245)" style="">
    <g id="SVGRepo_bgCarrier" stroke-width="0" transform="matrix(3.152083, 0, 0, 3.152083, 38.690388, 57.022358)">
      <rect x="-4.8" y="-4.8" width="33.60" height="33.60" rx="4.368" fill="#d8e8ff" strokewidth="0"/>
    </g>
    <g id="SVGRepo_tracerCarrier" stroke-linecap="round" stroke-linejoin="round" stroke="#fafafa" stroke-width="3.408" transform="matrix(3.541667, 0, 0, 3.541667, 37.370388, 55.702358)">
      <circle id="secondary" cx="8" cy="10" r="3" style="fill: ##1b4596; stroke-width:1.8;"/>
      <path id="primary" d="M5.83,12.12,3,15M8,7a3,3,0,1,0,3,3A3,3,0,0,0,8,7Zm3,10h6m-2-4h2" style="fill: none; stroke: #1b4596; stroke-linecap: round; stroke-linejoin: round; stroke-width:1.8;"/>
      <path id="primary-2" data-name="primary" d="M8,3H20a1,1,0,0,1,1,1V20a1,1,0,0,1-1,1H8a1,1,0,0,1-1-1V17" style="fill: none; stroke: #1b4596; stroke-linecap: round; stroke-linejoin: round; stroke-width:1.8;"/>
    </g>
    <g id="SVGRepo_iconCarrier" transform="matrix(3.541667, 0, 0, 3.541667, 37.370388, 55.702358)">
      <circle id="secondary-2" cx="8" cy="10" r="3" style="fill: ##1b4596; stroke-width:1.8;"/>
      <path id="primary-3" d="M5.83,12.12,3,15M8,7a3,3,0,1,0,3,3A3,3,0,0,0,8,7Zm3,10h6m-2-4h2" style="fill: none; stroke: #1b4596; stroke-linecap: round; stroke-linejoin: round; stroke-width:1.8;"/>
      <path id="primary-3" data-name="primary" d="M8,3H20a1,1,0,0,1,1,1V20a1,1,0,0,1-1,1H8a1,1,0,0,1-1-1V17" style="fill: none; stroke: #1b4596; stroke-linecap: round; stroke-linejoin: round; stroke-width:1.8;"/>
    </g>
  </g>
</svg>