<svg version="1.1" id="Layer_1" xmlns="http://www.w3.org/2000/svg" xmlns:xlink="http://www.w3.org/1999/xlink" x="0px" y="0px"
	 width="352" height="200" viewBox="0 0 700 500" enable-background="new 0 0 700 500" xml:space="preserve">
<path fill="#FFFFFF" opacity="1.000000" stroke="none" 
	d="
M514.000000,501.000000 
	C342.666656,501.000000 171.833328,501.000000 1.000000,501.000000 
	C1.000000,334.333344 1.000000,167.666672 1.000000,1.000000 
	C234.333328,1.000000 467.666656,1.000000 701.000000,1.000000 
	C701.000000,167.666672 701.000000,334.333344 701.000000,501.000000 
	C638.833313,501.000000 576.666687,501.000000 514.000000,501.000000 
M81.198914,332.458008 
	C81.198914,332.458008 81.540405,332.802307 81.540405,332.802307 
	C81.540405,332.802307 82.022675,332.750763 82.950905,332.856903 
	C167.502914,332.856903 252.054932,332.856903 336.900818,332.856903 
	C336.900818,311.461578 336.900818,290.580261 336.900818,269.108490 
	C334.549774,269.108490 332.433716,269.108490 330.317657,269.108490 
	C249.549454,269.108490 168.781265,269.107483 88.013062,269.114410 
	C86.016838,269.114563 84.020607,269.202362 81.541992,269.197083 
	C81.182144,269.379700 81.085426,269.654846 81.147079,270.950897 
	C81.182014,291.292480 81.216942,311.634094 81.198914,332.458008 
M82.950905,252.856857 
	C210.333450,252.856857 337.716003,252.856857 465.393005,252.856857 
	C465.393005,231.472672 465.393005,210.579987 465.393005,189.108521 
	C463.202606,189.108521 461.257172,189.108521 459.311737,189.108521 
	C335.379456,189.108521 211.447174,189.107895 87.514885,189.114349 
	C85.684715,189.114456 83.854546,189.202362 81.542000,189.197067 
	C81.182114,189.379623 81.085396,189.654770 81.147072,190.950867 
	C81.182007,211.292496 81.216934,231.634125 81.198952,252.458069 
	C81.198952,252.458069 81.540443,252.802307 81.540443,252.802307 
	C81.540443,252.802307 82.022675,252.750763 82.950905,252.856857 
M82.950905,172.856857 
	C148.273804,172.868408 213.596695,172.886429 278.919586,172.889984 
	C381.736847,172.895599 484.554138,172.891891 587.371399,172.890549 
	C593.888916,172.890472 593.893677,172.884186 593.894836,166.279877 
	C593.897644,149.782455 593.896118,133.285019 593.895691,116.787598 
	C593.895508,109.109680 593.894836,109.108665 586.439148,109.108658 
	C420.298401,109.108459 254.157684,109.108017 88.016953,109.114349 
	C86.019424,109.114418 84.021904,109.202354 81.541992,109.197067 
	C81.182144,109.379654 81.085426,109.654800 81.147072,110.950874 
	C81.181999,131.292496 81.216934,151.634125 81.198952,172.458069 
	C81.198952,172.458069 81.540443,172.802307 81.540443,172.802307 
	C81.540443,172.802307 82.022675,172.750763 82.950905,172.856857 
M81.112144,381.500000 
	C81.112144,391.776978 81.112144,402.053955 81.112144,412.521301 
	C124.007759,412.521301 166.346771,412.521301 208.687943,412.521301 
	C208.687943,391.270935 208.687943,370.393127 208.687943,349.393616 
	C166.094818,349.393616 123.881104,349.393616 81.112251,349.393616 
	C81.112251,359.945984 81.112251,370.222992 81.112144,381.500000 
z"/>
<path fill="#636EFA" opacity="1.000000" stroke="none" 
	d="
M82.024376,109.249268 
	C84.021904,109.202354 86.019424,109.114418 88.016953,109.114349 
	C254.157684,109.108017 420.298401,109.108459 586.439148,109.108658 
	C593.894836,109.108665 593.895508,109.109680 593.895691,116.787598 
	C593.896118,133.285019 593.897644,149.782455 593.894836,166.279877 
	C593.893677,172.884186 593.888916,172.890472 587.371399,172.890549 
	C484.554138,172.891891 381.736847,172.895599 278.919586,172.889984 
	C213.596695,172.886429 148.273804,172.868408 82.396057,172.640610 
	C81.686157,172.220459 81.489708,172.070923 81.251869,171.975754 
	C81.216934,151.634125 81.181999,131.292496 81.362358,110.395401 
	C81.781174,109.684357 81.930084,109.487473 82.024376,109.249268 
z"/>
<path fill="#636EFA" opacity="1.000000" stroke="none" 
	d="
M82.024376,189.249268 
	C83.854546,189.202362 85.684715,189.114456 87.514885,189.114349 
	C211.447174,189.107895 335.379456,189.108521 459.311737,189.108521 
	C461.257172,189.108521 463.202606,189.108521 465.393005,189.108521 
	C465.393005,210.579987 465.393005,231.472672 465.393005,252.856857 
	C337.716003,252.856857 210.333450,252.856857 82.396057,252.640610 
	C81.686157,252.220459 81.489708,252.070923 81.251869,251.975754 
	C81.216934,231.634125 81.182007,211.292496 81.362366,190.395386 
	C81.781181,189.684341 81.930084,189.487457 82.024376,189.249268 
z"/>
<path fill="#636EFA" opacity="1.000000" stroke="none" 
	d="
M82.024384,269.249268 
	C84.020607,269.202362 86.016838,269.114563 88.013062,269.114410 
	C168.781265,269.107483 249.549454,269.108490 330.317657,269.108490 
	C332.433716,269.108490 334.549774,269.108490 336.900818,269.108490 
	C336.900818,290.580261 336.900818,311.461578 336.900818,332.856903 
	C252.054932,332.856903 167.502914,332.856903 82.396072,332.640625 
	C81.686142,332.220459 81.489693,332.070923 81.251869,331.975677 
	C81.216942,311.634094 81.182014,291.292480 81.362381,270.395447 
	C81.781166,269.684357 81.930069,269.487457 82.024384,269.249268 
z"/>
<path fill="#636EFA" opacity="1.000000" stroke="none" 
	d="
M81.112198,381.000000 
	C81.112251,370.222992 81.112251,359.945984 81.112251,349.393616 
	C123.881104,349.393616 166.094818,349.393616 208.687943,349.393616 
	C208.687943,370.393127 208.687943,391.270935 208.687943,412.521301 
	C166.346771,412.521301 124.007759,412.521301 81.112144,412.521301 
	C81.112144,402.053955 81.112144,391.776978 81.112198,381.000000 
z"/>
<path fill="#838DF9" opacity="1.000000" stroke="none" 
	d="
M81.783188,109.223167 
	C81.930084,109.487473 81.781174,109.684357 81.414742,109.931213 
	C81.085426,109.654800 81.182144,109.379654 81.783188,109.223167 
z"/>
<path fill="#838DF9" opacity="1.000000" stroke="none" 
	d="
M81.225410,172.216919 
	C81.489708,172.070923 81.686157,172.220459 81.931946,172.587555 
	C82.022675,172.750763 81.540443,172.802307 81.540443,172.802307 
	C81.540443,172.802307 81.198952,172.458069 81.225410,172.216919 
z"/>
<path fill="#838DF9" opacity="1.000000" stroke="none" 
	d="
M81.783188,189.223175 
	C81.930084,189.487457 81.781181,189.684341 81.414749,189.931213 
	C81.085396,189.654770 81.182114,189.379623 81.783188,189.223175 
z"/>
<path fill="#838DF9" opacity="1.000000" stroke="none" 
	d="
M81.225410,252.216919 
	C81.489708,252.070923 81.686157,252.220459 81.931946,252.587555 
	C82.022675,252.750763 81.540443,252.802307 81.540443,252.802307 
	C81.540443,252.802307 81.198952,252.458069 81.225410,252.216919 
z"/>
<path fill="#838DF9" opacity="1.000000" stroke="none" 
	d="
M81.783188,269.223175 
	C81.930069,269.487457 81.781166,269.684357 81.414757,269.931274 
	C81.085426,269.654846 81.182144,269.379700 81.783188,269.223175 
z"/>
<path fill="#838DF9" opacity="1.000000" stroke="none" 
	d="
M81.225388,332.216858 
	C81.489693,332.070923 81.686142,332.220459 81.931953,332.587555 
	C82.022675,332.750763 81.540405,332.802307 81.540405,332.802307 
	C81.540405,332.802307 81.198914,332.458008 81.225388,332.216858 
z"/>
</svg>