<svg width="352" height="188" viewBox="0 0 352 188" fill="none" xmlns="http://www.w3.org/2000/svg">
<rect width="352" height="188" fill="white"/>
<g clip-path="url(#clip0_2322_978)">
<path d="M261.5 117H257.55L256.15 115.65C261.05 109.95 264 102.55 264 94.5C264 76.55 249.45 62 231.5 62C213.55 62 199 76.55 199 94.5C199 112.45 213.55 127 231.5 127C239.55 127 246.95 124.05 252.65 119.15L254 120.55V124.5L279 149.45L286.45 142L261.5 117V117ZM231.5 117C219.05 117 209 106.95 209 94.5C209 82.05 219.05 72 231.5 72C243.95 72 254 82.05 254 94.5C254 106.95 243.95 117 231.5 117Z" fill="#1B4596"/>
</g>
<path fill-rule="evenodd" clip-rule="evenodd" d="M48 32.75H208V14H48V32.75ZM48 42.125H192V60.875H48V42.125ZM48 70.25H162V89H48V70.25ZM48 117.75H157V99H48V117.75ZM48 127.125H142V145.875H48V127.125ZM48 155.25H107V174H48V155.25Z" fill="#D7E8FF"/>
<defs>
<clipPath id="clip0_2322_978">
<rect width="120" height="120" fill="white" transform="translate(184 47)"/>
</clipPath>
</defs>
</svg>
