<svg width="352" height="188" viewBox="0 0 352 188" fill="none" xmlns="http://www.w3.org/2000/svg">
<g clip-path="url(#clip0_2042_1318)">
<rect width="352" height="188" fill="white"/>
<rect width="352" height="188" fill="white"/>
<path d="M139.228 80.7708C108.847 94.0064 103.962 127.108 118.481 154.554C133 182 248.729 157.342 252.695 131.643C256.66 105.943 169.609 67.5352 139.228 80.7708Z" fill="#D7E8FF"/>
<g clip-path="url(#clip1_2042_1318)">
<path d="M176 107.767C178.707 107.767 180.9 109.96 180.9 112.667C180.9 115.373 178.707 117.567 176 117.567C173.293 117.567 171.1 115.373 171.1 112.667C171.1 109.96 173.293 107.767 176 107.767ZM176 128.767C182.93 128.767 190.233 132.173 190.233 133.667V136.233H161.767V133.667C161.767 132.173 169.07 128.767 176 128.767ZM176 103.333C170.843 103.333 166.667 107.51 166.667 112.667C166.667 117.823 170.843 122 176 122C181.157 122 185.333 117.823 185.333 112.667C185.333 107.51 181.157 103.333 176 103.333ZM176 124.333C169.77 124.333 157.333 127.46 157.333 133.667V140.667H194.667V133.667C194.667 127.46 182.23 124.333 176 124.333Z" fill="#1B4596"/>
</g>
<path fill-rule="evenodd" clip-rule="evenodd" d="M110.667 28.6666H134V56.6666H110.083C108.333 56.6666 106 54.3333 106 52V27.7309C107.373 28.3261 108.966 28.6666 110.667 28.6666ZM101.333 21.6666C101.333 17.7991 105.51 14.6666 110.667 14.6666H138.667V19.3333C138.667 19.3333 136.741 20.4441 136.333 21.6666C136.045 22.5311 136.333 24 136.333 24H138.667V26.3333V28.6666V61.3333H110.667C105.51 61.3333 101.333 57.8333 101.333 52V21.6666ZM131.667 24H110.083C108.333 24 106 23.5916 106 21.6666C106 19.7416 108.333 19.3333 110.083 19.3333H132.701C132.168 20.0651 131.783 20.851 131.667 21.6666C131.538 22.5687 131.667 24 131.667 24Z" fill="#1B4596"/>
<g clip-path="url(#clip2_2042_1318)">
<path d="M299.667 147.667V129H276.333V138.333H267V171H285.667V161.667H290.333V171H309V147.667H299.667ZM276.333 166.333H271.667V161.667H276.333V166.333ZM276.333 157H271.667V152.333H276.333V157ZM276.333 147.667H271.667V143H276.333V147.667ZM285.667 157H281V152.333H285.667V157ZM285.667 147.667H281V143H285.667V147.667ZM285.667 138.333H281V133.667H285.667V138.333ZM295 157H290.333V152.333H295V157ZM295 147.667H290.333V143H295V147.667ZM295 138.333H290.333V133.667H295V138.333ZM304.333 166.333H299.667V161.667H304.333V166.333ZM304.333 157H299.667V152.333H304.333V157Z" fill="#1B4596"/>
</g>
<g clip-path="url(#clip3_2042_1318)">
<path d="M45.3333 152.333C47.9 152.333 50 150.233 50 147.667C50 145.1 47.9 143 45.3333 143C42.7667 143 40.6667 145.1 40.6667 147.667C40.6667 150.233 42.7667 152.333 45.3333 152.333ZM47.97 154.9C47.1067 154.76 46.2433 154.667 45.3333 154.667C43.0233 154.667 40.83 155.157 38.8467 156.02C37.12 156.767 36 158.447 36 160.337V164H46.5V160.243C46.5 158.307 47.0367 156.487 47.97 154.9ZM82.6667 152.333C85.2333 152.333 87.3333 150.233 87.3333 147.667C87.3333 145.1 85.2333 143 82.6667 143C80.1 143 78 145.1 78 147.667C78 150.233 80.1 152.333 82.6667 152.333ZM92 160.337C92 158.447 90.88 156.767 89.1533 156.02C87.17 155.157 84.9767 154.667 82.6667 154.667C81.7567 154.667 80.8933 154.76 80.03 154.9C80.9633 156.487 81.5 158.307 81.5 160.243V164H92V160.337ZM73.8933 153.85C71.1633 152.637 67.8033 151.75 64 151.75C60.1967 151.75 56.8367 152.66 54.1067 153.85C51.5867 154.97 50 157.49 50 160.243V164H78V160.243C78 157.49 76.4133 154.97 73.8933 153.85ZM54.83 159.333C55.04 158.797 55.1333 158.423 56.9533 157.723C59.2167 156.837 61.5967 156.417 64 156.417C66.4033 156.417 68.7833 156.837 71.0467 157.723C72.8433 158.423 72.9367 158.797 73.17 159.333H54.83ZM64 140.667C65.2833 140.667 66.3333 141.717 66.3333 143C66.3333 144.283 65.2833 145.333 64 145.333C62.7167 145.333 61.6667 144.283 61.6667 143C61.6667 141.717 62.7167 140.667 64 140.667ZM64 136C60.1267 136 57 139.127 57 143C57 146.873 60.1267 150 64 150C67.8733 150 71 146.873 71 143C71 139.127 67.8733 136 64 136Z" fill="#1B4596"/>
</g>
<line x1="204.121" y1="133.338" x2="258.338" y2="149.879" stroke="#1B4596" stroke-width="5" stroke-linecap="round" stroke-dasharray="0.5 12"/>
<line x1="146.559" y1="135.229" x2="104.229" y2="151.441" stroke="#1B4596" stroke-width="5" stroke-linecap="round" stroke-dasharray="0.5 12"/>
<line x1="146.405" y1="68.9533" x2="161.953" y2="96.5954" stroke="#1B4596" stroke-width="5" stroke-linecap="round" stroke-dasharray="0.5 12"/>
</g>
<defs>
<clipPath id="clip0_2042_1318">
<rect width="352" height="188" fill="white"/>
</clipPath>
<clipPath id="clip1_2042_1318">
<rect width="56" height="56" fill="white" transform="translate(148 94)"/>
</clipPath>
<clipPath id="clip2_2042_1318">
<rect width="56" height="56" fill="white" transform="translate(260 122)"/>
</clipPath>
<clipPath id="clip3_2042_1318">
<rect width="56" height="56" fill="white" transform="translate(36 122)"/>
</clipPath>
</defs>
</svg>
