<svg width="352" height="200" xmlns="http://www.w3.org/2000/svg">

 <g>
  <title>background</title>
  <rect fill="#ffffff" id="canvas_background" height="202" width="354" y="-1" x="-1"/>
 </g>
 <g>
  <title>Layer 1</title>
  <g stroke="null" id="svg_1">
   <g stroke="black" id="svg_2" fill="none">
    <path stroke="null" id="svg_3" d="m83.975944,95.785569c14.587342,-14.464931 70.505488,-69.913831 84.282423,-83.575154"/>
    <path stroke="null" id="svg_4" d="m84.786352,96.589176c19.44979,-11.250502 108.59466,-61.877758 128.04445,-73.12826"/>
    <path stroke="null" id="svg_5" d="m166.637551,188.200402c-8.914487,-2.410822 -27.553869,-8.036073 -35.657948,-9.643287"/>
    <path stroke="null" id="svg_6" d="m167.447959,186.593188c-12.966527,-7.232465 -57.538962,-32.947897 -70.505488,-40.180363"/>
    <path stroke="null" id="svg_7" d="m168.258366,185.789581c-13.776934,-14.464931 -70.505488,-69.913831 -84.282423,-83.575154"/>
    <path stroke="null" id="svg_8" d="m169.068774,184.985973c-11.345711,-19.286574 -62.401409,-107.683372 -73.74712,-126.969946"/>
    <path stroke="null" id="svg_9" d="m170.68959,184.182366c-6.483263,-24.108218 -37.278764,-135.809625 -43.762027,-159.114236"/>
    <path stroke="null" id="svg_10" d="m171.499998,184.182366c0,-24.108218 0,-145.452912 0,-170.364737"/>
    <path stroke="null" id="svg_11" d="m172.310406,184.182366c6.483263,-24.108218 37.278764,-135.809625 43.762027,-159.114236"/>
    <path stroke="null" id="svg_12" d="m85.59676,98.999998c24.312237,0 146.683832,0 171.806477,0"/>
    <path stroke="null" id="svg_13" d="m85.59676,98.19639c24.312237,-6.428858 136.958937,-36.965934 160.460766,-43.394792"/>
    <path stroke="null" id="svg_14" d="m173.931222,184.985973c11.345711,-19.286574 62.401409,-107.683372 73.74712,-126.969946"/>
    <path stroke="null" id="svg_15" d="m174.74163,185.789581c14.587342,-14.464931 70.505488,-69.913831 84.282423,-83.575154"/>
    <path stroke="null" id="svg_16" d="m175.552038,11.406807c12.966527,7.232465 57.538962,32.947897 70.505488,40.180363"/>
    <path stroke="null" id="svg_17" d="m176.362446,9.799593c8.914487,2.410822 27.553869,8.036073 35.657948,9.643287"/>
    <path stroke="null" id="svg_18" d="m212.020394,177.753508c-8.914487,2.410822 -27.553869,8.036073 -35.657948,9.643287"/>
    <path stroke="null" id="svg_19" d="m212.830802,176.949901c-15.39775,0 -66.453449,0 -81.851199,0"/>
    <path stroke="null" id="svg_20" d="m212.830802,176.146294c-19.44979,-5.625251 -96.438541,-25.715432 -115.077923,-31.340683"/>
    <path stroke="null" id="svg_21" d="m212.830802,174.539079c-19.44979,-11.250502 -108.59466,-61.877758 -128.04445,-73.12826"/>
    <path stroke="null" id="svg_22" d="m213.641209,173.735472c-17.018566,-16.875752 -100.490581,-99.647299 -117.509147,-116.523051"/>
    <path stroke="null" id="svg_23" d="m214.451617,172.931865c-12.156119,-21.697396 -72.936712,-126.166338 -85.903239,-147.863734"/>
    <path stroke="null" id="svg_24" d="m216.072433,172.128257c-6.483263,-24.108218 -37.278764,-135.809625 -43.762027,-159.114236"/>
    <path stroke="null" id="svg_25" d="m216.882841,172.128257c0,-21.697396 0,-123.755517 0,-146.25652"/>
    <path stroke="null" id="svg_26" d="m217.693249,172.931865c5.672855,-19.286574 25.933053,-95.629263 31.605909,-114.11223"/>
    <path stroke="null" id="svg_27" d="m219.314065,172.931865c7.293671,-12.857716 33.226724,-57.056115 40.520396,-69.913831"/>
    <path stroke="null" id="svg_28" d="m220.124473,24.264523c6.483263,6.428858 20.260198,20.090181 26.743461,26.519039"/>
    <path stroke="null" id="svg_29" d="m92.080023,139.18036c-2.431224,-8.83968 -8.104079,-27.322647 -9.724895,-35.358719"/>
    <path stroke="null" id="svg_30" d="m245.247118,144.002004c-21.881014,0 -124.802818,0 -147.49424,0"/>
    <path stroke="null" id="svg_31" d="m245.247118,143.198396c-24.312237,-6.428858 -136.958937,-36.965934 -160.460766,-43.394792"/>
    <path stroke="null" id="svg_32" d="m92.890431,139.983967c0,-15.268538 0,-65.895795 0,-81.164332"/>
    <path stroke="null" id="svg_33" d="m246.057526,146.412825c-12.966527,7.232465 -57.538962,32.947897 -70.505488,40.180363"/>
    <path stroke="null" id="svg_34" d="m246.057526,144.805611c-19.44979,5.625251 -96.438541,25.715432 -115.077923,31.340683"/>
    <path stroke="null" id="svg_35" d="m246.057526,141.591182c-21.881014,-12.054109 -127.234042,-72.324653 -149.115056,-85.182369"/>
    <path stroke="null" id="svg_36" d="m246.867934,147.216433c-6.483263,6.428858 -20.260198,20.090181 -26.743461,26.519039"/>
    <path stroke="null" id="svg_37" d="m246.867934,140.787575c-17.018566,-16.875752 -100.490581,-99.647299 -117.509147,-116.523051"/>
    <path stroke="null" id="svg_38" d="m247.678342,139.983967c-11.345711,-19.286574 -62.401409,-107.683372 -73.74712,-126.969946"/>
    <path stroke="null" id="svg_39" d="m249.299158,139.983967c-5.672855,-19.286574 -25.933053,-95.629263 -31.605909,-114.11223"/>
    <path stroke="null" id="svg_40" d="m250.109565,139.983967c0,-15.268538 0,-65.895795 0,-81.164332"/>
    <path stroke="null" id="svg_41" d="m250.919973,139.18036c2.431224,-8.83968 8.104079,-27.322647 9.724895,-35.358719"/>
    <path stroke="null" id="svg_42" d="m93.700839,139.983967c5.672855,-19.286574 25.933053,-95.629263 31.605909,-114.11223"/>
    <path stroke="null" id="svg_43" d="m259.024052,95.785569c-13.776934,-14.464931 -70.505488,-69.913831 -84.282423,-83.575154"/>
    <path stroke="null" id="svg_44" d="m259.83446,94.981961c-7.293671,-12.857716 -33.226724,-57.056115 -40.520396,-69.913831"/>
    <path stroke="null" id="svg_45" d="m261.455276,94.178354c-2.431224,-8.83968 -8.104079,-27.322647 -9.724895,-35.358719"/>
    <path stroke="null" id="svg_46" d="m95.321654,139.983967c11.345711,-19.286574 62.401409,-107.683372 73.74712,-126.969946"/>
    <path stroke="null" id="svg_47" d="m96.132062,50.783563c6.483263,-6.428858 20.260198,-20.090181 26.743461,-26.519039"/>
    <path stroke="null" id="svg_48" d="m96.132062,140.787575c17.018566,-16.875752 100.490581,-99.647299 117.509147,-116.523051"/>
    <path stroke="null" id="svg_49" d="m96.94247,53.194384c19.44979,-5.625251 96.438541,-25.715432 115.077923,-31.340683"/>
    <path stroke="null" id="svg_50" d="m96.94247,51.58717c12.966527,-7.232465 57.538962,-32.947897 70.505488,-40.180363"/>
    <path stroke="null" id="svg_51" d="m96.94247,141.591182c21.881014,-12.054109 127.234042,-72.324653 149.115056,-85.182369"/>
    <path stroke="null" id="svg_52" d="m97.752878,54.801599c24.312237,6.428858 136.958937,36.965934 160.460766,43.394792"/>
    <path stroke="null" id="svg_53" d="m97.752878,53.997992c21.881014,0 124.802818,0 147.49424,0"/>
    <path stroke="null" id="svg_54" d="m97.752878,143.198396c24.312237,-6.428858 136.958937,-36.965934 160.460766,-43.394792"/>
    <path stroke="null" id="svg_55" d="m122.875523,173.735472c-6.483263,-6.428858 -20.260198,-20.090181 -26.743461,-26.519039"/>
    <path stroke="null" id="svg_56" d="m123.685931,172.931865c-7.293671,-12.857716 -33.226724,-57.056115 -40.520396,-69.913831"/>
    <path stroke="null" id="svg_57" d="m125.306747,172.931865c-5.672855,-19.286574 -25.933053,-95.629263 -31.605909,-114.11223"/>
    <path stroke="null" id="svg_58" d="m126.117155,172.128257c0,-21.697396 0,-123.755517 0,-146.25652"/>
    <path stroke="null" id="svg_59" d="m126.927563,172.128257c6.483263,-24.108218 37.278764,-135.809625 43.762027,-159.114236"/>
    <path stroke="null" id="svg_60" d="m128.548379,172.931865c12.156119,-21.697396 72.936712,-126.166338 85.903239,-147.863734"/>
    <path stroke="null" id="svg_61" d="m129.358787,173.735472c17.018566,-16.875752 100.490581,-99.647299 117.509147,-116.523051"/>
    <path stroke="null" id="svg_62" d="m130.169195,23.460916c19.44979,11.250502 108.59466,61.877758 128.04445,73.12826"/>
    <path stroke="null" id="svg_63" d="m130.169195,21.853701c19.44979,5.625251 96.438541,25.715432 115.077923,31.340683"/>
    <path stroke="null" id="svg_64" d="m130.169195,21.050094c15.39775,0 66.453449,0 81.851199,0"/>
    <path stroke="null" id="svg_65" d="m130.169195,174.539079c19.44979,-11.250502 108.59466,-61.877758 128.04445,-73.12826"/>
    <path stroke="null" id="svg_66" d="m130.979603,20.246487c8.914487,-2.410822 27.553869,-8.036073 35.657948,-9.643287"/>
    <path stroke="null" id="svg_67" d="m81.54472,94.178354c2.431224,-8.83968 8.104079,-27.322647 9.724895,-35.358719"/>
    <path stroke="null" id="svg_68" d="m83.165536,94.981961c7.293671,-12.857716 33.226724,-57.056115 40.520396,-69.913831"/>
   </g>
   <g stroke="black" id="svg_69" fill="blue">
    <circle stroke="null" id="svg_70" r="1.848801" cy="8.995985" cx="171.499998"/>
    <circle stroke="null" id="svg_71" r="1.848801" cy="189.00401" cx="171.499998"/>
    <circle stroke="null" id="svg_72" r="1.848801" cy="176.949901" cx="216.882841"/>
    <circle stroke="null" id="svg_73" r="1.848801" cy="21.050094" cx="216.882841"/>
    <circle stroke="null" id="svg_74" r="1.848801" cy="53.997992" cx="92.890431"/>
    <circle stroke="null" id="svg_75" r="1.848801" cy="144.002004" cx="92.890431"/>
    <circle stroke="null" id="svg_76" r="1.848801" cy="53.997992" cx="250.109565"/>
    <circle stroke="null" id="svg_77" r="1.848801" cy="144.002004" cx="250.109565"/>
    <circle stroke="null" id="svg_78" r="1.848785" cy="98.999998" cx="262.265684"/>
    <circle stroke="null" id="svg_79" r="1.848801" cy="98.999998" cx="80.734312"/>
    <circle stroke="null" id="svg_80" r="1.848801" cy="176.949901" cx="126.117155"/>
    <circle stroke="null" id="svg_81" r="1.848793" cy="21.050094" cx="126.117155"/>
   </g>
  </g>
 </g>
</svg>