<svg width="115" height="100" viewBox="0 0 115 100" fill="none" xmlns="http://www.w3.org/2000/svg">
<path fill-rule="evenodd" clip-rule="evenodd" d="M19.2932 52.5898L25.0501 58.2688L13.4586 69.8603L7.70173 64.1035L14.0031 57.8021L5.83464 62.2364L5.44567 61.8474L0 56.4017L11.5915 44.8103L17.3483 50.5671L10.8913 57.0241L19.2154 52.512L19.2932 52.5898Z" fill="#808099"/>
<path fill-rule="evenodd" clip-rule="evenodd" d="M34.6968 67.9154L40.4536 73.6722L28.8621 85.2637L23.1053 79.5068L32.2073 70.4048L30.2624 68.4599L21.1604 77.562L15.4035 71.8051L26.995 60.2136L32.7519 65.9705V66.0483L34.619 67.9154H34.6968Z" fill="#808099"/>
<path fill-rule="evenodd" clip-rule="evenodd" d="M34.0742 83.7856L39.9089 89.6202L39.9867 89.698C39.4421 90.2426 39.3643 91.1761 39.8311 91.6429C40.2201 92.0319 40.9202 92.1097 41.5426 91.7207L43.9542 89.309C43.4875 89.309 43.0207 89.2312 42.7095 88.8423L42.6317 88.7645L37.186 83.3188C37.0305 83.1632 36.8749 83.0076 36.7193 82.7742C36.4081 82.1519 36.5637 81.4517 36.9527 80.8293C37.0305 80.6738 37.186 80.596 37.2638 80.5182L42.2427 75.5393L48.1552 81.4517L43.643 85.9638C43.4875 86.1194 43.4097 86.275 43.3319 86.4306C43.2541 86.5862 43.2541 86.7418 43.2541 86.8974C43.2541 87.2086 43.4097 87.5975 43.643 87.8309C44.1098 88.2977 44.81 88.2977 45.3545 87.9087L50.0223 83.241L55.8569 89.1534L45.8213 99.189C45.7435 99.2668 45.6657 99.3446 45.5879 99.4224C44.81 100.123 43.643 100.2 42.9429 99.578L31.896 88.5311L31.8182 88.4533C31.1958 87.7531 31.1958 86.5862 31.9738 85.8083C32.0516 85.7305 32.1294 85.6527 32.1294 85.6527L34.0742 83.7856Z" fill="#808099"/>
<path fill-rule="evenodd" clip-rule="evenodd" d="M13.8476 42.3984L56.246 0V30.2623C56.246 36.3304 52.045 40.4535 45.8214 40.6091H31.3515V32.8296L21.7049 42.4762L31.3515 52.1228V44.3433H45.8214C52.1228 44.4989 56.246 48.622 56.246 54.6901V84.9524L13.8476 42.3984Z" fill="#808099"/>
<path fill-rule="evenodd" clip-rule="evenodd" d="M60.1358 0L102.534 42.3984L60.1358 84.7968V54.5345C60.1358 48.4664 64.3367 44.3433 70.5604 44.1877H85.0303V51.9672L94.6769 42.3206L85.0303 32.674V40.4535H70.5604C64.2589 40.2979 60.1358 36.1748 60.1358 30.1068V0Z" fill="#1B4596"/>
<path fill-rule="evenodd" clip-rule="evenodd" d="M60.4468 89.0758L71.8827 77.6399C73.5164 75.9284 76.0836 75.8506 77.6395 77.3287C79.1954 78.8068 79.1954 81.3741 77.6395 83.0856C77.5617 83.1634 77.5617 83.2411 77.4839 83.2411L71.9605 88.7646L76.5504 93.2767L70.5602 99.1114L60.4468 89.0758ZM68.3819 85.186L71.9605 81.6074C72.4272 81.1407 73.1274 81.1407 73.5942 81.6074C74.0609 82.0742 74.0609 82.7744 73.5942 83.2411L70.0156 86.8197L68.3819 85.186Z" fill="#1B4596"/>
<path fill-rule="evenodd" clip-rule="evenodd" d="M78.6508 71.1049L84.4077 65.3481L84.4855 65.2703L99.8111 69.8602L94.0543 75.617L93.8209 75.8504V75.7726C92.8873 74.8391 91.1758 75.1503 89.9311 76.395C88.6864 77.6397 88.453 79.3512 89.3088 80.2847H89.3865L85.8858 83.7855L83.3185 86.3528L78.6508 71.1049ZM86.5081 73.0498C87.3639 72.194 88.5308 71.9607 89.1532 72.583C89.7755 73.2054 89.5421 74.3723 88.6864 75.2281C87.8306 76.0838 86.6637 76.3172 86.0414 75.6948C85.419 75.0725 85.6524 73.9055 86.5081 73.0498Z" fill="#1B4596"/>
<path fill-rule="evenodd" clip-rule="evenodd" d="M99.189 50.567L104.946 44.7324L114.904 54.6902L109.147 60.5248L104.79 56.1683L102.845 58.0354L107.202 62.4697L101.445 68.2265L91.4095 58.2687L97.2441 52.4341L101.367 56.5573L103.312 54.6902L99.189 50.567Z" fill="#1B4596"/>
</svg>
