<svg width="352" height="188" viewBox="0 0 352 188" fill="none" xmlns="http://www.w3.org/2000/svg">
<g clip-path="url(#clip0_2042_1424)">
<rect width="352" height="188" fill="white"/>
<rect width="352" height="188" fill="white"/>
<rect x="48" y="14" width="160" height="160" rx="32" fill="#D7E8FF"/>
<g clip-path="url(#clip1_2042_1424)">
<path d="M160 126C157.433 126 155.333 123.9 155.333 121.333C155.333 118.767 157.433 116.667 160 116.667C162.567 116.667 164.667 118.767 164.667 121.333C164.667 123.9 162.567 126 160 126ZM174 121.8C174 113.33 167.817 107.333 160 107.333C152.183 107.333 146 113.33 146 121.8C146 127.26 150.55 134.493 160 143.127C169.45 134.493 174 127.26 174 121.8ZM160 102.667C169.8 102.667 178.667 110.18 178.667 121.8C178.667 129.547 172.437 138.717 160 149.333C147.563 138.717 141.333 129.547 141.333 121.8C141.333 110.18 150.2 102.667 160 102.667Z" fill="#1B4596"/>
</g>
<g clip-path="url(#clip2_2042_1424)">
<path d="M96 111.767C98.7067 111.767 100.9 113.96 100.9 116.667C100.9 119.373 98.7067 121.567 96 121.567C93.2933 121.567 91.1 119.373 91.1 116.667C91.1 113.96 93.2933 111.767 96 111.767ZM96 132.767C102.93 132.767 110.233 136.173 110.233 137.667V140.233H81.7667V137.667C81.7667 136.173 89.07 132.767 96 132.767ZM96 107.333C90.8433 107.333 86.6667 111.51 86.6667 116.667C86.6667 121.823 90.8433 126 96 126C101.157 126 105.333 121.823 105.333 116.667C105.333 111.51 101.157 107.333 96 107.333ZM96 128.333C89.77 128.333 77.3333 131.46 77.3333 137.667V144.667H114.667V137.667C114.667 131.46 102.23 128.333 96 128.333Z" fill="#1B4596"/>
</g>
<g clip-path="url(#clip3_2042_1424)">
<path d="M100.667 38.6666H82C79.4333 38.6666 77.3567 40.7666 77.3567 43.3333L77.3333 80.6666C77.3333 83.2333 79.41 85.3333 81.9767 85.3333H110C112.567 85.3333 114.667 83.2333 114.667 80.6666V52.6666L100.667 38.6666ZM82 80.6666V43.3333H98.3333V55H110V80.6666H82Z" fill="#1B4596"/>
</g>
<path fill-rule="evenodd" clip-rule="evenodd" d="M150.667 52.6667H174V80.6667H150.083C148.333 80.6667 146 78.3334 146 76V51.7309C147.373 52.3261 148.966 52.6667 150.667 52.6667ZM141.333 45.6667C141.333 41.7992 145.51 38.6667 150.667 38.6667H178.667V43.3334C178.667 43.3334 176.741 44.4442 176.333 45.6667C176.045 46.5311 176.333 48 176.333 48H178.667V50.3334V52.6667V85.3334H150.667C145.51 85.3334 141.333 81.8334 141.333 76V45.6667ZM171.667 48H150.083C148.333 48 146 47.5917 146 45.6667C146 43.7417 148.333 43.3334 150.083 43.3334H172.701C172.168 44.0652 171.783 44.8511 171.667 45.6667C171.538 46.5688 171.667 48 171.667 48Z" fill="#1B4596"/>
<g clip-path="url(#clip4_2042_1424)">
<path d="M261.5 117H257.55L256.15 115.65C261.05 109.95 264 102.55 264 94.5C264 76.55 249.45 62 231.5 62C213.55 62 199 76.55 199 94.5C199 112.45 213.55 127 231.5 127C239.55 127 246.95 124.05 252.65 119.15L254 120.55V124.5L279 149.45L286.45 142L261.5 117ZM231.5 117C219.05 117 209 106.95 209 94.5C209 82.05 219.05 72 231.5 72C243.95 72 254 82.05 254 94.5C254 106.95 243.95 117 231.5 117Z" fill="#1B4596"/>
</g>
</g>
<defs>
<clipPath id="clip0_2042_1424">
<rect width="352" height="188" fill="white"/>
</clipPath>
<clipPath id="clip1_2042_1424">
<rect width="56" height="56" fill="white" transform="translate(132 98)"/>
</clipPath>
<clipPath id="clip2_2042_1424">
<rect width="56" height="56" fill="white" transform="translate(68 98)"/>
</clipPath>
<clipPath id="clip3_2042_1424">
<rect width="56" height="56" fill="white" transform="translate(68 34)"/>
</clipPath>
<clipPath id="clip4_2042_1424">
<rect width="120" height="120" fill="white" transform="translate(184 47)"/>
</clipPath>
</defs>
</svg>
