<svg width="352" height="188" viewBox="0 0 352 188" fill="none" xmlns="http://www.w3.org/2000/svg">
<g clip-path="url(#clip0_2042_1212)">
<rect width="352" height="188" fill="white"/>
<rect width="352" height="188" fill="white"/>
<rect x="235.856" y="159.358" width="5" height="135.518" rx="2.5" transform="rotate(153.107 235.856 159.358)" fill="#D7E8FF"/>
<rect x="233.384" y="156.736" width="5" height="53.9317" rx="2.5" transform="rotate(118.739 233.384 156.736)" fill="#D7E8FF"/>
<rect x="280.305" y="182.177" width="5" height="53.9317" rx="2.5" transform="rotate(118.739 280.305 182.177)" fill="#D7E8FF"/>
<rect x="104.211" y="73.234" width="5" height="69.8856" rx="2.5" transform="rotate(129.392 104.211 73.234)" fill="#D7E8FF"/>
<rect x="159.896" y="115.808" width="5" height="77.693" rx="2.5" transform="rotate(-169.145 159.896 115.808)" fill="#D7E8FF"/>
<rect x="155.988" y="181.951" width="5" height="71.777" rx="2.5" transform="rotate(-176.027 155.988 181.951)" fill="#D7E8FF"/>
<rect x="175.243" y="37.3665" width="5" height="24.8698" rx="2.5" transform="rotate(-169.145 175.243 37.3665)" fill="#D7E8FF"/>
<rect x="89.7633" y="142.421" width="5" height="134.322" rx="2.5" transform="rotate(-140.456 89.7633 142.421)" fill="#D7E8FF"/>
<rect x="42.4926" y="169.278" width="5" height="54.2247" rx="2.5" transform="rotate(-119.902 42.4926 169.278)" fill="#D7E8FF"/>
<rect x="266.083" y="49.9626" width="5" height="38.5473" rx="2.5" transform="rotate(-119.902 266.083 49.9626)" fill="#D7E8FF"/>
<rect x="86.9801" y="143.08" width="5" height="147.992" rx="2.5" transform="rotate(-82.7524 86.9801 143.08)" fill="#D7E8FF"/>
<ellipse cx="231.714" cy="158.495" rx="8" ry="8" fill="#D7E8FF"/>
<path d="M94.9635 141.245C94.9635 145.663 91.3818 149.245 86.9635 149.245C82.5452 149.245 78.9635 145.663 78.9635 141.245C78.9635 136.827 82.5452 133.245 86.9635 133.245C91.3818 133.245 94.9635 136.827 94.9635 141.245Z" fill="#D7E8FF"/>
<ellipse cx="171.714" cy="37.7451" rx="8" ry="8" fill="#D7E8FF"/>
<rect x="263.562" y="45.7999" width="5" height="164.779" rx="2.5" transform="rotate(58.3796 263.562 45.7999)" fill="#1B4596"/>
<rect x="262.872" y="46.5575" width="5" height="117.692" rx="2.5" transform="rotate(43.7229 262.872 46.5575)" fill="#1B4596"/>
<rect x="187.965" y="131.977" width="5" height="106.406" rx="2.5" transform="rotate(124.722 187.965 131.977)" fill="#1B4596"/>
<rect x="130.049" y="134.703" width="5" height="68.8389" rx="2.5" transform="rotate(156.797 130.049 134.703)" fill="#1B4596"/>
<circle cx="157.901" cy="113.495" r="6.5" fill="#D7E8FF" stroke="#1B4596" stroke-width="5"/>
<circle cx="102.214" cy="74.12" r="6.5" fill="#D7E8FF" stroke="#1B4596" stroke-width="5"/>
<circle cx="127.526" cy="132.62" r="6.5" fill="#D7E8FF" stroke="#1B4596" stroke-width="5"/>
<circle cx="262.089" cy="49.245" r="6.5" fill="#D7E8FF" stroke="#1B4596" stroke-width="5"/>
<circle cx="184.901" cy="132.62" r="6.5" fill="#D7E8FF" stroke="#1B4596" stroke-width="5"/>
</g>
<defs>
<clipPath id="clip0_2042_1212">
<rect width="352" height="188" fill="white"/>
</clipPath>
</defs>
</svg>
